G04 #@! TF.GenerationSoftware,KiCad,Pcbnew,5.1.5+dfsg1-2build2*
G04 #@! TF.CreationDate,2021-11-18T20:41:00+01:00*
G04 #@! TF.ProjectId,wideband_controller_mre,77696465-6261-46e6-945f-636f6e74726f,V1.0*
G04 #@! TF.SameCoordinates,Original*
G04 #@! TF.FileFunction,Copper,L2,Bot*
G04 #@! TF.FilePolarity,Positive*
%FSLAX46Y46*%
G04 Gerber Fmt 4.6, Leading zero omitted, Abs format (unit mm)*
G04 Created by KiCad (PCBNEW 5.1.5+dfsg1-2build2) date 2021-11-18 20:41:00*
%MOMM*%
%LPD*%
G04 APERTURE LIST*
%ADD10R,1.600000X1.600000*%
%ADD11C,1.600000*%
%ADD12R,1.300000X0.800000*%
%ADD13O,1.300000X0.800000*%
%ADD14R,1.524000X1.524000*%
%ADD15C,1.400000*%
%ADD16O,1.700000X1.700000*%
%ADD17R,1.700000X1.700000*%
%ADD18C,1.500000*%
%ADD19C,0.100000*%
%ADD20R,1.500000X1.000000*%
%ADD21C,0.800000*%
%ADD22C,0.600000*%
%ADD23C,0.500000*%
%ADD24C,0.300000*%
%ADD25C,0.250000*%
%ADD26C,0.600000*%
%ADD27C,0.200000*%
G04 APERTURE END LIST*
D10*
X117900600Y-159360800D03*
X115400600Y-159360800D03*
D11*
X127513080Y-165839060D03*
X130053080Y-165839060D03*
X135133080Y-165839060D03*
X135133080Y-168379060D03*
X130053080Y-168379060D03*
X132593080Y-168379060D03*
X127513080Y-168379060D03*
X132593080Y-165839060D03*
X124973080Y-165839060D03*
D10*
X124973080Y-168379060D03*
X154000200Y-155910200D03*
D11*
X154000200Y-158450200D03*
X154000200Y-160990200D03*
D10*
X121615200Y-169880200D03*
X109550200Y-169880200D03*
X76530200Y-155910200D03*
D11*
X76530200Y-158450200D03*
X76530200Y-160990200D03*
D10*
X76530200Y-148290200D03*
D11*
X76530200Y-150830200D03*
X76530200Y-153370200D03*
D10*
X79197200Y-159212200D03*
D11*
X81737200Y-159212200D03*
X84277200Y-159212200D03*
D10*
X79197200Y-149941200D03*
D11*
X81737200Y-149941200D03*
X84277200Y-149941200D03*
D10*
X145478500Y-135336200D03*
D11*
X142938500Y-135336200D03*
X140398500Y-135336200D03*
X137858500Y-135336200D03*
X135318500Y-135336200D03*
X145478500Y-132796200D03*
X142938500Y-132796200D03*
X140398500Y-132796200D03*
X137858500Y-132796200D03*
X135318500Y-132796200D03*
D12*
X106654600Y-146055000D03*
D13*
X106654600Y-144810400D03*
D14*
X112900600Y-159360800D03*
X110400600Y-159360800D03*
D15*
X91360600Y-140771800D03*
X85360600Y-140771800D03*
D16*
X99680000Y-133200000D03*
X97140000Y-133200000D03*
D17*
X94600000Y-133200000D03*
D18*
X143200000Y-150600000D03*
X143200000Y-147600000D03*
X143200000Y-144600000D03*
X146200000Y-150600000D03*
X146200000Y-147600000D03*
G04 #@! TA.AperFunction,ComponentPad*
D19*
G36*
X146724053Y-143851206D02*
G01*
X146748370Y-143854813D01*
X146772216Y-143860786D01*
X146795362Y-143869068D01*
X146817585Y-143879579D01*
X146838670Y-143892217D01*
X146858416Y-143906861D01*
X146876630Y-143923370D01*
X146893139Y-143941584D01*
X146907783Y-143961330D01*
X146920421Y-143982415D01*
X146930932Y-144004638D01*
X146939214Y-144027784D01*
X146945187Y-144051630D01*
X146948794Y-144075947D01*
X146950000Y-144100500D01*
X146950000Y-145099500D01*
X146948794Y-145124053D01*
X146945187Y-145148370D01*
X146939214Y-145172216D01*
X146930932Y-145195362D01*
X146920421Y-145217585D01*
X146907783Y-145238670D01*
X146893139Y-145258416D01*
X146876630Y-145276630D01*
X146858416Y-145293139D01*
X146838670Y-145307783D01*
X146817585Y-145320421D01*
X146795362Y-145330932D01*
X146772216Y-145339214D01*
X146748370Y-145345187D01*
X146724053Y-145348794D01*
X146699500Y-145350000D01*
X145700500Y-145350000D01*
X145675947Y-145348794D01*
X145651630Y-145345187D01*
X145627784Y-145339214D01*
X145604638Y-145330932D01*
X145582415Y-145320421D01*
X145561330Y-145307783D01*
X145541584Y-145293139D01*
X145523370Y-145276630D01*
X145506861Y-145258416D01*
X145492217Y-145238670D01*
X145479579Y-145217585D01*
X145469068Y-145195362D01*
X145460786Y-145172216D01*
X145454813Y-145148370D01*
X145451206Y-145124053D01*
X145450000Y-145099500D01*
X145450000Y-144100500D01*
X145451206Y-144075947D01*
X145454813Y-144051630D01*
X145460786Y-144027784D01*
X145469068Y-144004638D01*
X145479579Y-143982415D01*
X145492217Y-143961330D01*
X145506861Y-143941584D01*
X145523370Y-143923370D01*
X145541584Y-143906861D01*
X145561330Y-143892217D01*
X145582415Y-143879579D01*
X145604638Y-143869068D01*
X145627784Y-143860786D01*
X145651630Y-143854813D01*
X145675947Y-143851206D01*
X145700500Y-143850000D01*
X146699500Y-143850000D01*
X146724053Y-143851206D01*
G37*
G04 #@! TD.AperFunction*
D18*
X143200000Y-150600000D03*
X143200000Y-147600000D03*
X143200000Y-144600000D03*
X146200000Y-150600000D03*
X146200000Y-147600000D03*
G04 #@! TA.AperFunction,ComponentPad*
D19*
G36*
X146724504Y-143851204D02*
G01*
X146748773Y-143854804D01*
X146772571Y-143860765D01*
X146795671Y-143869030D01*
X146817849Y-143879520D01*
X146838893Y-143892133D01*
X146858598Y-143906747D01*
X146876777Y-143923223D01*
X146893253Y-143941402D01*
X146907867Y-143961107D01*
X146920480Y-143982151D01*
X146930970Y-144004329D01*
X146939235Y-144027429D01*
X146945196Y-144051227D01*
X146948796Y-144075496D01*
X146950000Y-144100000D01*
X146950000Y-145100000D01*
X146948796Y-145124504D01*
X146945196Y-145148773D01*
X146939235Y-145172571D01*
X146930970Y-145195671D01*
X146920480Y-145217849D01*
X146907867Y-145238893D01*
X146893253Y-145258598D01*
X146876777Y-145276777D01*
X146858598Y-145293253D01*
X146838893Y-145307867D01*
X146817849Y-145320480D01*
X146795671Y-145330970D01*
X146772571Y-145339235D01*
X146748773Y-145345196D01*
X146724504Y-145348796D01*
X146700000Y-145350000D01*
X145700000Y-145350000D01*
X145675496Y-145348796D01*
X145651227Y-145345196D01*
X145627429Y-145339235D01*
X145604329Y-145330970D01*
X145582151Y-145320480D01*
X145561107Y-145307867D01*
X145541402Y-145293253D01*
X145523223Y-145276777D01*
X145506747Y-145258598D01*
X145492133Y-145238893D01*
X145479520Y-145217849D01*
X145469030Y-145195671D01*
X145460765Y-145172571D01*
X145454804Y-145148773D01*
X145451204Y-145124504D01*
X145450000Y-145100000D01*
X145450000Y-144100000D01*
X145451204Y-144075496D01*
X145454804Y-144051227D01*
X145460765Y-144027429D01*
X145469030Y-144004329D01*
X145479520Y-143982151D01*
X145492133Y-143961107D01*
X145506747Y-143941402D01*
X145523223Y-143923223D01*
X145541402Y-143906747D01*
X145561107Y-143892133D01*
X145582151Y-143879520D01*
X145604329Y-143869030D01*
X145627429Y-143860765D01*
X145651227Y-143854804D01*
X145675496Y-143851204D01*
X145700000Y-143850000D01*
X146700000Y-143850000D01*
X146724504Y-143851204D01*
G37*
G04 #@! TD.AperFunction*
D20*
X108000000Y-135100000D03*
X108000000Y-136400000D03*
X108000000Y-137700000D03*
X110600000Y-135100000D03*
X110600000Y-136400000D03*
X110600000Y-137700000D03*
D16*
X102900000Y-128200000D03*
X105440000Y-128200000D03*
X107980000Y-128200000D03*
X110520000Y-128200000D03*
X113060000Y-128200000D03*
D17*
X115600000Y-128200000D03*
D21*
X100800000Y-129800000D03*
D22*
X120300000Y-144700000D03*
D21*
X153800000Y-129800000D03*
X153800000Y-138400000D03*
X149300000Y-138400000D03*
D22*
X103500000Y-138400000D03*
X89300000Y-131300000D03*
X92500000Y-131000000D03*
X92500000Y-136400000D03*
X113100000Y-142100000D03*
X117200000Y-130800000D03*
X104800000Y-131000000D03*
D21*
X119400000Y-129800000D03*
X126600000Y-161200000D03*
X126600000Y-157000000D03*
D22*
X108800000Y-135200000D03*
X111200000Y-135200000D03*
D21*
X120400000Y-150800000D03*
X139200000Y-151800000D03*
X139200000Y-153000000D03*
X139200000Y-154200000D03*
X140400000Y-151800000D03*
X140400000Y-153000000D03*
X140400000Y-154200000D03*
X135000000Y-153000000D03*
X135000000Y-151800000D03*
X135000000Y-154200000D03*
X138000000Y-151800000D03*
X138000000Y-153000000D03*
X138000000Y-154200000D03*
X133600000Y-151800000D03*
X133600000Y-153000000D03*
X133600000Y-154200000D03*
X128400000Y-137400000D03*
X122800000Y-134200000D03*
X126600000Y-129800000D03*
X88600000Y-139200000D03*
D22*
X122115400Y-147200000D03*
D21*
X135280400Y-138455400D03*
X132588000Y-171627800D03*
X132588000Y-161200000D03*
D22*
X122200000Y-144700000D03*
D21*
X124100000Y-157000000D03*
X124000000Y-161200000D03*
X118200000Y-144700000D03*
X120400000Y-153000000D03*
X129100000Y-153000000D03*
X129100000Y-144300000D03*
X129100000Y-145400000D03*
X129100000Y-146500000D03*
X129100000Y-147600000D03*
X129100000Y-148700000D03*
X130200000Y-144300000D03*
X130200000Y-145400000D03*
X130200000Y-146500000D03*
X130200000Y-147600000D03*
X130200000Y-148700000D03*
X138500000Y-145400000D03*
X140000000Y-145400000D03*
X140000000Y-144400000D03*
X138500000Y-144400000D03*
X138500000Y-149400000D03*
X140000000Y-149400000D03*
D22*
X128300000Y-131800000D03*
X119200000Y-132400000D03*
X132400000Y-141400000D03*
X112800000Y-130800000D03*
X109200000Y-130800000D03*
X115000000Y-132800000D03*
X128400000Y-141400000D03*
X117200000Y-153000000D03*
X119800000Y-156000000D03*
X122800000Y-136400000D03*
X118600000Y-136800000D03*
X116600000Y-134200000D03*
X118600000Y-127400000D03*
D21*
X89200000Y-132900000D03*
X108400000Y-138400000D03*
X124800000Y-140000000D03*
X123200000Y-150000000D03*
D22*
X94144999Y-139155001D03*
X124400000Y-129800000D03*
X116600000Y-136400000D03*
X115800000Y-137000000D03*
X88000000Y-131300000D03*
D21*
X125600000Y-154200000D03*
D22*
X106000000Y-138400000D03*
X106600000Y-139200000D03*
X108000000Y-133600000D03*
X107200000Y-136400000D03*
X117800000Y-133400000D03*
X120200000Y-133400000D03*
X125400000Y-137400000D03*
X116600000Y-135400000D03*
X119200000Y-137400000D03*
X110200000Y-133600000D03*
X110600000Y-139000000D03*
X132400000Y-131800000D03*
X103500000Y-141600000D03*
X111200000Y-141900000D03*
X109200000Y-133600000D03*
D21*
X115000000Y-138200000D03*
D23*
X132593080Y-165839060D02*
X132593080Y-168379060D01*
D24*
X108100000Y-135200000D02*
X108000000Y-135100000D01*
X108800000Y-135200000D02*
X108100000Y-135200000D01*
D25*
X116600000Y-133600000D02*
X116600000Y-134200000D01*
X118600000Y-131600000D02*
X116600000Y-133600000D01*
X118600000Y-127400000D02*
X118600000Y-131600000D01*
D26*
X127513080Y-168379060D02*
X127513080Y-165839060D01*
D23*
X127513080Y-154313080D02*
X123200000Y-150000000D01*
X127513080Y-165839060D02*
X127513080Y-154313080D01*
X123200000Y-141200000D02*
X123200000Y-141000000D01*
X123200000Y-150000000D02*
X123200000Y-141200000D01*
D24*
X110600000Y-137700000D02*
X108000000Y-137700000D01*
D25*
X110700000Y-137800000D02*
X110600000Y-137700000D01*
D23*
X137584702Y-140000000D02*
X125365685Y-140000000D01*
X125365685Y-140000000D02*
X124800000Y-140000000D01*
X141688499Y-135896203D02*
X137584702Y-140000000D01*
X108400000Y-138100000D02*
X108000000Y-137700000D01*
X108400000Y-138600000D02*
X108400000Y-138100000D01*
X109800000Y-140000000D02*
X108400000Y-138600000D01*
X123200000Y-140200000D02*
X123000000Y-140000000D01*
X123200000Y-141200000D02*
X123200000Y-140200000D01*
X124800000Y-140000000D02*
X123000000Y-140000000D01*
X141688499Y-134046201D02*
X141688499Y-135896203D01*
X141688499Y-130288499D02*
X137800000Y-126400000D01*
X116050000Y-126400000D02*
X115600000Y-126850000D01*
X115600000Y-126850000D02*
X115600000Y-128200000D01*
X137800000Y-126400000D02*
X116050000Y-126400000D01*
X141803330Y-132800000D02*
X141648501Y-132800000D01*
X141807130Y-132796200D02*
X141803330Y-132800000D01*
X142938500Y-132796200D02*
X141807130Y-132796200D01*
X141688499Y-134046201D02*
X141688499Y-130288499D01*
X123000000Y-140000000D02*
X111300000Y-140000000D01*
X111300000Y-140000000D02*
X109800000Y-140000000D01*
X89200000Y-133465685D02*
X89200000Y-132900000D01*
X89200000Y-134210002D02*
X89200000Y-133465685D01*
X94989998Y-140000000D02*
X94144999Y-139155001D01*
X109800000Y-140000000D02*
X94989998Y-140000000D01*
X94144999Y-139155001D02*
X89200000Y-134210002D01*
D27*
X119824264Y-134800000D02*
X124400000Y-130224264D01*
X116311998Y-134800000D02*
X119824264Y-134800000D01*
X115999999Y-135111999D02*
X116311998Y-134800000D01*
X124400000Y-130224264D02*
X124400000Y-129800000D01*
X115999999Y-135799999D02*
X115999999Y-135111999D01*
X116600000Y-136400000D02*
X115999999Y-135799999D01*
D25*
X115800000Y-136575736D02*
X115800000Y-137000000D01*
X115574989Y-136350725D02*
X115800000Y-136575736D01*
X115574989Y-134935955D02*
X115574989Y-136350725D01*
X115800000Y-134710944D02*
X115574989Y-134935955D01*
X115800000Y-130940000D02*
X115800000Y-134710944D01*
X113060000Y-128200000D02*
X115800000Y-130940000D01*
D26*
X124973080Y-165839060D02*
X124973080Y-168379060D01*
D23*
X125600000Y-165212140D02*
X124973080Y-165839060D01*
X125600000Y-154200000D02*
X125600000Y-165212140D01*
X121265399Y-149865399D02*
X125600000Y-154200000D01*
X121265399Y-141534601D02*
X121265399Y-149865399D01*
X120430808Y-140700010D02*
X121265399Y-141534601D01*
X93900010Y-140700010D02*
X120430808Y-140700010D01*
X88000000Y-134800000D02*
X93900010Y-140700010D01*
X88000000Y-131300000D02*
X88000000Y-134800000D01*
D26*
X124973080Y-169779060D02*
X124973080Y-168379060D01*
X124993400Y-171993400D02*
X124993400Y-169799380D01*
X124993400Y-169799380D02*
X124973080Y-169779060D01*
X142600000Y-173200000D02*
X126200000Y-173200000D01*
X126200000Y-173200000D02*
X124993400Y-171993400D01*
X152247600Y-154752400D02*
X152247600Y-163552400D01*
X152247600Y-163552400D02*
X142600000Y-173200000D01*
X153000000Y-154000000D02*
X152247600Y-154752400D01*
X153000000Y-144257700D02*
X153000000Y-154000000D01*
X145478500Y-136736200D02*
X153000000Y-144257700D01*
X145478500Y-135336200D02*
X145478500Y-136736200D01*
D25*
X107980000Y-131983590D02*
X107980000Y-128200000D01*
X106099981Y-133863609D02*
X107980000Y-131983590D01*
X106099980Y-138300020D02*
X106099981Y-133863609D01*
X106000000Y-138400000D02*
X106099980Y-138300020D01*
X106899999Y-137025001D02*
X106899999Y-138900001D01*
X106549990Y-136674992D02*
X106899999Y-137025001D01*
X107625001Y-132974999D02*
X106549990Y-134050010D01*
X106899999Y-138900001D02*
X106600000Y-139200000D01*
X110520000Y-131680000D02*
X109225001Y-132974999D01*
X106549990Y-134050010D02*
X106549990Y-136674992D01*
X109225001Y-132974999D02*
X107625001Y-132974999D01*
X110520000Y-130680000D02*
X110520000Y-131680000D01*
X110520000Y-128200000D02*
X110520000Y-130680000D01*
X110520000Y-130680000D02*
X110520000Y-131280000D01*
X109524999Y-134789997D02*
X109524999Y-136324999D01*
X108250735Y-134274999D02*
X109010001Y-134274999D01*
X109010001Y-134274999D02*
X109524999Y-134789997D01*
X108000000Y-134024264D02*
X108250735Y-134274999D01*
X109600000Y-136400000D02*
X110600000Y-136400000D01*
X109524999Y-136324999D02*
X109600000Y-136400000D01*
X108000000Y-133600000D02*
X108000000Y-134024264D01*
X107000000Y-136400000D02*
X108000000Y-136400000D01*
X117800000Y-133400000D02*
X120200000Y-133400000D01*
X123400000Y-135400000D02*
X125400000Y-137400000D01*
X116600000Y-135400000D02*
X123400000Y-135400000D01*
X110200000Y-133600000D02*
X114200000Y-133600000D01*
X115149978Y-133600000D02*
X114200000Y-133600000D01*
X115124979Y-137249981D02*
X115124979Y-133624999D01*
X115574997Y-137699999D02*
X115124979Y-137249981D01*
X115124979Y-133624999D02*
X115149978Y-133600000D01*
X118900001Y-137699999D02*
X115574997Y-137699999D01*
X119200000Y-137400000D02*
X118900001Y-137699999D01*
X110600000Y-139000000D02*
X131200000Y-139000000D01*
X131200000Y-139000000D02*
X132400000Y-137800000D01*
X132400000Y-137800000D02*
X132400000Y-131800000D01*
X111200000Y-141900000D02*
X104000000Y-141900000D01*
X103799999Y-141899999D02*
X103500000Y-141600000D01*
X111200000Y-141900000D02*
X103799999Y-141899999D01*
X109825001Y-134225001D02*
X113974999Y-134225001D01*
X109200000Y-133600000D02*
X109825001Y-134225001D01*
X113974999Y-134225001D02*
X114600000Y-134850002D01*
X114600001Y-137800001D02*
X115000000Y-138200000D01*
X114600000Y-134850002D02*
X114600001Y-137800001D01*
D27*
G36*
X155221513Y-162372064D02*
G01*
X143180601Y-173839600D01*
X142744481Y-173839600D01*
X142851486Y-173807140D01*
X142965101Y-173746412D01*
X143064685Y-173664685D01*
X143085166Y-173639729D01*
X152687329Y-164037566D01*
X152712285Y-164017085D01*
X152794012Y-163917501D01*
X152854740Y-163803886D01*
X152865707Y-163767732D01*
X152892137Y-163680607D01*
X152893284Y-163668957D01*
X152901600Y-163584525D01*
X152901600Y-163584518D01*
X152904763Y-163552400D01*
X152901600Y-163520282D01*
X152901600Y-161353493D01*
X152977538Y-161536824D01*
X153103829Y-161725832D01*
X153264568Y-161886571D01*
X153453576Y-162012862D01*
X153663591Y-162099853D01*
X153886541Y-162144200D01*
X154113859Y-162144200D01*
X154336809Y-162099853D01*
X154546824Y-162012862D01*
X154735832Y-161886571D01*
X154896571Y-161725832D01*
X155022862Y-161536824D01*
X155109853Y-161326809D01*
X155154200Y-161103859D01*
X155154200Y-160876541D01*
X155109853Y-160653591D01*
X155022862Y-160443576D01*
X154896571Y-160254568D01*
X154735832Y-160093829D01*
X154546824Y-159967538D01*
X154336809Y-159880547D01*
X154113859Y-159836200D01*
X153886541Y-159836200D01*
X153663591Y-159880547D01*
X153453576Y-159967538D01*
X153264568Y-160093829D01*
X153103829Y-160254568D01*
X152977538Y-160443576D01*
X152901600Y-160626907D01*
X152901600Y-158813493D01*
X152977538Y-158996824D01*
X153103829Y-159185832D01*
X153264568Y-159346571D01*
X153453576Y-159472862D01*
X153663591Y-159559853D01*
X153886541Y-159604200D01*
X154113859Y-159604200D01*
X154336809Y-159559853D01*
X154546824Y-159472862D01*
X154735832Y-159346571D01*
X154896571Y-159185832D01*
X155022862Y-158996824D01*
X155109853Y-158786809D01*
X155154200Y-158563859D01*
X155154200Y-158336541D01*
X155109853Y-158113591D01*
X155022862Y-157903576D01*
X154896571Y-157714568D01*
X154735832Y-157553829D01*
X154546824Y-157427538D01*
X154336809Y-157340547D01*
X154113859Y-157296200D01*
X153886541Y-157296200D01*
X153663591Y-157340547D01*
X153453576Y-157427538D01*
X153264568Y-157553829D01*
X153103829Y-157714568D01*
X152977538Y-157903576D01*
X152901600Y-158086907D01*
X152901600Y-156902517D01*
X152904436Y-156907823D01*
X152948674Y-156961726D01*
X153002577Y-157005964D01*
X153064075Y-157038835D01*
X153130804Y-157059077D01*
X153200200Y-157065912D01*
X154800200Y-157065912D01*
X154869596Y-157059077D01*
X154936325Y-157038835D01*
X154997823Y-157005964D01*
X155051726Y-156961726D01*
X155095964Y-156907823D01*
X155128835Y-156846325D01*
X155149077Y-156779596D01*
X155155912Y-156710200D01*
X155155912Y-155110200D01*
X155149077Y-155040804D01*
X155128835Y-154974075D01*
X155095964Y-154912577D01*
X155051726Y-154858674D01*
X154997823Y-154814436D01*
X154936325Y-154781565D01*
X154869596Y-154761323D01*
X154800200Y-154754488D01*
X153200200Y-154754488D01*
X153167153Y-154757743D01*
X153439734Y-154485162D01*
X153464685Y-154464685D01*
X153501412Y-154419934D01*
X153546411Y-154365102D01*
X153607140Y-154251486D01*
X153622758Y-154200000D01*
X153644537Y-154128206D01*
X153654000Y-154032125D01*
X153654000Y-154032116D01*
X153657163Y-154000001D01*
X153654000Y-153967886D01*
X153654000Y-144289814D01*
X153657163Y-144257699D01*
X153654000Y-144225584D01*
X153654000Y-144225575D01*
X153644537Y-144129494D01*
X153607140Y-144006214D01*
X153546412Y-143892599D01*
X153464685Y-143793015D01*
X153439736Y-143772540D01*
X146159107Y-136491912D01*
X146278500Y-136491912D01*
X146347896Y-136485077D01*
X146414625Y-136464835D01*
X146476123Y-136431964D01*
X146530026Y-136387726D01*
X146574264Y-136333823D01*
X146607135Y-136272325D01*
X146627377Y-136205596D01*
X146634212Y-136136200D01*
X146634212Y-134536200D01*
X146627377Y-134466804D01*
X146607135Y-134400075D01*
X146574264Y-134338577D01*
X146530026Y-134284674D01*
X146476123Y-134240436D01*
X146414625Y-134207565D01*
X146347896Y-134187323D01*
X146278500Y-134180488D01*
X144678500Y-134180488D01*
X144609104Y-134187323D01*
X144542375Y-134207565D01*
X144480877Y-134240436D01*
X144426974Y-134284674D01*
X144382736Y-134338577D01*
X144349865Y-134400075D01*
X144329623Y-134466804D01*
X144322788Y-134536200D01*
X144322788Y-136136200D01*
X144329623Y-136205596D01*
X144349865Y-136272325D01*
X144382736Y-136333823D01*
X144426974Y-136387726D01*
X144480877Y-136431964D01*
X144542375Y-136464835D01*
X144609104Y-136485077D01*
X144678500Y-136491912D01*
X144824501Y-136491912D01*
X144824501Y-136704073D01*
X144821337Y-136736200D01*
X144833963Y-136864406D01*
X144871360Y-136987685D01*
X144932089Y-137101301D01*
X144969644Y-137147061D01*
X145013816Y-137200885D01*
X145038766Y-137221361D01*
X152346000Y-144528596D01*
X152346000Y-147276633D01*
X152302752Y-147059208D01*
X152162994Y-146721802D01*
X151960096Y-146418144D01*
X151701856Y-146159904D01*
X151398198Y-145957006D01*
X151060792Y-145817248D01*
X150702603Y-145746000D01*
X150337397Y-145746000D01*
X149979208Y-145817248D01*
X149641802Y-145957006D01*
X149338144Y-146159904D01*
X149079904Y-146418144D01*
X148877006Y-146721802D01*
X148737248Y-147059208D01*
X148666000Y-147417397D01*
X148666000Y-147782603D01*
X148737248Y-148140792D01*
X148877006Y-148478198D01*
X149079904Y-148781856D01*
X149338144Y-149040096D01*
X149641802Y-149242994D01*
X149979208Y-149382752D01*
X150337397Y-149454000D01*
X150702603Y-149454000D01*
X151060792Y-149382752D01*
X151398198Y-149242994D01*
X151701856Y-149040096D01*
X151960096Y-148781856D01*
X152162994Y-148478198D01*
X152302752Y-148140792D01*
X152346000Y-147923367D01*
X152346001Y-153729103D01*
X151807871Y-154267234D01*
X151782915Y-154287715D01*
X151701188Y-154387300D01*
X151659825Y-154464685D01*
X151640460Y-154500915D01*
X151608237Y-154607140D01*
X151603063Y-154624195D01*
X151593600Y-154720276D01*
X151593600Y-154720282D01*
X151590437Y-154752400D01*
X151593600Y-154784518D01*
X151593601Y-163281504D01*
X142329105Y-172546000D01*
X126470896Y-172546000D01*
X125647400Y-171722505D01*
X125647400Y-169831498D01*
X125650563Y-169799380D01*
X125647400Y-169767262D01*
X125647400Y-169767255D01*
X125637937Y-169671174D01*
X125627080Y-169635384D01*
X125627080Y-169534772D01*
X125773080Y-169534772D01*
X125842476Y-169527937D01*
X125909205Y-169507695D01*
X125970703Y-169474824D01*
X126024606Y-169430586D01*
X126068844Y-169376683D01*
X126101715Y-169315185D01*
X126121957Y-169248456D01*
X126128792Y-169179060D01*
X126128792Y-167579060D01*
X126121957Y-167509664D01*
X126101715Y-167442935D01*
X126068844Y-167381437D01*
X126024606Y-167327534D01*
X125970703Y-167283296D01*
X125909205Y-167250425D01*
X125842476Y-167230183D01*
X125773080Y-167223348D01*
X125627080Y-167223348D01*
X125627080Y-166789976D01*
X125708712Y-166735431D01*
X125869451Y-166574692D01*
X125995742Y-166385684D01*
X126082733Y-166175669D01*
X126127080Y-165952719D01*
X126127080Y-165725401D01*
X126094511Y-165561666D01*
X126104637Y-165549328D01*
X126160723Y-165444399D01*
X126195260Y-165330545D01*
X126204000Y-165241807D01*
X126206922Y-165212140D01*
X126204000Y-165182473D01*
X126204000Y-154653214D01*
X126268186Y-154557153D01*
X126325024Y-154419934D01*
X126354000Y-154274262D01*
X126354000Y-154125738D01*
X126325024Y-153980066D01*
X126324418Y-153978603D01*
X126909081Y-154563266D01*
X126909080Y-164854735D01*
X126777448Y-164942689D01*
X126616709Y-165103428D01*
X126490418Y-165292436D01*
X126403427Y-165502451D01*
X126359080Y-165725401D01*
X126359080Y-165952719D01*
X126403427Y-166175669D01*
X126490418Y-166385684D01*
X126616709Y-166574692D01*
X126777448Y-166735431D01*
X126859081Y-166789976D01*
X126859080Y-167428144D01*
X126777448Y-167482689D01*
X126616709Y-167643428D01*
X126490418Y-167832436D01*
X126403427Y-168042451D01*
X126359080Y-168265401D01*
X126359080Y-168492719D01*
X126403427Y-168715669D01*
X126490418Y-168925684D01*
X126616709Y-169114692D01*
X126777448Y-169275431D01*
X126966456Y-169401722D01*
X127176471Y-169488713D01*
X127399421Y-169533060D01*
X127626739Y-169533060D01*
X127849689Y-169488713D01*
X128059704Y-169401722D01*
X128248712Y-169275431D01*
X128409451Y-169114692D01*
X128535742Y-168925684D01*
X128622733Y-168715669D01*
X128667080Y-168492719D01*
X128667080Y-168265401D01*
X128899080Y-168265401D01*
X128899080Y-168492719D01*
X128943427Y-168715669D01*
X129030418Y-168925684D01*
X129156709Y-169114692D01*
X129317448Y-169275431D01*
X129506456Y-169401722D01*
X129716471Y-169488713D01*
X129939421Y-169533060D01*
X130166739Y-169533060D01*
X130389689Y-169488713D01*
X130599704Y-169401722D01*
X130640842Y-169374234D01*
X131815695Y-169374234D01*
X131891004Y-169607387D01*
X132144128Y-169720753D01*
X132414506Y-169782558D01*
X132691746Y-169790429D01*
X132965194Y-169744061D01*
X133224343Y-169645237D01*
X133295156Y-169607387D01*
X133370465Y-169374234D01*
X132593080Y-168596849D01*
X131815695Y-169374234D01*
X130640842Y-169374234D01*
X130788712Y-169275431D01*
X130949451Y-169114692D01*
X131075742Y-168925684D01*
X131162733Y-168715669D01*
X131194758Y-168554668D01*
X131228079Y-168751174D01*
X131326903Y-169010323D01*
X131364753Y-169081136D01*
X131597906Y-169156445D01*
X132375291Y-168379060D01*
X132810869Y-168379060D01*
X133588254Y-169156445D01*
X133821407Y-169081136D01*
X133934773Y-168828012D01*
X133994126Y-168568361D01*
X134023427Y-168715669D01*
X134110418Y-168925684D01*
X134236709Y-169114692D01*
X134397448Y-169275431D01*
X134586456Y-169401722D01*
X134796471Y-169488713D01*
X135019421Y-169533060D01*
X135246739Y-169533060D01*
X135469689Y-169488713D01*
X135679704Y-169401722D01*
X135868712Y-169275431D01*
X136029451Y-169114692D01*
X136155742Y-168925684D01*
X136242733Y-168715669D01*
X136287080Y-168492719D01*
X136287080Y-168265401D01*
X136242733Y-168042451D01*
X136155742Y-167832436D01*
X136029451Y-167643428D01*
X135868712Y-167482689D01*
X135679704Y-167356398D01*
X135469689Y-167269407D01*
X135246739Y-167225060D01*
X135019421Y-167225060D01*
X134796471Y-167269407D01*
X134586456Y-167356398D01*
X134397448Y-167482689D01*
X134236709Y-167643428D01*
X134110418Y-167832436D01*
X134023427Y-168042451D01*
X133991402Y-168203452D01*
X133958081Y-168006946D01*
X133859257Y-167747797D01*
X133821407Y-167676984D01*
X133588254Y-167601675D01*
X132810869Y-168379060D01*
X132375291Y-168379060D01*
X131597906Y-167601675D01*
X131364753Y-167676984D01*
X131251387Y-167930108D01*
X131192034Y-168189759D01*
X131162733Y-168042451D01*
X131075742Y-167832436D01*
X130949451Y-167643428D01*
X130788712Y-167482689D01*
X130599704Y-167356398D01*
X130389689Y-167269407D01*
X130166739Y-167225060D01*
X129939421Y-167225060D01*
X129716471Y-167269407D01*
X129506456Y-167356398D01*
X129317448Y-167482689D01*
X129156709Y-167643428D01*
X129030418Y-167832436D01*
X128943427Y-168042451D01*
X128899080Y-168265401D01*
X128667080Y-168265401D01*
X128622733Y-168042451D01*
X128535742Y-167832436D01*
X128409451Y-167643428D01*
X128248712Y-167482689D01*
X128167080Y-167428144D01*
X128167080Y-166789976D01*
X128248712Y-166735431D01*
X128409451Y-166574692D01*
X128535742Y-166385684D01*
X128622733Y-166175669D01*
X128667080Y-165952719D01*
X128667080Y-165725401D01*
X128899080Y-165725401D01*
X128899080Y-165952719D01*
X128943427Y-166175669D01*
X129030418Y-166385684D01*
X129156709Y-166574692D01*
X129317448Y-166735431D01*
X129506456Y-166861722D01*
X129716471Y-166948713D01*
X129939421Y-166993060D01*
X130166739Y-166993060D01*
X130389689Y-166948713D01*
X130599704Y-166861722D01*
X130640842Y-166834234D01*
X131815695Y-166834234D01*
X131891004Y-167067387D01*
X131978437Y-167106545D01*
X131961817Y-167112883D01*
X131891004Y-167150733D01*
X131815695Y-167383886D01*
X132593080Y-168161271D01*
X133370465Y-167383886D01*
X133295156Y-167150733D01*
X133207723Y-167111575D01*
X133224343Y-167105237D01*
X133295156Y-167067387D01*
X133370465Y-166834234D01*
X132593080Y-166056849D01*
X131815695Y-166834234D01*
X130640842Y-166834234D01*
X130788712Y-166735431D01*
X130949451Y-166574692D01*
X131075742Y-166385684D01*
X131162733Y-166175669D01*
X131194758Y-166014668D01*
X131228079Y-166211174D01*
X131326903Y-166470323D01*
X131364753Y-166541136D01*
X131597906Y-166616445D01*
X132375291Y-165839060D01*
X132810869Y-165839060D01*
X133588254Y-166616445D01*
X133821407Y-166541136D01*
X133934773Y-166288012D01*
X133994126Y-166028361D01*
X134023427Y-166175669D01*
X134110418Y-166385684D01*
X134236709Y-166574692D01*
X134397448Y-166735431D01*
X134586456Y-166861722D01*
X134796471Y-166948713D01*
X135019421Y-166993060D01*
X135246739Y-166993060D01*
X135469689Y-166948713D01*
X135679704Y-166861722D01*
X135868712Y-166735431D01*
X136029451Y-166574692D01*
X136155742Y-166385684D01*
X136242733Y-166175669D01*
X136287080Y-165952719D01*
X136287080Y-165725401D01*
X136242733Y-165502451D01*
X136155742Y-165292436D01*
X136029451Y-165103428D01*
X135868712Y-164942689D01*
X135679704Y-164816398D01*
X135469689Y-164729407D01*
X135246739Y-164685060D01*
X135019421Y-164685060D01*
X134796471Y-164729407D01*
X134586456Y-164816398D01*
X134397448Y-164942689D01*
X134236709Y-165103428D01*
X134110418Y-165292436D01*
X134023427Y-165502451D01*
X133991402Y-165663452D01*
X133958081Y-165466946D01*
X133859257Y-165207797D01*
X133821407Y-165136984D01*
X133588254Y-165061675D01*
X132810869Y-165839060D01*
X132375291Y-165839060D01*
X131597906Y-165061675D01*
X131364753Y-165136984D01*
X131251387Y-165390108D01*
X131192034Y-165649759D01*
X131162733Y-165502451D01*
X131075742Y-165292436D01*
X130949451Y-165103428D01*
X130788712Y-164942689D01*
X130640843Y-164843886D01*
X131815695Y-164843886D01*
X132593080Y-165621271D01*
X133370465Y-164843886D01*
X133295156Y-164610733D01*
X133042032Y-164497367D01*
X132771654Y-164435562D01*
X132494414Y-164427691D01*
X132220966Y-164474059D01*
X131961817Y-164572883D01*
X131891004Y-164610733D01*
X131815695Y-164843886D01*
X130640843Y-164843886D01*
X130599704Y-164816398D01*
X130389689Y-164729407D01*
X130166739Y-164685060D01*
X129939421Y-164685060D01*
X129716471Y-164729407D01*
X129506456Y-164816398D01*
X129317448Y-164942689D01*
X129156709Y-165103428D01*
X129030418Y-165292436D01*
X128943427Y-165502451D01*
X128899080Y-165725401D01*
X128667080Y-165725401D01*
X128622733Y-165502451D01*
X128535742Y-165292436D01*
X128409451Y-165103428D01*
X128248712Y-164942689D01*
X128117080Y-164854735D01*
X128117080Y-162470619D01*
X139950509Y-162470619D01*
X139950509Y-162906599D01*
X140035565Y-163334202D01*
X140202407Y-163736995D01*
X140444625Y-164099500D01*
X140752909Y-164407784D01*
X141115414Y-164650002D01*
X141518207Y-164816844D01*
X141945810Y-164901900D01*
X142381790Y-164901900D01*
X142809393Y-164816844D01*
X143212186Y-164650002D01*
X143574691Y-164407784D01*
X143882975Y-164099500D01*
X144125193Y-163736995D01*
X144292035Y-163334202D01*
X144377091Y-162906599D01*
X144377091Y-162470619D01*
X144292035Y-162043016D01*
X144125193Y-161640223D01*
X143882975Y-161277718D01*
X143574691Y-160969434D01*
X143212186Y-160727216D01*
X142809393Y-160560374D01*
X142381790Y-160475318D01*
X141945810Y-160475318D01*
X141518207Y-160560374D01*
X141115414Y-160727216D01*
X140752909Y-160969434D01*
X140444625Y-161277718D01*
X140202407Y-161640223D01*
X140035565Y-162043016D01*
X139950509Y-162470619D01*
X128117080Y-162470619D01*
X128117080Y-154342746D01*
X128120002Y-154313079D01*
X128108340Y-154194675D01*
X128082006Y-154107863D01*
X128073803Y-154080821D01*
X128017717Y-153975892D01*
X127942239Y-153883921D01*
X127919192Y-153865007D01*
X127570073Y-153515888D01*
X141406000Y-153515888D01*
X141406000Y-153684112D01*
X141438819Y-153849103D01*
X141503195Y-154004521D01*
X141596655Y-154144393D01*
X141715607Y-154263345D01*
X141855479Y-154356805D01*
X142010897Y-154421181D01*
X142175888Y-154454000D01*
X142344112Y-154454000D01*
X142509103Y-154421181D01*
X142664521Y-154356805D01*
X142804393Y-154263345D01*
X142923345Y-154144393D01*
X143016805Y-154004521D01*
X143081181Y-153849103D01*
X143114000Y-153684112D01*
X143114000Y-153515888D01*
X143081181Y-153350897D01*
X143016805Y-153195479D01*
X142923345Y-153055607D01*
X142804393Y-152936655D01*
X142664521Y-152843195D01*
X142509103Y-152778819D01*
X142344112Y-152746000D01*
X142175888Y-152746000D01*
X142010897Y-152778819D01*
X141855479Y-152843195D01*
X141715607Y-152936655D01*
X141596655Y-153055607D01*
X141503195Y-153195479D01*
X141438819Y-153350897D01*
X141406000Y-153515888D01*
X127570073Y-153515888D01*
X124545450Y-150491265D01*
X142096000Y-150491265D01*
X142096000Y-150708735D01*
X142138426Y-150922025D01*
X142221648Y-151122940D01*
X142342467Y-151303759D01*
X142496241Y-151457533D01*
X142677060Y-151578352D01*
X142877975Y-151661574D01*
X143091265Y-151704000D01*
X143308735Y-151704000D01*
X143522025Y-151661574D01*
X143722940Y-151578352D01*
X143903759Y-151457533D01*
X144057533Y-151303759D01*
X144178352Y-151122940D01*
X144261574Y-150922025D01*
X144304000Y-150708735D01*
X144304000Y-150491265D01*
X145096000Y-150491265D01*
X145096000Y-150708735D01*
X145138426Y-150922025D01*
X145221648Y-151122940D01*
X145342467Y-151303759D01*
X145496241Y-151457533D01*
X145677060Y-151578352D01*
X145877975Y-151661574D01*
X146091265Y-151704000D01*
X146308735Y-151704000D01*
X146522025Y-151661574D01*
X146722940Y-151578352D01*
X146903759Y-151457533D01*
X147057533Y-151303759D01*
X147178352Y-151122940D01*
X147261574Y-150922025D01*
X147304000Y-150708735D01*
X147304000Y-150491265D01*
X147261574Y-150277975D01*
X147178352Y-150077060D01*
X147057533Y-149896241D01*
X146903759Y-149742467D01*
X146722940Y-149621648D01*
X146522025Y-149538426D01*
X146308735Y-149496000D01*
X146091265Y-149496000D01*
X145877975Y-149538426D01*
X145677060Y-149621648D01*
X145496241Y-149742467D01*
X145342467Y-149896241D01*
X145221648Y-150077060D01*
X145138426Y-150277975D01*
X145096000Y-150491265D01*
X144304000Y-150491265D01*
X144261574Y-150277975D01*
X144178352Y-150077060D01*
X144057533Y-149896241D01*
X143903759Y-149742467D01*
X143722940Y-149621648D01*
X143522025Y-149538426D01*
X143308735Y-149496000D01*
X143091265Y-149496000D01*
X142877975Y-149538426D01*
X142677060Y-149621648D01*
X142496241Y-149742467D01*
X142342467Y-149896241D01*
X142221648Y-150077060D01*
X142138426Y-150277975D01*
X142096000Y-150491265D01*
X124545450Y-150491265D01*
X123947563Y-149893379D01*
X123925024Y-149780066D01*
X123868186Y-149642847D01*
X123804000Y-149546786D01*
X123804000Y-147491265D01*
X142096000Y-147491265D01*
X142096000Y-147708735D01*
X142138426Y-147922025D01*
X142221648Y-148122940D01*
X142342467Y-148303759D01*
X142496241Y-148457533D01*
X142677060Y-148578352D01*
X142877975Y-148661574D01*
X143091265Y-148704000D01*
X143308735Y-148704000D01*
X143522025Y-148661574D01*
X143722940Y-148578352D01*
X143903759Y-148457533D01*
X144057533Y-148303759D01*
X144178352Y-148122940D01*
X144261574Y-147922025D01*
X144304000Y-147708735D01*
X144304000Y-147491265D01*
X145096000Y-147491265D01*
X145096000Y-147708735D01*
X145138426Y-147922025D01*
X145221648Y-148122940D01*
X145342467Y-148303759D01*
X145496241Y-148457533D01*
X145677060Y-148578352D01*
X145877975Y-148661574D01*
X146091265Y-148704000D01*
X146308735Y-148704000D01*
X146522025Y-148661574D01*
X146722940Y-148578352D01*
X146903759Y-148457533D01*
X147057533Y-148303759D01*
X147178352Y-148122940D01*
X147261574Y-147922025D01*
X147304000Y-147708735D01*
X147304000Y-147491265D01*
X147261574Y-147277975D01*
X147178352Y-147077060D01*
X147057533Y-146896241D01*
X146903759Y-146742467D01*
X146722940Y-146621648D01*
X146522025Y-146538426D01*
X146308735Y-146496000D01*
X146091265Y-146496000D01*
X145877975Y-146538426D01*
X145677060Y-146621648D01*
X145496241Y-146742467D01*
X145342467Y-146896241D01*
X145221648Y-147077060D01*
X145138426Y-147277975D01*
X145096000Y-147491265D01*
X144304000Y-147491265D01*
X144261574Y-147277975D01*
X144178352Y-147077060D01*
X144057533Y-146896241D01*
X143903759Y-146742467D01*
X143722940Y-146621648D01*
X143522025Y-146538426D01*
X143308735Y-146496000D01*
X143091265Y-146496000D01*
X142877975Y-146538426D01*
X142677060Y-146621648D01*
X142496241Y-146742467D01*
X142342467Y-146896241D01*
X142221648Y-147077060D01*
X142138426Y-147277975D01*
X142096000Y-147491265D01*
X123804000Y-147491265D01*
X123804000Y-144491265D01*
X142096000Y-144491265D01*
X142096000Y-144708735D01*
X142138426Y-144922025D01*
X142221648Y-145122940D01*
X142342467Y-145303759D01*
X142496241Y-145457533D01*
X142677060Y-145578352D01*
X142877975Y-145661574D01*
X143091265Y-145704000D01*
X143308735Y-145704000D01*
X143522025Y-145661574D01*
X143722940Y-145578352D01*
X143903759Y-145457533D01*
X144057533Y-145303759D01*
X144178352Y-145122940D01*
X144261574Y-144922025D01*
X144304000Y-144708735D01*
X144304000Y-144491265D01*
X144261574Y-144277975D01*
X144187855Y-144100000D01*
X145094288Y-144100000D01*
X145094288Y-145100000D01*
X145105927Y-145218169D01*
X145140395Y-145331796D01*
X145196369Y-145436516D01*
X145271697Y-145528303D01*
X145363484Y-145603631D01*
X145468204Y-145659605D01*
X145581831Y-145694073D01*
X145700000Y-145705712D01*
X146700000Y-145705712D01*
X146818169Y-145694073D01*
X146931796Y-145659605D01*
X147036516Y-145603631D01*
X147128303Y-145528303D01*
X147203631Y-145436516D01*
X147259605Y-145331796D01*
X147294073Y-145218169D01*
X147305712Y-145100000D01*
X147305712Y-144100000D01*
X147294073Y-143981831D01*
X147259605Y-143868204D01*
X147203631Y-143763484D01*
X147128303Y-143671697D01*
X147036516Y-143596369D01*
X146931796Y-143540395D01*
X146818169Y-143505927D01*
X146700000Y-143494288D01*
X145700000Y-143494288D01*
X145581831Y-143505927D01*
X145468204Y-143540395D01*
X145363484Y-143596369D01*
X145271697Y-143671697D01*
X145196369Y-143763484D01*
X145140395Y-143868204D01*
X145105927Y-143981831D01*
X145094288Y-144100000D01*
X144187855Y-144100000D01*
X144178352Y-144077060D01*
X144057533Y-143896241D01*
X143903759Y-143742467D01*
X143722940Y-143621648D01*
X143522025Y-143538426D01*
X143308735Y-143496000D01*
X143091265Y-143496000D01*
X142877975Y-143538426D01*
X142677060Y-143621648D01*
X142496241Y-143742467D01*
X142342467Y-143896241D01*
X142221648Y-144077060D01*
X142138426Y-144277975D01*
X142096000Y-144491265D01*
X123804000Y-144491265D01*
X123804000Y-141515888D01*
X141406000Y-141515888D01*
X141406000Y-141684112D01*
X141438819Y-141849103D01*
X141503195Y-142004521D01*
X141596655Y-142144393D01*
X141715607Y-142263345D01*
X141855479Y-142356805D01*
X142010897Y-142421181D01*
X142175888Y-142454000D01*
X142344112Y-142454000D01*
X142509103Y-142421181D01*
X142664521Y-142356805D01*
X142804393Y-142263345D01*
X142923345Y-142144393D01*
X143016805Y-142004521D01*
X143081181Y-141849103D01*
X143114000Y-141684112D01*
X143114000Y-141515888D01*
X143081181Y-141350897D01*
X143016805Y-141195479D01*
X142923345Y-141055607D01*
X142804393Y-140936655D01*
X142664521Y-140843195D01*
X142509103Y-140778819D01*
X142344112Y-140746000D01*
X142175888Y-140746000D01*
X142010897Y-140778819D01*
X141855479Y-140843195D01*
X141715607Y-140936655D01*
X141596655Y-141055607D01*
X141503195Y-141195479D01*
X141438819Y-141350897D01*
X141406000Y-141515888D01*
X123804000Y-141515888D01*
X123804000Y-140604000D01*
X124346786Y-140604000D01*
X124442847Y-140668186D01*
X124580066Y-140725024D01*
X124725738Y-140754000D01*
X124874262Y-140754000D01*
X125019934Y-140725024D01*
X125157153Y-140668186D01*
X125253214Y-140604000D01*
X137555035Y-140604000D01*
X137584702Y-140606922D01*
X137614369Y-140604000D01*
X137703107Y-140595260D01*
X137816961Y-140560723D01*
X137921890Y-140504637D01*
X138013861Y-140429159D01*
X138032780Y-140406106D01*
X142094611Y-136344276D01*
X142117658Y-136325362D01*
X142193136Y-136233391D01*
X142196812Y-136226515D01*
X142202868Y-136232571D01*
X142391876Y-136358862D01*
X142601891Y-136445853D01*
X142824841Y-136490200D01*
X143052159Y-136490200D01*
X143275109Y-136445853D01*
X143485124Y-136358862D01*
X143674132Y-136232571D01*
X143834871Y-136071832D01*
X143961162Y-135882824D01*
X144048153Y-135672809D01*
X144092500Y-135449859D01*
X144092500Y-135222541D01*
X144048153Y-134999591D01*
X143961162Y-134789576D01*
X143834871Y-134600568D01*
X143674132Y-134439829D01*
X143485124Y-134313538D01*
X143275109Y-134226547D01*
X143052159Y-134182200D01*
X142824841Y-134182200D01*
X142601891Y-134226547D01*
X142391876Y-134313538D01*
X142292499Y-134379940D01*
X142292499Y-133752460D01*
X142391876Y-133818862D01*
X142601891Y-133905853D01*
X142824841Y-133950200D01*
X143052159Y-133950200D01*
X143275109Y-133905853D01*
X143485124Y-133818862D01*
X143674132Y-133692571D01*
X143834871Y-133531832D01*
X143961162Y-133342824D01*
X144048153Y-133132809D01*
X144092500Y-132909859D01*
X144092500Y-132682541D01*
X144324500Y-132682541D01*
X144324500Y-132909859D01*
X144368847Y-133132809D01*
X144455838Y-133342824D01*
X144582129Y-133531832D01*
X144742868Y-133692571D01*
X144931876Y-133818862D01*
X145141891Y-133905853D01*
X145364841Y-133950200D01*
X145592159Y-133950200D01*
X145815109Y-133905853D01*
X146025124Y-133818862D01*
X146214132Y-133692571D01*
X146374871Y-133531832D01*
X146501162Y-133342824D01*
X146588153Y-133132809D01*
X146632500Y-132909859D01*
X146632500Y-132682541D01*
X146588153Y-132459591D01*
X146501162Y-132249576D01*
X146374871Y-132060568D01*
X146214132Y-131899829D01*
X146025124Y-131773538D01*
X145815109Y-131686547D01*
X145592159Y-131642200D01*
X145364841Y-131642200D01*
X145141891Y-131686547D01*
X144931876Y-131773538D01*
X144742868Y-131899829D01*
X144582129Y-132060568D01*
X144455838Y-132249576D01*
X144368847Y-132459591D01*
X144324500Y-132682541D01*
X144092500Y-132682541D01*
X144048153Y-132459591D01*
X143961162Y-132249576D01*
X143834871Y-132060568D01*
X143674132Y-131899829D01*
X143485124Y-131773538D01*
X143275109Y-131686547D01*
X143052159Y-131642200D01*
X142824841Y-131642200D01*
X142601891Y-131686547D01*
X142391876Y-131773538D01*
X142292499Y-131839940D01*
X142292499Y-130318165D01*
X142295421Y-130288498D01*
X142283759Y-130170094D01*
X142273194Y-130135265D01*
X142249222Y-130056240D01*
X142193136Y-129951311D01*
X142117658Y-129859340D01*
X142094611Y-129840426D01*
X138444783Y-126190598D01*
X155246538Y-126185303D01*
X155221513Y-162372064D01*
G37*
X155221513Y-162372064D02*
X143180601Y-173839600D01*
X142744481Y-173839600D01*
X142851486Y-173807140D01*
X142965101Y-173746412D01*
X143064685Y-173664685D01*
X143085166Y-173639729D01*
X152687329Y-164037566D01*
X152712285Y-164017085D01*
X152794012Y-163917501D01*
X152854740Y-163803886D01*
X152865707Y-163767732D01*
X152892137Y-163680607D01*
X152893284Y-163668957D01*
X152901600Y-163584525D01*
X152901600Y-163584518D01*
X152904763Y-163552400D01*
X152901600Y-163520282D01*
X152901600Y-161353493D01*
X152977538Y-161536824D01*
X153103829Y-161725832D01*
X153264568Y-161886571D01*
X153453576Y-162012862D01*
X153663591Y-162099853D01*
X153886541Y-162144200D01*
X154113859Y-162144200D01*
X154336809Y-162099853D01*
X154546824Y-162012862D01*
X154735832Y-161886571D01*
X154896571Y-161725832D01*
X155022862Y-161536824D01*
X155109853Y-161326809D01*
X155154200Y-161103859D01*
X155154200Y-160876541D01*
X155109853Y-160653591D01*
X155022862Y-160443576D01*
X154896571Y-160254568D01*
X154735832Y-160093829D01*
X154546824Y-159967538D01*
X154336809Y-159880547D01*
X154113859Y-159836200D01*
X153886541Y-159836200D01*
X153663591Y-159880547D01*
X153453576Y-159967538D01*
X153264568Y-160093829D01*
X153103829Y-160254568D01*
X152977538Y-160443576D01*
X152901600Y-160626907D01*
X152901600Y-158813493D01*
X152977538Y-158996824D01*
X153103829Y-159185832D01*
X153264568Y-159346571D01*
X153453576Y-159472862D01*
X153663591Y-159559853D01*
X153886541Y-159604200D01*
X154113859Y-159604200D01*
X154336809Y-159559853D01*
X154546824Y-159472862D01*
X154735832Y-159346571D01*
X154896571Y-159185832D01*
X155022862Y-158996824D01*
X155109853Y-158786809D01*
X155154200Y-158563859D01*
X155154200Y-158336541D01*
X155109853Y-158113591D01*
X155022862Y-157903576D01*
X154896571Y-157714568D01*
X154735832Y-157553829D01*
X154546824Y-157427538D01*
X154336809Y-157340547D01*
X154113859Y-157296200D01*
X153886541Y-157296200D01*
X153663591Y-157340547D01*
X153453576Y-157427538D01*
X153264568Y-157553829D01*
X153103829Y-157714568D01*
X152977538Y-157903576D01*
X152901600Y-158086907D01*
X152901600Y-156902517D01*
X152904436Y-156907823D01*
X152948674Y-156961726D01*
X153002577Y-157005964D01*
X153064075Y-157038835D01*
X153130804Y-157059077D01*
X153200200Y-157065912D01*
X154800200Y-157065912D01*
X154869596Y-157059077D01*
X154936325Y-157038835D01*
X154997823Y-157005964D01*
X155051726Y-156961726D01*
X155095964Y-156907823D01*
X155128835Y-156846325D01*
X155149077Y-156779596D01*
X155155912Y-156710200D01*
X155155912Y-155110200D01*
X155149077Y-155040804D01*
X155128835Y-154974075D01*
X155095964Y-154912577D01*
X155051726Y-154858674D01*
X154997823Y-154814436D01*
X154936325Y-154781565D01*
X154869596Y-154761323D01*
X154800200Y-154754488D01*
X153200200Y-154754488D01*
X153167153Y-154757743D01*
X153439734Y-154485162D01*
X153464685Y-154464685D01*
X153501412Y-154419934D01*
X153546411Y-154365102D01*
X153607140Y-154251486D01*
X153622758Y-154200000D01*
X153644537Y-154128206D01*
X153654000Y-154032125D01*
X153654000Y-154032116D01*
X153657163Y-154000001D01*
X153654000Y-153967886D01*
X153654000Y-144289814D01*
X153657163Y-144257699D01*
X153654000Y-144225584D01*
X153654000Y-144225575D01*
X153644537Y-144129494D01*
X153607140Y-144006214D01*
X153546412Y-143892599D01*
X153464685Y-143793015D01*
X153439736Y-143772540D01*
X146159107Y-136491912D01*
X146278500Y-136491912D01*
X146347896Y-136485077D01*
X146414625Y-136464835D01*
X146476123Y-136431964D01*
X146530026Y-136387726D01*
X146574264Y-136333823D01*
X146607135Y-136272325D01*
X146627377Y-136205596D01*
X146634212Y-136136200D01*
X146634212Y-134536200D01*
X146627377Y-134466804D01*
X146607135Y-134400075D01*
X146574264Y-134338577D01*
X146530026Y-134284674D01*
X146476123Y-134240436D01*
X146414625Y-134207565D01*
X146347896Y-134187323D01*
X146278500Y-134180488D01*
X144678500Y-134180488D01*
X144609104Y-134187323D01*
X144542375Y-134207565D01*
X144480877Y-134240436D01*
X144426974Y-134284674D01*
X144382736Y-134338577D01*
X144349865Y-134400075D01*
X144329623Y-134466804D01*
X144322788Y-134536200D01*
X144322788Y-136136200D01*
X144329623Y-136205596D01*
X144349865Y-136272325D01*
X144382736Y-136333823D01*
X144426974Y-136387726D01*
X144480877Y-136431964D01*
X144542375Y-136464835D01*
X144609104Y-136485077D01*
X144678500Y-136491912D01*
X144824501Y-136491912D01*
X144824501Y-136704073D01*
X144821337Y-136736200D01*
X144833963Y-136864406D01*
X144871360Y-136987685D01*
X144932089Y-137101301D01*
X144969644Y-137147061D01*
X145013816Y-137200885D01*
X145038766Y-137221361D01*
X152346000Y-144528596D01*
X152346000Y-147276633D01*
X152302752Y-147059208D01*
X152162994Y-146721802D01*
X151960096Y-146418144D01*
X151701856Y-146159904D01*
X151398198Y-145957006D01*
X151060792Y-145817248D01*
X150702603Y-145746000D01*
X150337397Y-145746000D01*
X149979208Y-145817248D01*
X149641802Y-145957006D01*
X149338144Y-146159904D01*
X149079904Y-146418144D01*
X148877006Y-146721802D01*
X148737248Y-147059208D01*
X148666000Y-147417397D01*
X148666000Y-147782603D01*
X148737248Y-148140792D01*
X148877006Y-148478198D01*
X149079904Y-148781856D01*
X149338144Y-149040096D01*
X149641802Y-149242994D01*
X149979208Y-149382752D01*
X150337397Y-149454000D01*
X150702603Y-149454000D01*
X151060792Y-149382752D01*
X151398198Y-149242994D01*
X151701856Y-149040096D01*
X151960096Y-148781856D01*
X152162994Y-148478198D01*
X152302752Y-148140792D01*
X152346000Y-147923367D01*
X152346001Y-153729103D01*
X151807871Y-154267234D01*
X151782915Y-154287715D01*
X151701188Y-154387300D01*
X151659825Y-154464685D01*
X151640460Y-154500915D01*
X151608237Y-154607140D01*
X151603063Y-154624195D01*
X151593600Y-154720276D01*
X151593600Y-154720282D01*
X151590437Y-154752400D01*
X151593600Y-154784518D01*
X151593601Y-163281504D01*
X142329105Y-172546000D01*
X126470896Y-172546000D01*
X125647400Y-171722505D01*
X125647400Y-169831498D01*
X125650563Y-169799380D01*
X125647400Y-169767262D01*
X125647400Y-169767255D01*
X125637937Y-169671174D01*
X125627080Y-169635384D01*
X125627080Y-169534772D01*
X125773080Y-169534772D01*
X125842476Y-169527937D01*
X125909205Y-169507695D01*
X125970703Y-169474824D01*
X126024606Y-169430586D01*
X126068844Y-169376683D01*
X126101715Y-169315185D01*
X126121957Y-169248456D01*
X126128792Y-169179060D01*
X126128792Y-167579060D01*
X126121957Y-167509664D01*
X126101715Y-167442935D01*
X126068844Y-167381437D01*
X126024606Y-167327534D01*
X125970703Y-167283296D01*
X125909205Y-167250425D01*
X125842476Y-167230183D01*
X125773080Y-167223348D01*
X125627080Y-167223348D01*
X125627080Y-166789976D01*
X125708712Y-166735431D01*
X125869451Y-166574692D01*
X125995742Y-166385684D01*
X126082733Y-166175669D01*
X126127080Y-165952719D01*
X126127080Y-165725401D01*
X126094511Y-165561666D01*
X126104637Y-165549328D01*
X126160723Y-165444399D01*
X126195260Y-165330545D01*
X126204000Y-165241807D01*
X126206922Y-165212140D01*
X126204000Y-165182473D01*
X126204000Y-154653214D01*
X126268186Y-154557153D01*
X126325024Y-154419934D01*
X126354000Y-154274262D01*
X126354000Y-154125738D01*
X126325024Y-153980066D01*
X126324418Y-153978603D01*
X126909081Y-154563266D01*
X126909080Y-164854735D01*
X126777448Y-164942689D01*
X126616709Y-165103428D01*
X126490418Y-165292436D01*
X126403427Y-165502451D01*
X126359080Y-165725401D01*
X126359080Y-165952719D01*
X126403427Y-166175669D01*
X126490418Y-166385684D01*
X126616709Y-166574692D01*
X126777448Y-166735431D01*
X126859081Y-166789976D01*
X126859080Y-167428144D01*
X126777448Y-167482689D01*
X126616709Y-167643428D01*
X126490418Y-167832436D01*
X126403427Y-168042451D01*
X126359080Y-168265401D01*
X126359080Y-168492719D01*
X126403427Y-168715669D01*
X126490418Y-168925684D01*
X126616709Y-169114692D01*
X126777448Y-169275431D01*
X126966456Y-169401722D01*
X127176471Y-169488713D01*
X127399421Y-169533060D01*
X127626739Y-169533060D01*
X127849689Y-169488713D01*
X128059704Y-169401722D01*
X128248712Y-169275431D01*
X128409451Y-169114692D01*
X128535742Y-168925684D01*
X128622733Y-168715669D01*
X128667080Y-168492719D01*
X128667080Y-168265401D01*
X128899080Y-168265401D01*
X128899080Y-168492719D01*
X128943427Y-168715669D01*
X129030418Y-168925684D01*
X129156709Y-169114692D01*
X129317448Y-169275431D01*
X129506456Y-169401722D01*
X129716471Y-169488713D01*
X129939421Y-169533060D01*
X130166739Y-169533060D01*
X130389689Y-169488713D01*
X130599704Y-169401722D01*
X130640842Y-169374234D01*
X131815695Y-169374234D01*
X131891004Y-169607387D01*
X132144128Y-169720753D01*
X132414506Y-169782558D01*
X132691746Y-169790429D01*
X132965194Y-169744061D01*
X133224343Y-169645237D01*
X133295156Y-169607387D01*
X133370465Y-169374234D01*
X132593080Y-168596849D01*
X131815695Y-169374234D01*
X130640842Y-169374234D01*
X130788712Y-169275431D01*
X130949451Y-169114692D01*
X131075742Y-168925684D01*
X131162733Y-168715669D01*
X131194758Y-168554668D01*
X131228079Y-168751174D01*
X131326903Y-169010323D01*
X131364753Y-169081136D01*
X131597906Y-169156445D01*
X132375291Y-168379060D01*
X132810869Y-168379060D01*
X133588254Y-169156445D01*
X133821407Y-169081136D01*
X133934773Y-168828012D01*
X133994126Y-168568361D01*
X134023427Y-168715669D01*
X134110418Y-168925684D01*
X134236709Y-169114692D01*
X134397448Y-169275431D01*
X134586456Y-169401722D01*
X134796471Y-169488713D01*
X135019421Y-169533060D01*
X135246739Y-169533060D01*
X135469689Y-169488713D01*
X135679704Y-169401722D01*
X135868712Y-169275431D01*
X136029451Y-169114692D01*
X136155742Y-168925684D01*
X136242733Y-168715669D01*
X136287080Y-168492719D01*
X136287080Y-168265401D01*
X136242733Y-168042451D01*
X136155742Y-167832436D01*
X136029451Y-167643428D01*
X135868712Y-167482689D01*
X135679704Y-167356398D01*
X135469689Y-167269407D01*
X135246739Y-167225060D01*
X135019421Y-167225060D01*
X134796471Y-167269407D01*
X134586456Y-167356398D01*
X134397448Y-167482689D01*
X134236709Y-167643428D01*
X134110418Y-167832436D01*
X134023427Y-168042451D01*
X133991402Y-168203452D01*
X133958081Y-168006946D01*
X133859257Y-167747797D01*
X133821407Y-167676984D01*
X133588254Y-167601675D01*
X132810869Y-168379060D01*
X132375291Y-168379060D01*
X131597906Y-167601675D01*
X131364753Y-167676984D01*
X131251387Y-167930108D01*
X131192034Y-168189759D01*
X131162733Y-168042451D01*
X131075742Y-167832436D01*
X130949451Y-167643428D01*
X130788712Y-167482689D01*
X130599704Y-167356398D01*
X130389689Y-167269407D01*
X130166739Y-167225060D01*
X129939421Y-167225060D01*
X129716471Y-167269407D01*
X129506456Y-167356398D01*
X129317448Y-167482689D01*
X129156709Y-167643428D01*
X129030418Y-167832436D01*
X128943427Y-168042451D01*
X128899080Y-168265401D01*
X128667080Y-168265401D01*
X128622733Y-168042451D01*
X128535742Y-167832436D01*
X128409451Y-167643428D01*
X128248712Y-167482689D01*
X128167080Y-167428144D01*
X128167080Y-166789976D01*
X128248712Y-166735431D01*
X128409451Y-166574692D01*
X128535742Y-166385684D01*
X128622733Y-166175669D01*
X128667080Y-165952719D01*
X128667080Y-165725401D01*
X128899080Y-165725401D01*
X128899080Y-165952719D01*
X128943427Y-166175669D01*
X129030418Y-166385684D01*
X129156709Y-166574692D01*
X129317448Y-166735431D01*
X129506456Y-166861722D01*
X129716471Y-166948713D01*
X129939421Y-166993060D01*
X130166739Y-166993060D01*
X130389689Y-166948713D01*
X130599704Y-166861722D01*
X130640842Y-166834234D01*
X131815695Y-166834234D01*
X131891004Y-167067387D01*
X131978437Y-167106545D01*
X131961817Y-167112883D01*
X131891004Y-167150733D01*
X131815695Y-167383886D01*
X132593080Y-168161271D01*
X133370465Y-167383886D01*
X133295156Y-167150733D01*
X133207723Y-167111575D01*
X133224343Y-167105237D01*
X133295156Y-167067387D01*
X133370465Y-166834234D01*
X132593080Y-166056849D01*
X131815695Y-166834234D01*
X130640842Y-166834234D01*
X130788712Y-166735431D01*
X130949451Y-166574692D01*
X131075742Y-166385684D01*
X131162733Y-166175669D01*
X131194758Y-166014668D01*
X131228079Y-166211174D01*
X131326903Y-166470323D01*
X131364753Y-166541136D01*
X131597906Y-166616445D01*
X132375291Y-165839060D01*
X132810869Y-165839060D01*
X133588254Y-166616445D01*
X133821407Y-166541136D01*
X133934773Y-166288012D01*
X133994126Y-166028361D01*
X134023427Y-166175669D01*
X134110418Y-166385684D01*
X134236709Y-166574692D01*
X134397448Y-166735431D01*
X134586456Y-166861722D01*
X134796471Y-166948713D01*
X135019421Y-166993060D01*
X135246739Y-166993060D01*
X135469689Y-166948713D01*
X135679704Y-166861722D01*
X135868712Y-166735431D01*
X136029451Y-166574692D01*
X136155742Y-166385684D01*
X136242733Y-166175669D01*
X136287080Y-165952719D01*
X136287080Y-165725401D01*
X136242733Y-165502451D01*
X136155742Y-165292436D01*
X136029451Y-165103428D01*
X135868712Y-164942689D01*
X135679704Y-164816398D01*
X135469689Y-164729407D01*
X135246739Y-164685060D01*
X135019421Y-164685060D01*
X134796471Y-164729407D01*
X134586456Y-164816398D01*
X134397448Y-164942689D01*
X134236709Y-165103428D01*
X134110418Y-165292436D01*
X134023427Y-165502451D01*
X133991402Y-165663452D01*
X133958081Y-165466946D01*
X133859257Y-165207797D01*
X133821407Y-165136984D01*
X133588254Y-165061675D01*
X132810869Y-165839060D01*
X132375291Y-165839060D01*
X131597906Y-165061675D01*
X131364753Y-165136984D01*
X131251387Y-165390108D01*
X131192034Y-165649759D01*
X131162733Y-165502451D01*
X131075742Y-165292436D01*
X130949451Y-165103428D01*
X130788712Y-164942689D01*
X130640843Y-164843886D01*
X131815695Y-164843886D01*
X132593080Y-165621271D01*
X133370465Y-164843886D01*
X133295156Y-164610733D01*
X133042032Y-164497367D01*
X132771654Y-164435562D01*
X132494414Y-164427691D01*
X132220966Y-164474059D01*
X131961817Y-164572883D01*
X131891004Y-164610733D01*
X131815695Y-164843886D01*
X130640843Y-164843886D01*
X130599704Y-164816398D01*
X130389689Y-164729407D01*
X130166739Y-164685060D01*
X129939421Y-164685060D01*
X129716471Y-164729407D01*
X129506456Y-164816398D01*
X129317448Y-164942689D01*
X129156709Y-165103428D01*
X129030418Y-165292436D01*
X128943427Y-165502451D01*
X128899080Y-165725401D01*
X128667080Y-165725401D01*
X128622733Y-165502451D01*
X128535742Y-165292436D01*
X128409451Y-165103428D01*
X128248712Y-164942689D01*
X128117080Y-164854735D01*
X128117080Y-162470619D01*
X139950509Y-162470619D01*
X139950509Y-162906599D01*
X140035565Y-163334202D01*
X140202407Y-163736995D01*
X140444625Y-164099500D01*
X140752909Y-164407784D01*
X141115414Y-164650002D01*
X141518207Y-164816844D01*
X141945810Y-164901900D01*
X142381790Y-164901900D01*
X142809393Y-164816844D01*
X143212186Y-164650002D01*
X143574691Y-164407784D01*
X143882975Y-164099500D01*
X144125193Y-163736995D01*
X144292035Y-163334202D01*
X144377091Y-162906599D01*
X144377091Y-162470619D01*
X144292035Y-162043016D01*
X144125193Y-161640223D01*
X143882975Y-161277718D01*
X143574691Y-160969434D01*
X143212186Y-160727216D01*
X142809393Y-160560374D01*
X142381790Y-160475318D01*
X141945810Y-160475318D01*
X141518207Y-160560374D01*
X141115414Y-160727216D01*
X140752909Y-160969434D01*
X140444625Y-161277718D01*
X140202407Y-161640223D01*
X140035565Y-162043016D01*
X139950509Y-162470619D01*
X128117080Y-162470619D01*
X128117080Y-154342746D01*
X128120002Y-154313079D01*
X128108340Y-154194675D01*
X128082006Y-154107863D01*
X128073803Y-154080821D01*
X128017717Y-153975892D01*
X127942239Y-153883921D01*
X127919192Y-153865007D01*
X127570073Y-153515888D01*
X141406000Y-153515888D01*
X141406000Y-153684112D01*
X141438819Y-153849103D01*
X141503195Y-154004521D01*
X141596655Y-154144393D01*
X141715607Y-154263345D01*
X141855479Y-154356805D01*
X142010897Y-154421181D01*
X142175888Y-154454000D01*
X142344112Y-154454000D01*
X142509103Y-154421181D01*
X142664521Y-154356805D01*
X142804393Y-154263345D01*
X142923345Y-154144393D01*
X143016805Y-154004521D01*
X143081181Y-153849103D01*
X143114000Y-153684112D01*
X143114000Y-153515888D01*
X143081181Y-153350897D01*
X143016805Y-153195479D01*
X142923345Y-153055607D01*
X142804393Y-152936655D01*
X142664521Y-152843195D01*
X142509103Y-152778819D01*
X142344112Y-152746000D01*
X142175888Y-152746000D01*
X142010897Y-152778819D01*
X141855479Y-152843195D01*
X141715607Y-152936655D01*
X141596655Y-153055607D01*
X141503195Y-153195479D01*
X141438819Y-153350897D01*
X141406000Y-153515888D01*
X127570073Y-153515888D01*
X124545450Y-150491265D01*
X142096000Y-150491265D01*
X142096000Y-150708735D01*
X142138426Y-150922025D01*
X142221648Y-151122940D01*
X142342467Y-151303759D01*
X142496241Y-151457533D01*
X142677060Y-151578352D01*
X142877975Y-151661574D01*
X143091265Y-151704000D01*
X143308735Y-151704000D01*
X143522025Y-151661574D01*
X143722940Y-151578352D01*
X143903759Y-151457533D01*
X144057533Y-151303759D01*
X144178352Y-151122940D01*
X144261574Y-150922025D01*
X144304000Y-150708735D01*
X144304000Y-150491265D01*
X145096000Y-150491265D01*
X145096000Y-150708735D01*
X145138426Y-150922025D01*
X145221648Y-151122940D01*
X145342467Y-151303759D01*
X145496241Y-151457533D01*
X145677060Y-151578352D01*
X145877975Y-151661574D01*
X146091265Y-151704000D01*
X146308735Y-151704000D01*
X146522025Y-151661574D01*
X146722940Y-151578352D01*
X146903759Y-151457533D01*
X147057533Y-151303759D01*
X147178352Y-151122940D01*
X147261574Y-150922025D01*
X147304000Y-150708735D01*
X147304000Y-150491265D01*
X147261574Y-150277975D01*
X147178352Y-150077060D01*
X147057533Y-149896241D01*
X146903759Y-149742467D01*
X146722940Y-149621648D01*
X146522025Y-149538426D01*
X146308735Y-149496000D01*
X146091265Y-149496000D01*
X145877975Y-149538426D01*
X145677060Y-149621648D01*
X145496241Y-149742467D01*
X145342467Y-149896241D01*
X145221648Y-150077060D01*
X145138426Y-150277975D01*
X145096000Y-150491265D01*
X144304000Y-150491265D01*
X144261574Y-150277975D01*
X144178352Y-150077060D01*
X144057533Y-149896241D01*
X143903759Y-149742467D01*
X143722940Y-149621648D01*
X143522025Y-149538426D01*
X143308735Y-149496000D01*
X143091265Y-149496000D01*
X142877975Y-149538426D01*
X142677060Y-149621648D01*
X142496241Y-149742467D01*
X142342467Y-149896241D01*
X142221648Y-150077060D01*
X142138426Y-150277975D01*
X142096000Y-150491265D01*
X124545450Y-150491265D01*
X123947563Y-149893379D01*
X123925024Y-149780066D01*
X123868186Y-149642847D01*
X123804000Y-149546786D01*
X123804000Y-147491265D01*
X142096000Y-147491265D01*
X142096000Y-147708735D01*
X142138426Y-147922025D01*
X142221648Y-148122940D01*
X142342467Y-148303759D01*
X142496241Y-148457533D01*
X142677060Y-148578352D01*
X142877975Y-148661574D01*
X143091265Y-148704000D01*
X143308735Y-148704000D01*
X143522025Y-148661574D01*
X143722940Y-148578352D01*
X143903759Y-148457533D01*
X144057533Y-148303759D01*
X144178352Y-148122940D01*
X144261574Y-147922025D01*
X144304000Y-147708735D01*
X144304000Y-147491265D01*
X145096000Y-147491265D01*
X145096000Y-147708735D01*
X145138426Y-147922025D01*
X145221648Y-148122940D01*
X145342467Y-148303759D01*
X145496241Y-148457533D01*
X145677060Y-148578352D01*
X145877975Y-148661574D01*
X146091265Y-148704000D01*
X146308735Y-148704000D01*
X146522025Y-148661574D01*
X146722940Y-148578352D01*
X146903759Y-148457533D01*
X147057533Y-148303759D01*
X147178352Y-148122940D01*
X147261574Y-147922025D01*
X147304000Y-147708735D01*
X147304000Y-147491265D01*
X147261574Y-147277975D01*
X147178352Y-147077060D01*
X147057533Y-146896241D01*
X146903759Y-146742467D01*
X146722940Y-146621648D01*
X146522025Y-146538426D01*
X146308735Y-146496000D01*
X146091265Y-146496000D01*
X145877975Y-146538426D01*
X145677060Y-146621648D01*
X145496241Y-146742467D01*
X145342467Y-146896241D01*
X145221648Y-147077060D01*
X145138426Y-147277975D01*
X145096000Y-147491265D01*
X144304000Y-147491265D01*
X144261574Y-147277975D01*
X144178352Y-147077060D01*
X144057533Y-146896241D01*
X143903759Y-146742467D01*
X143722940Y-146621648D01*
X143522025Y-146538426D01*
X143308735Y-146496000D01*
X143091265Y-146496000D01*
X142877975Y-146538426D01*
X142677060Y-146621648D01*
X142496241Y-146742467D01*
X142342467Y-146896241D01*
X142221648Y-147077060D01*
X142138426Y-147277975D01*
X142096000Y-147491265D01*
X123804000Y-147491265D01*
X123804000Y-144491265D01*
X142096000Y-144491265D01*
X142096000Y-144708735D01*
X142138426Y-144922025D01*
X142221648Y-145122940D01*
X142342467Y-145303759D01*
X142496241Y-145457533D01*
X142677060Y-145578352D01*
X142877975Y-145661574D01*
X143091265Y-145704000D01*
X143308735Y-145704000D01*
X143522025Y-145661574D01*
X143722940Y-145578352D01*
X143903759Y-145457533D01*
X144057533Y-145303759D01*
X144178352Y-145122940D01*
X144261574Y-144922025D01*
X144304000Y-144708735D01*
X144304000Y-144491265D01*
X144261574Y-144277975D01*
X144187855Y-144100000D01*
X145094288Y-144100000D01*
X145094288Y-145100000D01*
X145105927Y-145218169D01*
X145140395Y-145331796D01*
X145196369Y-145436516D01*
X145271697Y-145528303D01*
X145363484Y-145603631D01*
X145468204Y-145659605D01*
X145581831Y-145694073D01*
X145700000Y-145705712D01*
X146700000Y-145705712D01*
X146818169Y-145694073D01*
X146931796Y-145659605D01*
X147036516Y-145603631D01*
X147128303Y-145528303D01*
X147203631Y-145436516D01*
X147259605Y-145331796D01*
X147294073Y-145218169D01*
X147305712Y-145100000D01*
X147305712Y-144100000D01*
X147294073Y-143981831D01*
X147259605Y-143868204D01*
X147203631Y-143763484D01*
X147128303Y-143671697D01*
X147036516Y-143596369D01*
X146931796Y-143540395D01*
X146818169Y-143505927D01*
X146700000Y-143494288D01*
X145700000Y-143494288D01*
X145581831Y-143505927D01*
X145468204Y-143540395D01*
X145363484Y-143596369D01*
X145271697Y-143671697D01*
X145196369Y-143763484D01*
X145140395Y-143868204D01*
X145105927Y-143981831D01*
X145094288Y-144100000D01*
X144187855Y-144100000D01*
X144178352Y-144077060D01*
X144057533Y-143896241D01*
X143903759Y-143742467D01*
X143722940Y-143621648D01*
X143522025Y-143538426D01*
X143308735Y-143496000D01*
X143091265Y-143496000D01*
X142877975Y-143538426D01*
X142677060Y-143621648D01*
X142496241Y-143742467D01*
X142342467Y-143896241D01*
X142221648Y-144077060D01*
X142138426Y-144277975D01*
X142096000Y-144491265D01*
X123804000Y-144491265D01*
X123804000Y-141515888D01*
X141406000Y-141515888D01*
X141406000Y-141684112D01*
X141438819Y-141849103D01*
X141503195Y-142004521D01*
X141596655Y-142144393D01*
X141715607Y-142263345D01*
X141855479Y-142356805D01*
X142010897Y-142421181D01*
X142175888Y-142454000D01*
X142344112Y-142454000D01*
X142509103Y-142421181D01*
X142664521Y-142356805D01*
X142804393Y-142263345D01*
X142923345Y-142144393D01*
X143016805Y-142004521D01*
X143081181Y-141849103D01*
X143114000Y-141684112D01*
X143114000Y-141515888D01*
X143081181Y-141350897D01*
X143016805Y-141195479D01*
X142923345Y-141055607D01*
X142804393Y-140936655D01*
X142664521Y-140843195D01*
X142509103Y-140778819D01*
X142344112Y-140746000D01*
X142175888Y-140746000D01*
X142010897Y-140778819D01*
X141855479Y-140843195D01*
X141715607Y-140936655D01*
X141596655Y-141055607D01*
X141503195Y-141195479D01*
X141438819Y-141350897D01*
X141406000Y-141515888D01*
X123804000Y-141515888D01*
X123804000Y-140604000D01*
X124346786Y-140604000D01*
X124442847Y-140668186D01*
X124580066Y-140725024D01*
X124725738Y-140754000D01*
X124874262Y-140754000D01*
X125019934Y-140725024D01*
X125157153Y-140668186D01*
X125253214Y-140604000D01*
X137555035Y-140604000D01*
X137584702Y-140606922D01*
X137614369Y-140604000D01*
X137703107Y-140595260D01*
X137816961Y-140560723D01*
X137921890Y-140504637D01*
X138013861Y-140429159D01*
X138032780Y-140406106D01*
X142094611Y-136344276D01*
X142117658Y-136325362D01*
X142193136Y-136233391D01*
X142196812Y-136226515D01*
X142202868Y-136232571D01*
X142391876Y-136358862D01*
X142601891Y-136445853D01*
X142824841Y-136490200D01*
X143052159Y-136490200D01*
X143275109Y-136445853D01*
X143485124Y-136358862D01*
X143674132Y-136232571D01*
X143834871Y-136071832D01*
X143961162Y-135882824D01*
X144048153Y-135672809D01*
X144092500Y-135449859D01*
X144092500Y-135222541D01*
X144048153Y-134999591D01*
X143961162Y-134789576D01*
X143834871Y-134600568D01*
X143674132Y-134439829D01*
X143485124Y-134313538D01*
X143275109Y-134226547D01*
X143052159Y-134182200D01*
X142824841Y-134182200D01*
X142601891Y-134226547D01*
X142391876Y-134313538D01*
X142292499Y-134379940D01*
X142292499Y-133752460D01*
X142391876Y-133818862D01*
X142601891Y-133905853D01*
X142824841Y-133950200D01*
X143052159Y-133950200D01*
X143275109Y-133905853D01*
X143485124Y-133818862D01*
X143674132Y-133692571D01*
X143834871Y-133531832D01*
X143961162Y-133342824D01*
X144048153Y-133132809D01*
X144092500Y-132909859D01*
X144092500Y-132682541D01*
X144324500Y-132682541D01*
X144324500Y-132909859D01*
X144368847Y-133132809D01*
X144455838Y-133342824D01*
X144582129Y-133531832D01*
X144742868Y-133692571D01*
X144931876Y-133818862D01*
X145141891Y-133905853D01*
X145364841Y-133950200D01*
X145592159Y-133950200D01*
X145815109Y-133905853D01*
X146025124Y-133818862D01*
X146214132Y-133692571D01*
X146374871Y-133531832D01*
X146501162Y-133342824D01*
X146588153Y-133132809D01*
X146632500Y-132909859D01*
X146632500Y-132682541D01*
X146588153Y-132459591D01*
X146501162Y-132249576D01*
X146374871Y-132060568D01*
X146214132Y-131899829D01*
X146025124Y-131773538D01*
X145815109Y-131686547D01*
X145592159Y-131642200D01*
X145364841Y-131642200D01*
X145141891Y-131686547D01*
X144931876Y-131773538D01*
X144742868Y-131899829D01*
X144582129Y-132060568D01*
X144455838Y-132249576D01*
X144368847Y-132459591D01*
X144324500Y-132682541D01*
X144092500Y-132682541D01*
X144048153Y-132459591D01*
X143961162Y-132249576D01*
X143834871Y-132060568D01*
X143674132Y-131899829D01*
X143485124Y-131773538D01*
X143275109Y-131686547D01*
X143052159Y-131642200D01*
X142824841Y-131642200D01*
X142601891Y-131686547D01*
X142391876Y-131773538D01*
X142292499Y-131839940D01*
X142292499Y-130318165D01*
X142295421Y-130288498D01*
X142283759Y-130170094D01*
X142273194Y-130135265D01*
X142249222Y-130056240D01*
X142193136Y-129951311D01*
X142117658Y-129859340D01*
X142094611Y-129840426D01*
X138444783Y-126190598D01*
X155246538Y-126185303D01*
X155221513Y-162372064D01*
G36*
X115193893Y-126401923D02*
G01*
X115170841Y-126420841D01*
X115095363Y-126512813D01*
X115039277Y-126617742D01*
X115004740Y-126731595D01*
X115004740Y-126731596D01*
X114993078Y-126850000D01*
X114996000Y-126879667D01*
X114996000Y-126994288D01*
X114750000Y-126994288D01*
X114680604Y-127001123D01*
X114613875Y-127021365D01*
X114552377Y-127054236D01*
X114498474Y-127098474D01*
X114454236Y-127152377D01*
X114421365Y-127213875D01*
X114401123Y-127280604D01*
X114394288Y-127350000D01*
X114394288Y-128856881D01*
X114179910Y-128642502D01*
X114217731Y-128551194D01*
X114264000Y-128318584D01*
X114264000Y-128081416D01*
X114217731Y-127848806D01*
X114126971Y-127629692D01*
X113995208Y-127432495D01*
X113827505Y-127264792D01*
X113630308Y-127133029D01*
X113411194Y-127042269D01*
X113178584Y-126996000D01*
X112941416Y-126996000D01*
X112708806Y-127042269D01*
X112489692Y-127133029D01*
X112292495Y-127264792D01*
X112124792Y-127432495D01*
X111993029Y-127629692D01*
X111902269Y-127848806D01*
X111856000Y-128081416D01*
X111856000Y-128318584D01*
X111902269Y-128551194D01*
X111993029Y-128770308D01*
X112124792Y-128967505D01*
X112292495Y-129135208D01*
X112489692Y-129266971D01*
X112708806Y-129357731D01*
X112941416Y-129404000D01*
X113178584Y-129404000D01*
X113411194Y-129357731D01*
X113502502Y-129319910D01*
X115321000Y-131138408D01*
X115321001Y-133151326D01*
X115243878Y-133127931D01*
X115173504Y-133121000D01*
X115173501Y-133121000D01*
X115149978Y-133118683D01*
X115126455Y-133121000D01*
X110645895Y-133121000D01*
X110616900Y-133092005D01*
X110509785Y-133020433D01*
X110390765Y-132971133D01*
X110264413Y-132946000D01*
X110135587Y-132946000D01*
X110009235Y-132971133D01*
X109890215Y-133020433D01*
X109790038Y-133087369D01*
X110842065Y-132035343D01*
X110860343Y-132020343D01*
X110914788Y-131954000D01*
X110920200Y-131947406D01*
X110951049Y-131889691D01*
X110964679Y-131864192D01*
X110992069Y-131773900D01*
X110999000Y-131703526D01*
X110999000Y-131703522D01*
X111001317Y-131680001D01*
X110999000Y-131656480D01*
X110999000Y-129304792D01*
X111090308Y-129266971D01*
X111287505Y-129135208D01*
X111455208Y-128967505D01*
X111586971Y-128770308D01*
X111677731Y-128551194D01*
X111724000Y-128318584D01*
X111724000Y-128081416D01*
X111677731Y-127848806D01*
X111586971Y-127629692D01*
X111455208Y-127432495D01*
X111287505Y-127264792D01*
X111090308Y-127133029D01*
X110871194Y-127042269D01*
X110638584Y-126996000D01*
X110401416Y-126996000D01*
X110168806Y-127042269D01*
X109949692Y-127133029D01*
X109752495Y-127264792D01*
X109584792Y-127432495D01*
X109453029Y-127629692D01*
X109362269Y-127848806D01*
X109316000Y-128081416D01*
X109316000Y-128318584D01*
X109362269Y-128551194D01*
X109453029Y-128770308D01*
X109584792Y-128967505D01*
X109752495Y-129135208D01*
X109949692Y-129266971D01*
X110041000Y-129304792D01*
X110041001Y-130656465D01*
X110041000Y-130656475D01*
X110041001Y-131481591D01*
X109026594Y-132495999D01*
X108145000Y-132495999D01*
X108302071Y-132338928D01*
X108320343Y-132323933D01*
X108336094Y-132304740D01*
X108380200Y-132250997D01*
X108413189Y-132189278D01*
X108424679Y-132167782D01*
X108452069Y-132077490D01*
X108459000Y-132007116D01*
X108459000Y-132007112D01*
X108461317Y-131983591D01*
X108459000Y-131960070D01*
X108459000Y-129304792D01*
X108550308Y-129266971D01*
X108747505Y-129135208D01*
X108915208Y-128967505D01*
X109046971Y-128770308D01*
X109137731Y-128551194D01*
X109184000Y-128318584D01*
X109184000Y-128081416D01*
X109137731Y-127848806D01*
X109046971Y-127629692D01*
X108915208Y-127432495D01*
X108747505Y-127264792D01*
X108550308Y-127133029D01*
X108331194Y-127042269D01*
X108098584Y-126996000D01*
X107861416Y-126996000D01*
X107628806Y-127042269D01*
X107409692Y-127133029D01*
X107212495Y-127264792D01*
X107044792Y-127432495D01*
X106913029Y-127629692D01*
X106822269Y-127848806D01*
X106776000Y-128081416D01*
X106776000Y-128318584D01*
X106822269Y-128551194D01*
X106913029Y-128770308D01*
X107044792Y-128967505D01*
X107212495Y-129135208D01*
X107409692Y-129266971D01*
X107501001Y-129304792D01*
X107501000Y-131785181D01*
X105777917Y-133508266D01*
X105759639Y-133523266D01*
X105729959Y-133559433D01*
X105699781Y-133596204D01*
X105655303Y-133679417D01*
X105627913Y-133769709D01*
X105618664Y-133863609D01*
X105620982Y-133887142D01*
X105620980Y-137866694D01*
X105583100Y-137892005D01*
X105492005Y-137983100D01*
X105420433Y-138090215D01*
X105371133Y-138209235D01*
X105346000Y-138335587D01*
X105346000Y-138464413D01*
X105371133Y-138590765D01*
X105420433Y-138709785D01*
X105492005Y-138816900D01*
X105583100Y-138907995D01*
X105690215Y-138979567D01*
X105809235Y-139028867D01*
X105935587Y-139054000D01*
X105962229Y-139054000D01*
X105946000Y-139135587D01*
X105946000Y-139264413D01*
X105971133Y-139390765D01*
X105973301Y-139396000D01*
X95240183Y-139396000D01*
X94749434Y-138905251D01*
X94724566Y-138845216D01*
X94652994Y-138738101D01*
X94561899Y-138647006D01*
X94454784Y-138575434D01*
X94394750Y-138550567D01*
X89894183Y-134050000D01*
X93139058Y-134050000D01*
X93150797Y-134169189D01*
X93185563Y-134283797D01*
X93242020Y-134389421D01*
X93317999Y-134482001D01*
X93410579Y-134557980D01*
X93516203Y-134614437D01*
X93630811Y-134649203D01*
X93750000Y-134660942D01*
X94294000Y-134658000D01*
X94446000Y-134506000D01*
X94446000Y-133354000D01*
X93294000Y-133354000D01*
X93142000Y-133506000D01*
X93139058Y-134050000D01*
X89894183Y-134050000D01*
X89804000Y-133959818D01*
X89804000Y-133353214D01*
X89868186Y-133257153D01*
X89925024Y-133119934D01*
X89954000Y-132974262D01*
X89954000Y-132825738D01*
X89925024Y-132680066D01*
X89868186Y-132542847D01*
X89785670Y-132419353D01*
X89716317Y-132350000D01*
X93139058Y-132350000D01*
X93142000Y-132894000D01*
X93294000Y-133046000D01*
X94446000Y-133046000D01*
X94446000Y-131894000D01*
X94754000Y-131894000D01*
X94754000Y-133046000D01*
X94774000Y-133046000D01*
X94774000Y-133354000D01*
X94754000Y-133354000D01*
X94754000Y-134506000D01*
X94906000Y-134658000D01*
X95450000Y-134660942D01*
X95569189Y-134649203D01*
X95683797Y-134614437D01*
X95789421Y-134557980D01*
X95882001Y-134482001D01*
X95957980Y-134389421D01*
X96014437Y-134283797D01*
X96049203Y-134169189D01*
X96060942Y-134050000D01*
X96059249Y-133737041D01*
X96073029Y-133770308D01*
X96204792Y-133967505D01*
X96372495Y-134135208D01*
X96569692Y-134266971D01*
X96788806Y-134357731D01*
X97021416Y-134404000D01*
X97258584Y-134404000D01*
X97491194Y-134357731D01*
X97710308Y-134266971D01*
X97907505Y-134135208D01*
X98075208Y-133967505D01*
X98206971Y-133770308D01*
X98297731Y-133551194D01*
X98344000Y-133318584D01*
X98344000Y-133081416D01*
X98476000Y-133081416D01*
X98476000Y-133318584D01*
X98522269Y-133551194D01*
X98613029Y-133770308D01*
X98744792Y-133967505D01*
X98912495Y-134135208D01*
X99109692Y-134266971D01*
X99328806Y-134357731D01*
X99561416Y-134404000D01*
X99798584Y-134404000D01*
X100031194Y-134357731D01*
X100250308Y-134266971D01*
X100447505Y-134135208D01*
X100615208Y-133967505D01*
X100746971Y-133770308D01*
X100837731Y-133551194D01*
X100884000Y-133318584D01*
X100884000Y-133081416D01*
X100837731Y-132848806D01*
X100746971Y-132629692D01*
X100615208Y-132432495D01*
X100447505Y-132264792D01*
X100250308Y-132133029D01*
X100031194Y-132042269D01*
X99798584Y-131996000D01*
X99561416Y-131996000D01*
X99328806Y-132042269D01*
X99109692Y-132133029D01*
X98912495Y-132264792D01*
X98744792Y-132432495D01*
X98613029Y-132629692D01*
X98522269Y-132848806D01*
X98476000Y-133081416D01*
X98344000Y-133081416D01*
X98297731Y-132848806D01*
X98206971Y-132629692D01*
X98075208Y-132432495D01*
X97907505Y-132264792D01*
X97710308Y-132133029D01*
X97491194Y-132042269D01*
X97258584Y-131996000D01*
X97021416Y-131996000D01*
X96788806Y-132042269D01*
X96569692Y-132133029D01*
X96372495Y-132264792D01*
X96204792Y-132432495D01*
X96073029Y-132629692D01*
X96059249Y-132662959D01*
X96060942Y-132350000D01*
X96049203Y-132230811D01*
X96014437Y-132116203D01*
X95957980Y-132010579D01*
X95882001Y-131917999D01*
X95789421Y-131842020D01*
X95683797Y-131785563D01*
X95569189Y-131750797D01*
X95450000Y-131739058D01*
X94906000Y-131742000D01*
X94754000Y-131894000D01*
X94446000Y-131894000D01*
X94294000Y-131742000D01*
X93750000Y-131739058D01*
X93630811Y-131750797D01*
X93516203Y-131785563D01*
X93410579Y-131842020D01*
X93317999Y-131917999D01*
X93242020Y-132010579D01*
X93185563Y-132116203D01*
X93150797Y-132230811D01*
X93139058Y-132350000D01*
X89716317Y-132350000D01*
X89680647Y-132314330D01*
X89557153Y-132231814D01*
X89419934Y-132174976D01*
X89274262Y-132146000D01*
X89125738Y-132146000D01*
X88980066Y-132174976D01*
X88842847Y-132231814D01*
X88719353Y-132314330D01*
X88614330Y-132419353D01*
X88604000Y-132434813D01*
X88604000Y-131550799D01*
X88628867Y-131490765D01*
X88654000Y-131364413D01*
X88654000Y-131235587D01*
X88628867Y-131109235D01*
X88579567Y-130990215D01*
X88507995Y-130883100D01*
X88416900Y-130792005D01*
X88309785Y-130720433D01*
X88190765Y-130671133D01*
X88064413Y-130646000D01*
X87935587Y-130646000D01*
X87809235Y-130671133D01*
X87690215Y-130720433D01*
X87583100Y-130792005D01*
X87492005Y-130883100D01*
X87420433Y-130990215D01*
X87371133Y-131109235D01*
X87346000Y-131235587D01*
X87346000Y-131364413D01*
X87371133Y-131490765D01*
X87396000Y-131550799D01*
X87396001Y-134770323D01*
X87393078Y-134800000D01*
X87404740Y-134918404D01*
X87439278Y-135032259D01*
X87495152Y-135136791D01*
X87495364Y-135137188D01*
X87570842Y-135229159D01*
X87593889Y-135248073D01*
X93451937Y-141106122D01*
X93470851Y-141129169D01*
X93562822Y-141204647D01*
X93667751Y-141260733D01*
X93764941Y-141290215D01*
X93781605Y-141295270D01*
X93900009Y-141306932D01*
X93929676Y-141304010D01*
X102914719Y-141304010D01*
X102871133Y-141409235D01*
X102846000Y-141535587D01*
X102846000Y-141664413D01*
X102871133Y-141790765D01*
X102920433Y-141909785D01*
X102992005Y-142016900D01*
X103083100Y-142107995D01*
X103190215Y-142179567D01*
X103309235Y-142228867D01*
X103435587Y-142254000D01*
X103476300Y-142254000D01*
X103487687Y-142263345D01*
X103532593Y-142300199D01*
X103615807Y-142344678D01*
X103706098Y-142372067D01*
X103799999Y-142381316D01*
X103823532Y-142378998D01*
X103976454Y-142378998D01*
X103976474Y-142379000D01*
X110754105Y-142379000D01*
X110783100Y-142407995D01*
X110890215Y-142479567D01*
X111009235Y-142528867D01*
X111135587Y-142554000D01*
X111264413Y-142554000D01*
X111390765Y-142528867D01*
X111509785Y-142479567D01*
X111616900Y-142407995D01*
X111707995Y-142316900D01*
X111779567Y-142209785D01*
X111828867Y-142090765D01*
X111854000Y-141964413D01*
X111854000Y-141835587D01*
X111828867Y-141709235D01*
X111779567Y-141590215D01*
X111707995Y-141483100D01*
X111616900Y-141392005D01*
X111509785Y-141320433D01*
X111470137Y-141304010D01*
X120180624Y-141304010D01*
X120661399Y-141784786D01*
X120661400Y-149835722D01*
X120658477Y-149865399D01*
X120670139Y-149983803D01*
X120704677Y-150097658D01*
X120715767Y-150118405D01*
X120760763Y-150202587D01*
X120836241Y-150294558D01*
X120859288Y-150313472D01*
X124852437Y-154306622D01*
X124874976Y-154419934D01*
X124931814Y-154557153D01*
X124996000Y-154653214D01*
X124996001Y-164685060D01*
X124859421Y-164685060D01*
X124636471Y-164729407D01*
X124426456Y-164816398D01*
X124237448Y-164942689D01*
X124076709Y-165103428D01*
X123950418Y-165292436D01*
X123863427Y-165502451D01*
X123819080Y-165725401D01*
X123819080Y-165952719D01*
X123863427Y-166175669D01*
X123950418Y-166385684D01*
X124076709Y-166574692D01*
X124237448Y-166735431D01*
X124319080Y-166789976D01*
X124319081Y-167223348D01*
X124173080Y-167223348D01*
X124103684Y-167230183D01*
X124036955Y-167250425D01*
X123975457Y-167283296D01*
X123921554Y-167327534D01*
X123877316Y-167381437D01*
X123844445Y-167442935D01*
X123824203Y-167509664D01*
X123817368Y-167579060D01*
X123817368Y-169179060D01*
X123824203Y-169248456D01*
X123844445Y-169315185D01*
X123877316Y-169376683D01*
X123921554Y-169430586D01*
X123975457Y-169474824D01*
X124036955Y-169507695D01*
X124103684Y-169527937D01*
X124173080Y-169534772D01*
X124319080Y-169534772D01*
X124319080Y-169746942D01*
X124315917Y-169779060D01*
X124319080Y-169811178D01*
X124319080Y-169811184D01*
X124328543Y-169907265D01*
X124339401Y-169943058D01*
X124339400Y-171961282D01*
X124336237Y-171993400D01*
X124339400Y-172025518D01*
X124339400Y-172025524D01*
X124348863Y-172121605D01*
X124386260Y-172244885D01*
X124446988Y-172358500D01*
X124528715Y-172458085D01*
X124553671Y-172478566D01*
X125714838Y-173639734D01*
X125735315Y-173664685D01*
X125834899Y-173746412D01*
X125948514Y-173807140D01*
X126055519Y-173839600D01*
X87401066Y-173839600D01*
X82424860Y-169080200D01*
X108394488Y-169080200D01*
X108394488Y-170680200D01*
X108401323Y-170749596D01*
X108421565Y-170816325D01*
X108454436Y-170877823D01*
X108498674Y-170931726D01*
X108552577Y-170975964D01*
X108614075Y-171008835D01*
X108680804Y-171029077D01*
X108750200Y-171035912D01*
X110350200Y-171035912D01*
X110419596Y-171029077D01*
X110486325Y-171008835D01*
X110547823Y-170975964D01*
X110601726Y-170931726D01*
X110645964Y-170877823D01*
X110678835Y-170816325D01*
X110699077Y-170749596D01*
X110705912Y-170680200D01*
X110705912Y-169941079D01*
X111377502Y-170641803D01*
X112190433Y-171243044D01*
X113093281Y-171698250D01*
X114060072Y-171994326D01*
X115062994Y-172122756D01*
X116073195Y-172079843D01*
X117061612Y-171866823D01*
X117999812Y-171489823D01*
X118860803Y-170959690D01*
X119619816Y-170291674D01*
X120255017Y-169504993D01*
X120459488Y-169138973D01*
X120459488Y-170680200D01*
X120466323Y-170749596D01*
X120486565Y-170816325D01*
X120519436Y-170877823D01*
X120563674Y-170931726D01*
X120617577Y-170975964D01*
X120679075Y-171008835D01*
X120745804Y-171029077D01*
X120815200Y-171035912D01*
X122415200Y-171035912D01*
X122484596Y-171029077D01*
X122551325Y-171008835D01*
X122612823Y-170975964D01*
X122666726Y-170931726D01*
X122710964Y-170877823D01*
X122743835Y-170816325D01*
X122764077Y-170749596D01*
X122770912Y-170680200D01*
X122770912Y-169080200D01*
X122764077Y-169010804D01*
X122743835Y-168944075D01*
X122710964Y-168882577D01*
X122666726Y-168828674D01*
X122612823Y-168784436D01*
X122551325Y-168751565D01*
X122484596Y-168731323D01*
X122415200Y-168724488D01*
X120815200Y-168724488D01*
X120745804Y-168731323D01*
X120679075Y-168751565D01*
X120674558Y-168753979D01*
X120748131Y-168622278D01*
X121084973Y-167668924D01*
X121255851Y-166672356D01*
X121255851Y-165661244D01*
X121084973Y-164664676D01*
X120748131Y-163711322D01*
X120255017Y-162828607D01*
X119619816Y-162041926D01*
X118860803Y-161373910D01*
X117999812Y-160843777D01*
X117185382Y-160516512D01*
X118700600Y-160516512D01*
X118769996Y-160509677D01*
X118836725Y-160489435D01*
X118898223Y-160456564D01*
X118952126Y-160412326D01*
X118996364Y-160358423D01*
X119029235Y-160296925D01*
X119049477Y-160230196D01*
X119056312Y-160160800D01*
X119056312Y-158560800D01*
X119049477Y-158491404D01*
X119029235Y-158424675D01*
X118996364Y-158363177D01*
X118952126Y-158309274D01*
X118898223Y-158265036D01*
X118836725Y-158232165D01*
X118769996Y-158211923D01*
X118700600Y-158205088D01*
X117100600Y-158205088D01*
X117031204Y-158211923D01*
X116964475Y-158232165D01*
X116902977Y-158265036D01*
X116849074Y-158309274D01*
X116804836Y-158363177D01*
X116771965Y-158424675D01*
X116751723Y-158491404D01*
X116744888Y-158560800D01*
X116744888Y-160160800D01*
X116751723Y-160230196D01*
X116771965Y-160296925D01*
X116804836Y-160358423D01*
X116849074Y-160412326D01*
X116863360Y-160424050D01*
X116502818Y-160346348D01*
X116529235Y-160296925D01*
X116549477Y-160230196D01*
X116556312Y-160160800D01*
X116556312Y-158560800D01*
X116549477Y-158491404D01*
X116529235Y-158424675D01*
X116496364Y-158363177D01*
X116452126Y-158309274D01*
X116398223Y-158265036D01*
X116336725Y-158232165D01*
X116269996Y-158211923D01*
X116200600Y-158205088D01*
X114600600Y-158205088D01*
X114531204Y-158211923D01*
X114464475Y-158232165D01*
X114402977Y-158265036D01*
X114349074Y-158309274D01*
X114304836Y-158363177D01*
X114271965Y-158424675D01*
X114251723Y-158491404D01*
X114244888Y-158560800D01*
X114244888Y-160160800D01*
X114251723Y-160230196D01*
X114271965Y-160296925D01*
X114279576Y-160311165D01*
X114060072Y-160339274D01*
X113895381Y-160389710D01*
X113914126Y-160374326D01*
X113958364Y-160320423D01*
X113991235Y-160258925D01*
X114011477Y-160192196D01*
X114018312Y-160122800D01*
X114018312Y-158598800D01*
X114011477Y-158529404D01*
X113991235Y-158462675D01*
X113958364Y-158401177D01*
X113914126Y-158347274D01*
X113860223Y-158303036D01*
X113798725Y-158270165D01*
X113731996Y-158249923D01*
X113662600Y-158243088D01*
X112138600Y-158243088D01*
X112069204Y-158249923D01*
X112002475Y-158270165D01*
X111940977Y-158303036D01*
X111887074Y-158347274D01*
X111842836Y-158401177D01*
X111809965Y-158462675D01*
X111789723Y-158529404D01*
X111782888Y-158598800D01*
X111782888Y-160122800D01*
X111789723Y-160192196D01*
X111809965Y-160258925D01*
X111842836Y-160320423D01*
X111887074Y-160374326D01*
X111940977Y-160418564D01*
X112002475Y-160451435D01*
X112069204Y-160471677D01*
X112138600Y-160478512D01*
X113605412Y-160478512D01*
X113093281Y-160635350D01*
X112190433Y-161090556D01*
X111377502Y-161691797D01*
X110677874Y-162421775D01*
X110111677Y-163259491D01*
X109695199Y-164180845D01*
X109440421Y-165159331D01*
X109354673Y-166166800D01*
X109440421Y-167174269D01*
X109695199Y-168152755D01*
X109953638Y-168724488D01*
X108750200Y-168724488D01*
X108680804Y-168731323D01*
X108614075Y-168751565D01*
X108552577Y-168784436D01*
X108498674Y-168828674D01*
X108454436Y-168882577D01*
X108421565Y-168944075D01*
X108401323Y-169010804D01*
X108394488Y-169080200D01*
X82424860Y-169080200D01*
X75512509Y-162469010D01*
X86280309Y-162469010D01*
X86280309Y-162904990D01*
X86365365Y-163332593D01*
X86532207Y-163735386D01*
X86774425Y-164097891D01*
X87082709Y-164406175D01*
X87445214Y-164648393D01*
X87848007Y-164815235D01*
X88275610Y-164900291D01*
X88711590Y-164900291D01*
X89139193Y-164815235D01*
X89541986Y-164648393D01*
X89904491Y-164406175D01*
X90212775Y-164097891D01*
X90454993Y-163735386D01*
X90621835Y-163332593D01*
X90706891Y-162904990D01*
X90706891Y-162469010D01*
X90621835Y-162041407D01*
X90454993Y-161638614D01*
X90212775Y-161276109D01*
X89904491Y-160967825D01*
X89541986Y-160725607D01*
X89139193Y-160558765D01*
X88711590Y-160473709D01*
X88275610Y-160473709D01*
X87848007Y-160558765D01*
X87445214Y-160725607D01*
X87082709Y-160967825D01*
X86774425Y-161276109D01*
X86532207Y-161638614D01*
X86365365Y-162041407D01*
X86280309Y-162469010D01*
X75512509Y-162469010D01*
X75385087Y-162347140D01*
X75384254Y-161144350D01*
X75420547Y-161326809D01*
X75507538Y-161536824D01*
X75633829Y-161725832D01*
X75794568Y-161886571D01*
X75983576Y-162012862D01*
X76193591Y-162099853D01*
X76416541Y-162144200D01*
X76643859Y-162144200D01*
X76866809Y-162099853D01*
X77076824Y-162012862D01*
X77265832Y-161886571D01*
X77426571Y-161725832D01*
X77552862Y-161536824D01*
X77639853Y-161326809D01*
X77684200Y-161103859D01*
X77684200Y-160876541D01*
X77639853Y-160653591D01*
X77552862Y-160443576D01*
X77426571Y-160254568D01*
X77265832Y-160093829D01*
X77076824Y-159967538D01*
X76866809Y-159880547D01*
X76643859Y-159836200D01*
X76416541Y-159836200D01*
X76193591Y-159880547D01*
X75983576Y-159967538D01*
X75794568Y-160093829D01*
X75633829Y-160254568D01*
X75507538Y-160443576D01*
X75420547Y-160653591D01*
X75384041Y-160837119D01*
X75382489Y-158595477D01*
X75420547Y-158786809D01*
X75507538Y-158996824D01*
X75633829Y-159185832D01*
X75794568Y-159346571D01*
X75983576Y-159472862D01*
X76193591Y-159559853D01*
X76416541Y-159604200D01*
X76643859Y-159604200D01*
X76866809Y-159559853D01*
X77076824Y-159472862D01*
X77265832Y-159346571D01*
X77426571Y-159185832D01*
X77552862Y-158996824D01*
X77639853Y-158786809D01*
X77684200Y-158563859D01*
X77684200Y-158412200D01*
X78041488Y-158412200D01*
X78041488Y-160012200D01*
X78048323Y-160081596D01*
X78068565Y-160148325D01*
X78101436Y-160209823D01*
X78145674Y-160263726D01*
X78199577Y-160307964D01*
X78261075Y-160340835D01*
X78327804Y-160361077D01*
X78397200Y-160367912D01*
X79997200Y-160367912D01*
X80066596Y-160361077D01*
X80133325Y-160340835D01*
X80194823Y-160307964D01*
X80248726Y-160263726D01*
X80292964Y-160209823D01*
X80325835Y-160148325D01*
X80346077Y-160081596D01*
X80352912Y-160012200D01*
X80352912Y-159098541D01*
X80583200Y-159098541D01*
X80583200Y-159325859D01*
X80627547Y-159548809D01*
X80714538Y-159758824D01*
X80840829Y-159947832D01*
X81001568Y-160108571D01*
X81190576Y-160234862D01*
X81400591Y-160321853D01*
X81623541Y-160366200D01*
X81850859Y-160366200D01*
X82073809Y-160321853D01*
X82283824Y-160234862D01*
X82472832Y-160108571D01*
X82633571Y-159947832D01*
X82759862Y-159758824D01*
X82846853Y-159548809D01*
X82891200Y-159325859D01*
X82891200Y-159098541D01*
X83123200Y-159098541D01*
X83123200Y-159325859D01*
X83167547Y-159548809D01*
X83254538Y-159758824D01*
X83380829Y-159947832D01*
X83541568Y-160108571D01*
X83730576Y-160234862D01*
X83940591Y-160321853D01*
X84163541Y-160366200D01*
X84390859Y-160366200D01*
X84613809Y-160321853D01*
X84823824Y-160234862D01*
X85012832Y-160108571D01*
X85173571Y-159947832D01*
X85299862Y-159758824D01*
X85386853Y-159548809D01*
X85431200Y-159325859D01*
X85431200Y-159098541D01*
X85386853Y-158875591D01*
X85299862Y-158665576D01*
X85255244Y-158598800D01*
X109282888Y-158598800D01*
X109282888Y-160122800D01*
X109289723Y-160192196D01*
X109309965Y-160258925D01*
X109342836Y-160320423D01*
X109387074Y-160374326D01*
X109440977Y-160418564D01*
X109502475Y-160451435D01*
X109569204Y-160471677D01*
X109638600Y-160478512D01*
X111162600Y-160478512D01*
X111231996Y-160471677D01*
X111298725Y-160451435D01*
X111360223Y-160418564D01*
X111414126Y-160374326D01*
X111458364Y-160320423D01*
X111491235Y-160258925D01*
X111511477Y-160192196D01*
X111518312Y-160122800D01*
X111518312Y-158598800D01*
X111511477Y-158529404D01*
X111491235Y-158462675D01*
X111458364Y-158401177D01*
X111414126Y-158347274D01*
X111360223Y-158303036D01*
X111298725Y-158270165D01*
X111231996Y-158249923D01*
X111162600Y-158243088D01*
X109638600Y-158243088D01*
X109569204Y-158249923D01*
X109502475Y-158270165D01*
X109440977Y-158303036D01*
X109387074Y-158347274D01*
X109342836Y-158401177D01*
X109309965Y-158462675D01*
X109289723Y-158529404D01*
X109282888Y-158598800D01*
X85255244Y-158598800D01*
X85173571Y-158476568D01*
X85012832Y-158315829D01*
X84823824Y-158189538D01*
X84613809Y-158102547D01*
X84390859Y-158058200D01*
X84163541Y-158058200D01*
X83940591Y-158102547D01*
X83730576Y-158189538D01*
X83541568Y-158315829D01*
X83380829Y-158476568D01*
X83254538Y-158665576D01*
X83167547Y-158875591D01*
X83123200Y-159098541D01*
X82891200Y-159098541D01*
X82846853Y-158875591D01*
X82759862Y-158665576D01*
X82633571Y-158476568D01*
X82472832Y-158315829D01*
X82283824Y-158189538D01*
X82073809Y-158102547D01*
X81850859Y-158058200D01*
X81623541Y-158058200D01*
X81400591Y-158102547D01*
X81190576Y-158189538D01*
X81001568Y-158315829D01*
X80840829Y-158476568D01*
X80714538Y-158665576D01*
X80627547Y-158875591D01*
X80583200Y-159098541D01*
X80352912Y-159098541D01*
X80352912Y-158412200D01*
X80346077Y-158342804D01*
X80325835Y-158276075D01*
X80292964Y-158214577D01*
X80248726Y-158160674D01*
X80194823Y-158116436D01*
X80133325Y-158083565D01*
X80066596Y-158063323D01*
X79997200Y-158056488D01*
X78397200Y-158056488D01*
X78327804Y-158063323D01*
X78261075Y-158083565D01*
X78199577Y-158116436D01*
X78145674Y-158160674D01*
X78101436Y-158214577D01*
X78068565Y-158276075D01*
X78048323Y-158342804D01*
X78041488Y-158412200D01*
X77684200Y-158412200D01*
X77684200Y-158336541D01*
X77639853Y-158113591D01*
X77552862Y-157903576D01*
X77426571Y-157714568D01*
X77265832Y-157553829D01*
X77076824Y-157427538D01*
X76866809Y-157340547D01*
X76643859Y-157296200D01*
X76416541Y-157296200D01*
X76193591Y-157340547D01*
X75983576Y-157427538D01*
X75794568Y-157553829D01*
X75633829Y-157714568D01*
X75507538Y-157903576D01*
X75420547Y-158113591D01*
X75382289Y-158305932D01*
X75381231Y-156778661D01*
X75381323Y-156779596D01*
X75401565Y-156846325D01*
X75434436Y-156907823D01*
X75478674Y-156961726D01*
X75532577Y-157005964D01*
X75594075Y-157038835D01*
X75660804Y-157059077D01*
X75730200Y-157065912D01*
X77330200Y-157065912D01*
X77399596Y-157059077D01*
X77466325Y-157038835D01*
X77527823Y-157005964D01*
X77581726Y-156961726D01*
X77625964Y-156907823D01*
X77658835Y-156846325D01*
X77679077Y-156779596D01*
X77685912Y-156710200D01*
X77685912Y-155110200D01*
X77679077Y-155040804D01*
X77658835Y-154974075D01*
X77625964Y-154912577D01*
X77581726Y-154858674D01*
X77527823Y-154814436D01*
X77466325Y-154781565D01*
X77399596Y-154761323D01*
X77330200Y-154754488D01*
X75730200Y-154754488D01*
X75660804Y-154761323D01*
X75594075Y-154781565D01*
X75532577Y-154814436D01*
X75478674Y-154858674D01*
X75434436Y-154912577D01*
X75401565Y-154974075D01*
X75381323Y-155040804D01*
X75380036Y-155053866D01*
X75378959Y-153497729D01*
X75420547Y-153706809D01*
X75507538Y-153916824D01*
X75633829Y-154105832D01*
X75794568Y-154266571D01*
X75983576Y-154392862D01*
X76193591Y-154479853D01*
X76416541Y-154524200D01*
X76643859Y-154524200D01*
X76866809Y-154479853D01*
X77076824Y-154392862D01*
X77265832Y-154266571D01*
X77426571Y-154105832D01*
X77552862Y-153916824D01*
X77639853Y-153706809D01*
X77684200Y-153483859D01*
X77684200Y-153256541D01*
X77639853Y-153033591D01*
X77552862Y-152823576D01*
X77426571Y-152634568D01*
X77265832Y-152473829D01*
X77076824Y-152347538D01*
X76866809Y-152260547D01*
X76643859Y-152216200D01*
X76416541Y-152216200D01*
X76193591Y-152260547D01*
X75983576Y-152347538D01*
X75794568Y-152473829D01*
X75633829Y-152634568D01*
X75507538Y-152823576D01*
X75420547Y-153033591D01*
X75378783Y-153243556D01*
X75377194Y-150948855D01*
X75420547Y-151166809D01*
X75507538Y-151376824D01*
X75633829Y-151565832D01*
X75794568Y-151726571D01*
X75983576Y-151852862D01*
X76193591Y-151939853D01*
X76416541Y-151984200D01*
X76643859Y-151984200D01*
X76866809Y-151939853D01*
X77076824Y-151852862D01*
X77265832Y-151726571D01*
X77426571Y-151565832D01*
X77552862Y-151376824D01*
X77639853Y-151166809D01*
X77684200Y-150943859D01*
X77684200Y-150716541D01*
X77639853Y-150493591D01*
X77552862Y-150283576D01*
X77426571Y-150094568D01*
X77265832Y-149933829D01*
X77076824Y-149807538D01*
X76866809Y-149720547D01*
X76643859Y-149676200D01*
X76416541Y-149676200D01*
X76193591Y-149720547D01*
X75983576Y-149807538D01*
X75794568Y-149933829D01*
X75633829Y-150094568D01*
X75507538Y-150283576D01*
X75420547Y-150493591D01*
X75377030Y-150712368D01*
X75375917Y-149104706D01*
X75381323Y-149159596D01*
X75401565Y-149226325D01*
X75434436Y-149287823D01*
X75478674Y-149341726D01*
X75532577Y-149385964D01*
X75594075Y-149418835D01*
X75660804Y-149439077D01*
X75730200Y-149445912D01*
X77330200Y-149445912D01*
X77399596Y-149439077D01*
X77466325Y-149418835D01*
X77527823Y-149385964D01*
X77581726Y-149341726D01*
X77625964Y-149287823D01*
X77658835Y-149226325D01*
X77679077Y-149159596D01*
X77680888Y-149141200D01*
X78041488Y-149141200D01*
X78041488Y-150741200D01*
X78048323Y-150810596D01*
X78068565Y-150877325D01*
X78101436Y-150938823D01*
X78145674Y-150992726D01*
X78199577Y-151036964D01*
X78261075Y-151069835D01*
X78327804Y-151090077D01*
X78397200Y-151096912D01*
X79997200Y-151096912D01*
X80066596Y-151090077D01*
X80133325Y-151069835D01*
X80194823Y-151036964D01*
X80248726Y-150992726D01*
X80292964Y-150938823D01*
X80325835Y-150877325D01*
X80346077Y-150810596D01*
X80352912Y-150741200D01*
X80352912Y-149827541D01*
X80583200Y-149827541D01*
X80583200Y-150054859D01*
X80627547Y-150277809D01*
X80714538Y-150487824D01*
X80840829Y-150676832D01*
X81001568Y-150837571D01*
X81190576Y-150963862D01*
X81400591Y-151050853D01*
X81623541Y-151095200D01*
X81850859Y-151095200D01*
X82073809Y-151050853D01*
X82283824Y-150963862D01*
X82472832Y-150837571D01*
X82633571Y-150676832D01*
X82759862Y-150487824D01*
X82846853Y-150277809D01*
X82891200Y-150054859D01*
X82891200Y-149827541D01*
X83123200Y-149827541D01*
X83123200Y-150054859D01*
X83167547Y-150277809D01*
X83254538Y-150487824D01*
X83380829Y-150676832D01*
X83541568Y-150837571D01*
X83730576Y-150963862D01*
X83940591Y-151050853D01*
X84163541Y-151095200D01*
X84390859Y-151095200D01*
X84613809Y-151050853D01*
X84823824Y-150963862D01*
X85012832Y-150837571D01*
X85173571Y-150676832D01*
X85299862Y-150487824D01*
X85386853Y-150277809D01*
X85431200Y-150054859D01*
X85431200Y-149827541D01*
X85386853Y-149604591D01*
X85299862Y-149394576D01*
X85173571Y-149205568D01*
X85012832Y-149044829D01*
X84823824Y-148918538D01*
X84613809Y-148831547D01*
X84390859Y-148787200D01*
X84163541Y-148787200D01*
X83940591Y-148831547D01*
X83730576Y-148918538D01*
X83541568Y-149044829D01*
X83380829Y-149205568D01*
X83254538Y-149394576D01*
X83167547Y-149604591D01*
X83123200Y-149827541D01*
X82891200Y-149827541D01*
X82846853Y-149604591D01*
X82759862Y-149394576D01*
X82633571Y-149205568D01*
X82472832Y-149044829D01*
X82283824Y-148918538D01*
X82073809Y-148831547D01*
X81850859Y-148787200D01*
X81623541Y-148787200D01*
X81400591Y-148831547D01*
X81190576Y-148918538D01*
X81001568Y-149044829D01*
X80840829Y-149205568D01*
X80714538Y-149394576D01*
X80627547Y-149604591D01*
X80583200Y-149827541D01*
X80352912Y-149827541D01*
X80352912Y-149141200D01*
X80346077Y-149071804D01*
X80325835Y-149005075D01*
X80292964Y-148943577D01*
X80248726Y-148889674D01*
X80194823Y-148845436D01*
X80133325Y-148812565D01*
X80066596Y-148792323D01*
X79997200Y-148785488D01*
X78397200Y-148785488D01*
X78327804Y-148792323D01*
X78261075Y-148812565D01*
X78199577Y-148845436D01*
X78145674Y-148889674D01*
X78101436Y-148943577D01*
X78068565Y-149005075D01*
X78048323Y-149071804D01*
X78041488Y-149141200D01*
X77680888Y-149141200D01*
X77685912Y-149090200D01*
X77685912Y-147490200D01*
X77679077Y-147420804D01*
X77658835Y-147354075D01*
X77625964Y-147292577D01*
X77581726Y-147238674D01*
X77527823Y-147194436D01*
X77466325Y-147161565D01*
X77399596Y-147141323D01*
X77330200Y-147134488D01*
X75730200Y-147134488D01*
X75660804Y-147141323D01*
X75594075Y-147161565D01*
X75532577Y-147194436D01*
X75478674Y-147238674D01*
X75434436Y-147292577D01*
X75401565Y-147354075D01*
X75381323Y-147420804D01*
X75374796Y-147487068D01*
X75372943Y-144810400D01*
X105646952Y-144810400D01*
X105661510Y-144958210D01*
X105704625Y-145100339D01*
X105774639Y-145231327D01*
X105857465Y-145332250D01*
X105806977Y-145359236D01*
X105753074Y-145403474D01*
X105708836Y-145457377D01*
X105675965Y-145518875D01*
X105655723Y-145585604D01*
X105648888Y-145655000D01*
X105648888Y-146455000D01*
X105655723Y-146524396D01*
X105675965Y-146591125D01*
X105708836Y-146652623D01*
X105753074Y-146706526D01*
X105806977Y-146750764D01*
X105868475Y-146783635D01*
X105935204Y-146803877D01*
X106004600Y-146810712D01*
X107304600Y-146810712D01*
X107373996Y-146803877D01*
X107440725Y-146783635D01*
X107502223Y-146750764D01*
X107556126Y-146706526D01*
X107600364Y-146652623D01*
X107633235Y-146591125D01*
X107653477Y-146524396D01*
X107660312Y-146455000D01*
X107660312Y-145655000D01*
X107653477Y-145585604D01*
X107633235Y-145518875D01*
X107600364Y-145457377D01*
X107556126Y-145403474D01*
X107502223Y-145359236D01*
X107451735Y-145332250D01*
X107534561Y-145231327D01*
X107604575Y-145100339D01*
X107647690Y-144958210D01*
X107662248Y-144810400D01*
X107647690Y-144662590D01*
X107604575Y-144520461D01*
X107534561Y-144389473D01*
X107440338Y-144274662D01*
X107325527Y-144180439D01*
X107194539Y-144110425D01*
X107052410Y-144067310D01*
X106941639Y-144056400D01*
X106367561Y-144056400D01*
X106256790Y-144067310D01*
X106114661Y-144110425D01*
X105983673Y-144180439D01*
X105868862Y-144274662D01*
X105774639Y-144389473D01*
X105704625Y-144520461D01*
X105661510Y-144662590D01*
X105646952Y-144810400D01*
X75372943Y-144810400D01*
X75370074Y-140667990D01*
X84306600Y-140667990D01*
X84306600Y-140875610D01*
X84347104Y-141079241D01*
X84426557Y-141271056D01*
X84541905Y-141443686D01*
X84688714Y-141590495D01*
X84861344Y-141705843D01*
X85053159Y-141785296D01*
X85256790Y-141825800D01*
X85464410Y-141825800D01*
X85668041Y-141785296D01*
X85859856Y-141705843D01*
X86032486Y-141590495D01*
X86179295Y-141443686D01*
X86294643Y-141271056D01*
X86374096Y-141079241D01*
X86414600Y-140875610D01*
X86414600Y-140667990D01*
X90306600Y-140667990D01*
X90306600Y-140875610D01*
X90347104Y-141079241D01*
X90426557Y-141271056D01*
X90541905Y-141443686D01*
X90688714Y-141590495D01*
X90861344Y-141705843D01*
X91053159Y-141785296D01*
X91256790Y-141825800D01*
X91464410Y-141825800D01*
X91668041Y-141785296D01*
X91859856Y-141705843D01*
X92032486Y-141590495D01*
X92179295Y-141443686D01*
X92294643Y-141271056D01*
X92374096Y-141079241D01*
X92414600Y-140875610D01*
X92414600Y-140667990D01*
X92374096Y-140464359D01*
X92294643Y-140272544D01*
X92179295Y-140099914D01*
X92032486Y-139953105D01*
X91859856Y-139837757D01*
X91668041Y-139758304D01*
X91464410Y-139717800D01*
X91256790Y-139717800D01*
X91053159Y-139758304D01*
X90861344Y-139837757D01*
X90688714Y-139953105D01*
X90541905Y-140099914D01*
X90426557Y-140272544D01*
X90347104Y-140464359D01*
X90306600Y-140667990D01*
X86414600Y-140667990D01*
X86374096Y-140464359D01*
X86294643Y-140272544D01*
X86179295Y-140099914D01*
X86032486Y-139953105D01*
X85859856Y-139837757D01*
X85668041Y-139758304D01*
X85464410Y-139717800D01*
X85256790Y-139717800D01*
X85053159Y-139758304D01*
X84861344Y-139837757D01*
X84688714Y-139953105D01*
X84541905Y-140099914D01*
X84426557Y-140272544D01*
X84347104Y-140464359D01*
X84306600Y-140667990D01*
X75370074Y-140667990D01*
X75362640Y-129932351D01*
X98290700Y-129932351D01*
X98290700Y-130099649D01*
X98323339Y-130263732D01*
X98387360Y-130418294D01*
X98480306Y-130557397D01*
X98598603Y-130675694D01*
X98737706Y-130768640D01*
X98892268Y-130832661D01*
X99056351Y-130865300D01*
X99223649Y-130865300D01*
X99387732Y-130832661D01*
X99542294Y-130768640D01*
X99681397Y-130675694D01*
X99799694Y-130557397D01*
X99892640Y-130418294D01*
X99956661Y-130263732D01*
X99989300Y-130099649D01*
X99989300Y-129932351D01*
X99956661Y-129768268D01*
X99892640Y-129613706D01*
X99799694Y-129474603D01*
X99681397Y-129356306D01*
X99542294Y-129263360D01*
X99387732Y-129199339D01*
X99223649Y-129166700D01*
X99056351Y-129166700D01*
X98892268Y-129199339D01*
X98737706Y-129263360D01*
X98598603Y-129356306D01*
X98480306Y-129474603D01*
X98387360Y-129613706D01*
X98323339Y-129768268D01*
X98290700Y-129932351D01*
X75362640Y-129932351D01*
X75361936Y-128916351D01*
X93210700Y-128916351D01*
X93210700Y-129083649D01*
X93243339Y-129247732D01*
X93307360Y-129402294D01*
X93400306Y-129541397D01*
X93518603Y-129659694D01*
X93657706Y-129752640D01*
X93812268Y-129816661D01*
X93976351Y-129849300D01*
X94143649Y-129849300D01*
X94307732Y-129816661D01*
X94462294Y-129752640D01*
X94601397Y-129659694D01*
X94719694Y-129541397D01*
X94812640Y-129402294D01*
X94876661Y-129247732D01*
X94909300Y-129083649D01*
X94909300Y-128916351D01*
X94876661Y-128752268D01*
X94812640Y-128597706D01*
X94719694Y-128458603D01*
X94601397Y-128340306D01*
X94462294Y-128247360D01*
X94307732Y-128183339D01*
X94143649Y-128150700D01*
X93976351Y-128150700D01*
X93812268Y-128183339D01*
X93657706Y-128247360D01*
X93518603Y-128340306D01*
X93400306Y-128458603D01*
X93307360Y-128597706D01*
X93243339Y-128752268D01*
X93210700Y-128916351D01*
X75361936Y-128916351D01*
X75361233Y-127900351D01*
X98290700Y-127900351D01*
X98290700Y-128067649D01*
X98323339Y-128231732D01*
X98387360Y-128386294D01*
X98480306Y-128525397D01*
X98598603Y-128643694D01*
X98737706Y-128736640D01*
X98892268Y-128800661D01*
X99056351Y-128833300D01*
X99223649Y-128833300D01*
X99387732Y-128800661D01*
X99542294Y-128736640D01*
X99681397Y-128643694D01*
X99746180Y-128578911D01*
X101492091Y-128578911D01*
X101593065Y-128846300D01*
X101744264Y-129088852D01*
X101939878Y-129297246D01*
X102172389Y-129463473D01*
X102432861Y-129581146D01*
X102521090Y-129607903D01*
X102746000Y-129496889D01*
X102746000Y-128354000D01*
X101602150Y-128354000D01*
X101492091Y-128578911D01*
X99746180Y-128578911D01*
X99799694Y-128525397D01*
X99892640Y-128386294D01*
X99956661Y-128231732D01*
X99989300Y-128067649D01*
X99989300Y-127900351D01*
X99973534Y-127821089D01*
X101492091Y-127821089D01*
X101602150Y-128046000D01*
X102746000Y-128046000D01*
X102746000Y-126903111D01*
X103054000Y-126903111D01*
X103054000Y-128046000D01*
X103074000Y-128046000D01*
X103074000Y-128354000D01*
X103054000Y-128354000D01*
X103054000Y-129496889D01*
X103278910Y-129607903D01*
X103367139Y-129581146D01*
X103627611Y-129463473D01*
X103860122Y-129297246D01*
X104055736Y-129088852D01*
X104206935Y-128846300D01*
X104301156Y-128596792D01*
X104373029Y-128770308D01*
X104504792Y-128967505D01*
X104672495Y-129135208D01*
X104869692Y-129266971D01*
X105088806Y-129357731D01*
X105321416Y-129404000D01*
X105558584Y-129404000D01*
X105791194Y-129357731D01*
X106010308Y-129266971D01*
X106207505Y-129135208D01*
X106375208Y-128967505D01*
X106506971Y-128770308D01*
X106597731Y-128551194D01*
X106644000Y-128318584D01*
X106644000Y-128081416D01*
X106597731Y-127848806D01*
X106506971Y-127629692D01*
X106375208Y-127432495D01*
X106207505Y-127264792D01*
X106010308Y-127133029D01*
X105791194Y-127042269D01*
X105558584Y-126996000D01*
X105321416Y-126996000D01*
X105088806Y-127042269D01*
X104869692Y-127133029D01*
X104672495Y-127264792D01*
X104504792Y-127432495D01*
X104373029Y-127629692D01*
X104301156Y-127803208D01*
X104206935Y-127553700D01*
X104055736Y-127311148D01*
X103860122Y-127102754D01*
X103627611Y-126936527D01*
X103367139Y-126818854D01*
X103278910Y-126792097D01*
X103054000Y-126903111D01*
X102746000Y-126903111D01*
X102521090Y-126792097D01*
X102432861Y-126818854D01*
X102172389Y-126936527D01*
X101939878Y-127102754D01*
X101744264Y-127311148D01*
X101593065Y-127553700D01*
X101492091Y-127821089D01*
X99973534Y-127821089D01*
X99956661Y-127736268D01*
X99892640Y-127581706D01*
X99799694Y-127442603D01*
X99681397Y-127324306D01*
X99542294Y-127231360D01*
X99387732Y-127167339D01*
X99223649Y-127134700D01*
X99056351Y-127134700D01*
X98892268Y-127167339D01*
X98737706Y-127231360D01*
X98598603Y-127324306D01*
X98480306Y-127442603D01*
X98387360Y-127581706D01*
X98323339Y-127736268D01*
X98290700Y-127900351D01*
X75361233Y-127900351D01*
X75360062Y-126210480D01*
X115397954Y-126197862D01*
X115193893Y-126401923D01*
G37*
X115193893Y-126401923D02*
X115170841Y-126420841D01*
X115095363Y-126512813D01*
X115039277Y-126617742D01*
X115004740Y-126731595D01*
X115004740Y-126731596D01*
X114993078Y-126850000D01*
X114996000Y-126879667D01*
X114996000Y-126994288D01*
X114750000Y-126994288D01*
X114680604Y-127001123D01*
X114613875Y-127021365D01*
X114552377Y-127054236D01*
X114498474Y-127098474D01*
X114454236Y-127152377D01*
X114421365Y-127213875D01*
X114401123Y-127280604D01*
X114394288Y-127350000D01*
X114394288Y-128856881D01*
X114179910Y-128642502D01*
X114217731Y-128551194D01*
X114264000Y-128318584D01*
X114264000Y-128081416D01*
X114217731Y-127848806D01*
X114126971Y-127629692D01*
X113995208Y-127432495D01*
X113827505Y-127264792D01*
X113630308Y-127133029D01*
X113411194Y-127042269D01*
X113178584Y-126996000D01*
X112941416Y-126996000D01*
X112708806Y-127042269D01*
X112489692Y-127133029D01*
X112292495Y-127264792D01*
X112124792Y-127432495D01*
X111993029Y-127629692D01*
X111902269Y-127848806D01*
X111856000Y-128081416D01*
X111856000Y-128318584D01*
X111902269Y-128551194D01*
X111993029Y-128770308D01*
X112124792Y-128967505D01*
X112292495Y-129135208D01*
X112489692Y-129266971D01*
X112708806Y-129357731D01*
X112941416Y-129404000D01*
X113178584Y-129404000D01*
X113411194Y-129357731D01*
X113502502Y-129319910D01*
X115321000Y-131138408D01*
X115321001Y-133151326D01*
X115243878Y-133127931D01*
X115173504Y-133121000D01*
X115173501Y-133121000D01*
X115149978Y-133118683D01*
X115126455Y-133121000D01*
X110645895Y-133121000D01*
X110616900Y-133092005D01*
X110509785Y-133020433D01*
X110390765Y-132971133D01*
X110264413Y-132946000D01*
X110135587Y-132946000D01*
X110009235Y-132971133D01*
X109890215Y-133020433D01*
X109790038Y-133087369D01*
X110842065Y-132035343D01*
X110860343Y-132020343D01*
X110914788Y-131954000D01*
X110920200Y-131947406D01*
X110951049Y-131889691D01*
X110964679Y-131864192D01*
X110992069Y-131773900D01*
X110999000Y-131703526D01*
X110999000Y-131703522D01*
X111001317Y-131680001D01*
X110999000Y-131656480D01*
X110999000Y-129304792D01*
X111090308Y-129266971D01*
X111287505Y-129135208D01*
X111455208Y-128967505D01*
X111586971Y-128770308D01*
X111677731Y-128551194D01*
X111724000Y-128318584D01*
X111724000Y-128081416D01*
X111677731Y-127848806D01*
X111586971Y-127629692D01*
X111455208Y-127432495D01*
X111287505Y-127264792D01*
X111090308Y-127133029D01*
X110871194Y-127042269D01*
X110638584Y-126996000D01*
X110401416Y-126996000D01*
X110168806Y-127042269D01*
X109949692Y-127133029D01*
X109752495Y-127264792D01*
X109584792Y-127432495D01*
X109453029Y-127629692D01*
X109362269Y-127848806D01*
X109316000Y-128081416D01*
X109316000Y-128318584D01*
X109362269Y-128551194D01*
X109453029Y-128770308D01*
X109584792Y-128967505D01*
X109752495Y-129135208D01*
X109949692Y-129266971D01*
X110041000Y-129304792D01*
X110041001Y-130656465D01*
X110041000Y-130656475D01*
X110041001Y-131481591D01*
X109026594Y-132495999D01*
X108145000Y-132495999D01*
X108302071Y-132338928D01*
X108320343Y-132323933D01*
X108336094Y-132304740D01*
X108380200Y-132250997D01*
X108413189Y-132189278D01*
X108424679Y-132167782D01*
X108452069Y-132077490D01*
X108459000Y-132007116D01*
X108459000Y-132007112D01*
X108461317Y-131983591D01*
X108459000Y-131960070D01*
X108459000Y-129304792D01*
X108550308Y-129266971D01*
X108747505Y-129135208D01*
X108915208Y-128967505D01*
X109046971Y-128770308D01*
X109137731Y-128551194D01*
X109184000Y-128318584D01*
X109184000Y-128081416D01*
X109137731Y-127848806D01*
X109046971Y-127629692D01*
X108915208Y-127432495D01*
X108747505Y-127264792D01*
X108550308Y-127133029D01*
X108331194Y-127042269D01*
X108098584Y-126996000D01*
X107861416Y-126996000D01*
X107628806Y-127042269D01*
X107409692Y-127133029D01*
X107212495Y-127264792D01*
X107044792Y-127432495D01*
X106913029Y-127629692D01*
X106822269Y-127848806D01*
X106776000Y-128081416D01*
X106776000Y-128318584D01*
X106822269Y-128551194D01*
X106913029Y-128770308D01*
X107044792Y-128967505D01*
X107212495Y-129135208D01*
X107409692Y-129266971D01*
X107501001Y-129304792D01*
X107501000Y-131785181D01*
X105777917Y-133508266D01*
X105759639Y-133523266D01*
X105729959Y-133559433D01*
X105699781Y-133596204D01*
X105655303Y-133679417D01*
X105627913Y-133769709D01*
X105618664Y-133863609D01*
X105620982Y-133887142D01*
X105620980Y-137866694D01*
X105583100Y-137892005D01*
X105492005Y-137983100D01*
X105420433Y-138090215D01*
X105371133Y-138209235D01*
X105346000Y-138335587D01*
X105346000Y-138464413D01*
X105371133Y-138590765D01*
X105420433Y-138709785D01*
X105492005Y-138816900D01*
X105583100Y-138907995D01*
X105690215Y-138979567D01*
X105809235Y-139028867D01*
X105935587Y-139054000D01*
X105962229Y-139054000D01*
X105946000Y-139135587D01*
X105946000Y-139264413D01*
X105971133Y-139390765D01*
X105973301Y-139396000D01*
X95240183Y-139396000D01*
X94749434Y-138905251D01*
X94724566Y-138845216D01*
X94652994Y-138738101D01*
X94561899Y-138647006D01*
X94454784Y-138575434D01*
X94394750Y-138550567D01*
X89894183Y-134050000D01*
X93139058Y-134050000D01*
X93150797Y-134169189D01*
X93185563Y-134283797D01*
X93242020Y-134389421D01*
X93317999Y-134482001D01*
X93410579Y-134557980D01*
X93516203Y-134614437D01*
X93630811Y-134649203D01*
X93750000Y-134660942D01*
X94294000Y-134658000D01*
X94446000Y-134506000D01*
X94446000Y-133354000D01*
X93294000Y-133354000D01*
X93142000Y-133506000D01*
X93139058Y-134050000D01*
X89894183Y-134050000D01*
X89804000Y-133959818D01*
X89804000Y-133353214D01*
X89868186Y-133257153D01*
X89925024Y-133119934D01*
X89954000Y-132974262D01*
X89954000Y-132825738D01*
X89925024Y-132680066D01*
X89868186Y-132542847D01*
X89785670Y-132419353D01*
X89716317Y-132350000D01*
X93139058Y-132350000D01*
X93142000Y-132894000D01*
X93294000Y-133046000D01*
X94446000Y-133046000D01*
X94446000Y-131894000D01*
X94754000Y-131894000D01*
X94754000Y-133046000D01*
X94774000Y-133046000D01*
X94774000Y-133354000D01*
X94754000Y-133354000D01*
X94754000Y-134506000D01*
X94906000Y-134658000D01*
X95450000Y-134660942D01*
X95569189Y-134649203D01*
X95683797Y-134614437D01*
X95789421Y-134557980D01*
X95882001Y-134482001D01*
X95957980Y-134389421D01*
X96014437Y-134283797D01*
X96049203Y-134169189D01*
X96060942Y-134050000D01*
X96059249Y-133737041D01*
X96073029Y-133770308D01*
X96204792Y-133967505D01*
X96372495Y-134135208D01*
X96569692Y-134266971D01*
X96788806Y-134357731D01*
X97021416Y-134404000D01*
X97258584Y-134404000D01*
X97491194Y-134357731D01*
X97710308Y-134266971D01*
X97907505Y-134135208D01*
X98075208Y-133967505D01*
X98206971Y-133770308D01*
X98297731Y-133551194D01*
X98344000Y-133318584D01*
X98344000Y-133081416D01*
X98476000Y-133081416D01*
X98476000Y-133318584D01*
X98522269Y-133551194D01*
X98613029Y-133770308D01*
X98744792Y-133967505D01*
X98912495Y-134135208D01*
X99109692Y-134266971D01*
X99328806Y-134357731D01*
X99561416Y-134404000D01*
X99798584Y-134404000D01*
X100031194Y-134357731D01*
X100250308Y-134266971D01*
X100447505Y-134135208D01*
X100615208Y-133967505D01*
X100746971Y-133770308D01*
X100837731Y-133551194D01*
X100884000Y-133318584D01*
X100884000Y-133081416D01*
X100837731Y-132848806D01*
X100746971Y-132629692D01*
X100615208Y-132432495D01*
X100447505Y-132264792D01*
X100250308Y-132133029D01*
X100031194Y-132042269D01*
X99798584Y-131996000D01*
X99561416Y-131996000D01*
X99328806Y-132042269D01*
X99109692Y-132133029D01*
X98912495Y-132264792D01*
X98744792Y-132432495D01*
X98613029Y-132629692D01*
X98522269Y-132848806D01*
X98476000Y-133081416D01*
X98344000Y-133081416D01*
X98297731Y-132848806D01*
X98206971Y-132629692D01*
X98075208Y-132432495D01*
X97907505Y-132264792D01*
X97710308Y-132133029D01*
X97491194Y-132042269D01*
X97258584Y-131996000D01*
X97021416Y-131996000D01*
X96788806Y-132042269D01*
X96569692Y-132133029D01*
X96372495Y-132264792D01*
X96204792Y-132432495D01*
X96073029Y-132629692D01*
X96059249Y-132662959D01*
X96060942Y-132350000D01*
X96049203Y-132230811D01*
X96014437Y-132116203D01*
X95957980Y-132010579D01*
X95882001Y-131917999D01*
X95789421Y-131842020D01*
X95683797Y-131785563D01*
X95569189Y-131750797D01*
X95450000Y-131739058D01*
X94906000Y-131742000D01*
X94754000Y-131894000D01*
X94446000Y-131894000D01*
X94294000Y-131742000D01*
X93750000Y-131739058D01*
X93630811Y-131750797D01*
X93516203Y-131785563D01*
X93410579Y-131842020D01*
X93317999Y-131917999D01*
X93242020Y-132010579D01*
X93185563Y-132116203D01*
X93150797Y-132230811D01*
X93139058Y-132350000D01*
X89716317Y-132350000D01*
X89680647Y-132314330D01*
X89557153Y-132231814D01*
X89419934Y-132174976D01*
X89274262Y-132146000D01*
X89125738Y-132146000D01*
X88980066Y-132174976D01*
X88842847Y-132231814D01*
X88719353Y-132314330D01*
X88614330Y-132419353D01*
X88604000Y-132434813D01*
X88604000Y-131550799D01*
X88628867Y-131490765D01*
X88654000Y-131364413D01*
X88654000Y-131235587D01*
X88628867Y-131109235D01*
X88579567Y-130990215D01*
X88507995Y-130883100D01*
X88416900Y-130792005D01*
X88309785Y-130720433D01*
X88190765Y-130671133D01*
X88064413Y-130646000D01*
X87935587Y-130646000D01*
X87809235Y-130671133D01*
X87690215Y-130720433D01*
X87583100Y-130792005D01*
X87492005Y-130883100D01*
X87420433Y-130990215D01*
X87371133Y-131109235D01*
X87346000Y-131235587D01*
X87346000Y-131364413D01*
X87371133Y-131490765D01*
X87396000Y-131550799D01*
X87396001Y-134770323D01*
X87393078Y-134800000D01*
X87404740Y-134918404D01*
X87439278Y-135032259D01*
X87495152Y-135136791D01*
X87495364Y-135137188D01*
X87570842Y-135229159D01*
X87593889Y-135248073D01*
X93451937Y-141106122D01*
X93470851Y-141129169D01*
X93562822Y-141204647D01*
X93667751Y-141260733D01*
X93764941Y-141290215D01*
X93781605Y-141295270D01*
X93900009Y-141306932D01*
X93929676Y-141304010D01*
X102914719Y-141304010D01*
X102871133Y-141409235D01*
X102846000Y-141535587D01*
X102846000Y-141664413D01*
X102871133Y-141790765D01*
X102920433Y-141909785D01*
X102992005Y-142016900D01*
X103083100Y-142107995D01*
X103190215Y-142179567D01*
X103309235Y-142228867D01*
X103435587Y-142254000D01*
X103476300Y-142254000D01*
X103487687Y-142263345D01*
X103532593Y-142300199D01*
X103615807Y-142344678D01*
X103706098Y-142372067D01*
X103799999Y-142381316D01*
X103823532Y-142378998D01*
X103976454Y-142378998D01*
X103976474Y-142379000D01*
X110754105Y-142379000D01*
X110783100Y-142407995D01*
X110890215Y-142479567D01*
X111009235Y-142528867D01*
X111135587Y-142554000D01*
X111264413Y-142554000D01*
X111390765Y-142528867D01*
X111509785Y-142479567D01*
X111616900Y-142407995D01*
X111707995Y-142316900D01*
X111779567Y-142209785D01*
X111828867Y-142090765D01*
X111854000Y-141964413D01*
X111854000Y-141835587D01*
X111828867Y-141709235D01*
X111779567Y-141590215D01*
X111707995Y-141483100D01*
X111616900Y-141392005D01*
X111509785Y-141320433D01*
X111470137Y-141304010D01*
X120180624Y-141304010D01*
X120661399Y-141784786D01*
X120661400Y-149835722D01*
X120658477Y-149865399D01*
X120670139Y-149983803D01*
X120704677Y-150097658D01*
X120715767Y-150118405D01*
X120760763Y-150202587D01*
X120836241Y-150294558D01*
X120859288Y-150313472D01*
X124852437Y-154306622D01*
X124874976Y-154419934D01*
X124931814Y-154557153D01*
X124996000Y-154653214D01*
X124996001Y-164685060D01*
X124859421Y-164685060D01*
X124636471Y-164729407D01*
X124426456Y-164816398D01*
X124237448Y-164942689D01*
X124076709Y-165103428D01*
X123950418Y-165292436D01*
X123863427Y-165502451D01*
X123819080Y-165725401D01*
X123819080Y-165952719D01*
X123863427Y-166175669D01*
X123950418Y-166385684D01*
X124076709Y-166574692D01*
X124237448Y-166735431D01*
X124319080Y-166789976D01*
X124319081Y-167223348D01*
X124173080Y-167223348D01*
X124103684Y-167230183D01*
X124036955Y-167250425D01*
X123975457Y-167283296D01*
X123921554Y-167327534D01*
X123877316Y-167381437D01*
X123844445Y-167442935D01*
X123824203Y-167509664D01*
X123817368Y-167579060D01*
X123817368Y-169179060D01*
X123824203Y-169248456D01*
X123844445Y-169315185D01*
X123877316Y-169376683D01*
X123921554Y-169430586D01*
X123975457Y-169474824D01*
X124036955Y-169507695D01*
X124103684Y-169527937D01*
X124173080Y-169534772D01*
X124319080Y-169534772D01*
X124319080Y-169746942D01*
X124315917Y-169779060D01*
X124319080Y-169811178D01*
X124319080Y-169811184D01*
X124328543Y-169907265D01*
X124339401Y-169943058D01*
X124339400Y-171961282D01*
X124336237Y-171993400D01*
X124339400Y-172025518D01*
X124339400Y-172025524D01*
X124348863Y-172121605D01*
X124386260Y-172244885D01*
X124446988Y-172358500D01*
X124528715Y-172458085D01*
X124553671Y-172478566D01*
X125714838Y-173639734D01*
X125735315Y-173664685D01*
X125834899Y-173746412D01*
X125948514Y-173807140D01*
X126055519Y-173839600D01*
X87401066Y-173839600D01*
X82424860Y-169080200D01*
X108394488Y-169080200D01*
X108394488Y-170680200D01*
X108401323Y-170749596D01*
X108421565Y-170816325D01*
X108454436Y-170877823D01*
X108498674Y-170931726D01*
X108552577Y-170975964D01*
X108614075Y-171008835D01*
X108680804Y-171029077D01*
X108750200Y-171035912D01*
X110350200Y-171035912D01*
X110419596Y-171029077D01*
X110486325Y-171008835D01*
X110547823Y-170975964D01*
X110601726Y-170931726D01*
X110645964Y-170877823D01*
X110678835Y-170816325D01*
X110699077Y-170749596D01*
X110705912Y-170680200D01*
X110705912Y-169941079D01*
X111377502Y-170641803D01*
X112190433Y-171243044D01*
X113093281Y-171698250D01*
X114060072Y-171994326D01*
X115062994Y-172122756D01*
X116073195Y-172079843D01*
X117061612Y-171866823D01*
X117999812Y-171489823D01*
X118860803Y-170959690D01*
X119619816Y-170291674D01*
X120255017Y-169504993D01*
X120459488Y-169138973D01*
X120459488Y-170680200D01*
X120466323Y-170749596D01*
X120486565Y-170816325D01*
X120519436Y-170877823D01*
X120563674Y-170931726D01*
X120617577Y-170975964D01*
X120679075Y-171008835D01*
X120745804Y-171029077D01*
X120815200Y-171035912D01*
X122415200Y-171035912D01*
X122484596Y-171029077D01*
X122551325Y-171008835D01*
X122612823Y-170975964D01*
X122666726Y-170931726D01*
X122710964Y-170877823D01*
X122743835Y-170816325D01*
X122764077Y-170749596D01*
X122770912Y-170680200D01*
X122770912Y-169080200D01*
X122764077Y-169010804D01*
X122743835Y-168944075D01*
X122710964Y-168882577D01*
X122666726Y-168828674D01*
X122612823Y-168784436D01*
X122551325Y-168751565D01*
X122484596Y-168731323D01*
X122415200Y-168724488D01*
X120815200Y-168724488D01*
X120745804Y-168731323D01*
X120679075Y-168751565D01*
X120674558Y-168753979D01*
X120748131Y-168622278D01*
X121084973Y-167668924D01*
X121255851Y-166672356D01*
X121255851Y-165661244D01*
X121084973Y-164664676D01*
X120748131Y-163711322D01*
X120255017Y-162828607D01*
X119619816Y-162041926D01*
X118860803Y-161373910D01*
X117999812Y-160843777D01*
X117185382Y-160516512D01*
X118700600Y-160516512D01*
X118769996Y-160509677D01*
X118836725Y-160489435D01*
X118898223Y-160456564D01*
X118952126Y-160412326D01*
X118996364Y-160358423D01*
X119029235Y-160296925D01*
X119049477Y-160230196D01*
X119056312Y-160160800D01*
X119056312Y-158560800D01*
X119049477Y-158491404D01*
X119029235Y-158424675D01*
X118996364Y-158363177D01*
X118952126Y-158309274D01*
X118898223Y-158265036D01*
X118836725Y-158232165D01*
X118769996Y-158211923D01*
X118700600Y-158205088D01*
X117100600Y-158205088D01*
X117031204Y-158211923D01*
X116964475Y-158232165D01*
X116902977Y-158265036D01*
X116849074Y-158309274D01*
X116804836Y-158363177D01*
X116771965Y-158424675D01*
X116751723Y-158491404D01*
X116744888Y-158560800D01*
X116744888Y-160160800D01*
X116751723Y-160230196D01*
X116771965Y-160296925D01*
X116804836Y-160358423D01*
X116849074Y-160412326D01*
X116863360Y-160424050D01*
X116502818Y-160346348D01*
X116529235Y-160296925D01*
X116549477Y-160230196D01*
X116556312Y-160160800D01*
X116556312Y-158560800D01*
X116549477Y-158491404D01*
X116529235Y-158424675D01*
X116496364Y-158363177D01*
X116452126Y-158309274D01*
X116398223Y-158265036D01*
X116336725Y-158232165D01*
X116269996Y-158211923D01*
X116200600Y-158205088D01*
X114600600Y-158205088D01*
X114531204Y-158211923D01*
X114464475Y-158232165D01*
X114402977Y-158265036D01*
X114349074Y-158309274D01*
X114304836Y-158363177D01*
X114271965Y-158424675D01*
X114251723Y-158491404D01*
X114244888Y-158560800D01*
X114244888Y-160160800D01*
X114251723Y-160230196D01*
X114271965Y-160296925D01*
X114279576Y-160311165D01*
X114060072Y-160339274D01*
X113895381Y-160389710D01*
X113914126Y-160374326D01*
X113958364Y-160320423D01*
X113991235Y-160258925D01*
X114011477Y-160192196D01*
X114018312Y-160122800D01*
X114018312Y-158598800D01*
X114011477Y-158529404D01*
X113991235Y-158462675D01*
X113958364Y-158401177D01*
X113914126Y-158347274D01*
X113860223Y-158303036D01*
X113798725Y-158270165D01*
X113731996Y-158249923D01*
X113662600Y-158243088D01*
X112138600Y-158243088D01*
X112069204Y-158249923D01*
X112002475Y-158270165D01*
X111940977Y-158303036D01*
X111887074Y-158347274D01*
X111842836Y-158401177D01*
X111809965Y-158462675D01*
X111789723Y-158529404D01*
X111782888Y-158598800D01*
X111782888Y-160122800D01*
X111789723Y-160192196D01*
X111809965Y-160258925D01*
X111842836Y-160320423D01*
X111887074Y-160374326D01*
X111940977Y-160418564D01*
X112002475Y-160451435D01*
X112069204Y-160471677D01*
X112138600Y-160478512D01*
X113605412Y-160478512D01*
X113093281Y-160635350D01*
X112190433Y-161090556D01*
X111377502Y-161691797D01*
X110677874Y-162421775D01*
X110111677Y-163259491D01*
X109695199Y-164180845D01*
X109440421Y-165159331D01*
X109354673Y-166166800D01*
X109440421Y-167174269D01*
X109695199Y-168152755D01*
X109953638Y-168724488D01*
X108750200Y-168724488D01*
X108680804Y-168731323D01*
X108614075Y-168751565D01*
X108552577Y-168784436D01*
X108498674Y-168828674D01*
X108454436Y-168882577D01*
X108421565Y-168944075D01*
X108401323Y-169010804D01*
X108394488Y-169080200D01*
X82424860Y-169080200D01*
X75512509Y-162469010D01*
X86280309Y-162469010D01*
X86280309Y-162904990D01*
X86365365Y-163332593D01*
X86532207Y-163735386D01*
X86774425Y-164097891D01*
X87082709Y-164406175D01*
X87445214Y-164648393D01*
X87848007Y-164815235D01*
X88275610Y-164900291D01*
X88711590Y-164900291D01*
X89139193Y-164815235D01*
X89541986Y-164648393D01*
X89904491Y-164406175D01*
X90212775Y-164097891D01*
X90454993Y-163735386D01*
X90621835Y-163332593D01*
X90706891Y-162904990D01*
X90706891Y-162469010D01*
X90621835Y-162041407D01*
X90454993Y-161638614D01*
X90212775Y-161276109D01*
X89904491Y-160967825D01*
X89541986Y-160725607D01*
X89139193Y-160558765D01*
X88711590Y-160473709D01*
X88275610Y-160473709D01*
X87848007Y-160558765D01*
X87445214Y-160725607D01*
X87082709Y-160967825D01*
X86774425Y-161276109D01*
X86532207Y-161638614D01*
X86365365Y-162041407D01*
X86280309Y-162469010D01*
X75512509Y-162469010D01*
X75385087Y-162347140D01*
X75384254Y-161144350D01*
X75420547Y-161326809D01*
X75507538Y-161536824D01*
X75633829Y-161725832D01*
X75794568Y-161886571D01*
X75983576Y-162012862D01*
X76193591Y-162099853D01*
X76416541Y-162144200D01*
X76643859Y-162144200D01*
X76866809Y-162099853D01*
X77076824Y-162012862D01*
X77265832Y-161886571D01*
X77426571Y-161725832D01*
X77552862Y-161536824D01*
X77639853Y-161326809D01*
X77684200Y-161103859D01*
X77684200Y-160876541D01*
X77639853Y-160653591D01*
X77552862Y-160443576D01*
X77426571Y-160254568D01*
X77265832Y-160093829D01*
X77076824Y-159967538D01*
X76866809Y-159880547D01*
X76643859Y-159836200D01*
X76416541Y-159836200D01*
X76193591Y-159880547D01*
X75983576Y-159967538D01*
X75794568Y-160093829D01*
X75633829Y-160254568D01*
X75507538Y-160443576D01*
X75420547Y-160653591D01*
X75384041Y-160837119D01*
X75382489Y-158595477D01*
X75420547Y-158786809D01*
X75507538Y-158996824D01*
X75633829Y-159185832D01*
X75794568Y-159346571D01*
X75983576Y-159472862D01*
X76193591Y-159559853D01*
X76416541Y-159604200D01*
X76643859Y-159604200D01*
X76866809Y-159559853D01*
X77076824Y-159472862D01*
X77265832Y-159346571D01*
X77426571Y-159185832D01*
X77552862Y-158996824D01*
X77639853Y-158786809D01*
X77684200Y-158563859D01*
X77684200Y-158412200D01*
X78041488Y-158412200D01*
X78041488Y-160012200D01*
X78048323Y-160081596D01*
X78068565Y-160148325D01*
X78101436Y-160209823D01*
X78145674Y-160263726D01*
X78199577Y-160307964D01*
X78261075Y-160340835D01*
X78327804Y-160361077D01*
X78397200Y-160367912D01*
X79997200Y-160367912D01*
X80066596Y-160361077D01*
X80133325Y-160340835D01*
X80194823Y-160307964D01*
X80248726Y-160263726D01*
X80292964Y-160209823D01*
X80325835Y-160148325D01*
X80346077Y-160081596D01*
X80352912Y-160012200D01*
X80352912Y-159098541D01*
X80583200Y-159098541D01*
X80583200Y-159325859D01*
X80627547Y-159548809D01*
X80714538Y-159758824D01*
X80840829Y-159947832D01*
X81001568Y-160108571D01*
X81190576Y-160234862D01*
X81400591Y-160321853D01*
X81623541Y-160366200D01*
X81850859Y-160366200D01*
X82073809Y-160321853D01*
X82283824Y-160234862D01*
X82472832Y-160108571D01*
X82633571Y-159947832D01*
X82759862Y-159758824D01*
X82846853Y-159548809D01*
X82891200Y-159325859D01*
X82891200Y-159098541D01*
X83123200Y-159098541D01*
X83123200Y-159325859D01*
X83167547Y-159548809D01*
X83254538Y-159758824D01*
X83380829Y-159947832D01*
X83541568Y-160108571D01*
X83730576Y-160234862D01*
X83940591Y-160321853D01*
X84163541Y-160366200D01*
X84390859Y-160366200D01*
X84613809Y-160321853D01*
X84823824Y-160234862D01*
X85012832Y-160108571D01*
X85173571Y-159947832D01*
X85299862Y-159758824D01*
X85386853Y-159548809D01*
X85431200Y-159325859D01*
X85431200Y-159098541D01*
X85386853Y-158875591D01*
X85299862Y-158665576D01*
X85255244Y-158598800D01*
X109282888Y-158598800D01*
X109282888Y-160122800D01*
X109289723Y-160192196D01*
X109309965Y-160258925D01*
X109342836Y-160320423D01*
X109387074Y-160374326D01*
X109440977Y-160418564D01*
X109502475Y-160451435D01*
X109569204Y-160471677D01*
X109638600Y-160478512D01*
X111162600Y-160478512D01*
X111231996Y-160471677D01*
X111298725Y-160451435D01*
X111360223Y-160418564D01*
X111414126Y-160374326D01*
X111458364Y-160320423D01*
X111491235Y-160258925D01*
X111511477Y-160192196D01*
X111518312Y-160122800D01*
X111518312Y-158598800D01*
X111511477Y-158529404D01*
X111491235Y-158462675D01*
X111458364Y-158401177D01*
X111414126Y-158347274D01*
X111360223Y-158303036D01*
X111298725Y-158270165D01*
X111231996Y-158249923D01*
X111162600Y-158243088D01*
X109638600Y-158243088D01*
X109569204Y-158249923D01*
X109502475Y-158270165D01*
X109440977Y-158303036D01*
X109387074Y-158347274D01*
X109342836Y-158401177D01*
X109309965Y-158462675D01*
X109289723Y-158529404D01*
X109282888Y-158598800D01*
X85255244Y-158598800D01*
X85173571Y-158476568D01*
X85012832Y-158315829D01*
X84823824Y-158189538D01*
X84613809Y-158102547D01*
X84390859Y-158058200D01*
X84163541Y-158058200D01*
X83940591Y-158102547D01*
X83730576Y-158189538D01*
X83541568Y-158315829D01*
X83380829Y-158476568D01*
X83254538Y-158665576D01*
X83167547Y-158875591D01*
X83123200Y-159098541D01*
X82891200Y-159098541D01*
X82846853Y-158875591D01*
X82759862Y-158665576D01*
X82633571Y-158476568D01*
X82472832Y-158315829D01*
X82283824Y-158189538D01*
X82073809Y-158102547D01*
X81850859Y-158058200D01*
X81623541Y-158058200D01*
X81400591Y-158102547D01*
X81190576Y-158189538D01*
X81001568Y-158315829D01*
X80840829Y-158476568D01*
X80714538Y-158665576D01*
X80627547Y-158875591D01*
X80583200Y-159098541D01*
X80352912Y-159098541D01*
X80352912Y-158412200D01*
X80346077Y-158342804D01*
X80325835Y-158276075D01*
X80292964Y-158214577D01*
X80248726Y-158160674D01*
X80194823Y-158116436D01*
X80133325Y-158083565D01*
X80066596Y-158063323D01*
X79997200Y-158056488D01*
X78397200Y-158056488D01*
X78327804Y-158063323D01*
X78261075Y-158083565D01*
X78199577Y-158116436D01*
X78145674Y-158160674D01*
X78101436Y-158214577D01*
X78068565Y-158276075D01*
X78048323Y-158342804D01*
X78041488Y-158412200D01*
X77684200Y-158412200D01*
X77684200Y-158336541D01*
X77639853Y-158113591D01*
X77552862Y-157903576D01*
X77426571Y-157714568D01*
X77265832Y-157553829D01*
X77076824Y-157427538D01*
X76866809Y-157340547D01*
X76643859Y-157296200D01*
X76416541Y-157296200D01*
X76193591Y-157340547D01*
X75983576Y-157427538D01*
X75794568Y-157553829D01*
X75633829Y-157714568D01*
X75507538Y-157903576D01*
X75420547Y-158113591D01*
X75382289Y-158305932D01*
X75381231Y-156778661D01*
X75381323Y-156779596D01*
X75401565Y-156846325D01*
X75434436Y-156907823D01*
X75478674Y-156961726D01*
X75532577Y-157005964D01*
X75594075Y-157038835D01*
X75660804Y-157059077D01*
X75730200Y-157065912D01*
X77330200Y-157065912D01*
X77399596Y-157059077D01*
X77466325Y-157038835D01*
X77527823Y-157005964D01*
X77581726Y-156961726D01*
X77625964Y-156907823D01*
X77658835Y-156846325D01*
X77679077Y-156779596D01*
X77685912Y-156710200D01*
X77685912Y-155110200D01*
X77679077Y-155040804D01*
X77658835Y-154974075D01*
X77625964Y-154912577D01*
X77581726Y-154858674D01*
X77527823Y-154814436D01*
X77466325Y-154781565D01*
X77399596Y-154761323D01*
X77330200Y-154754488D01*
X75730200Y-154754488D01*
X75660804Y-154761323D01*
X75594075Y-154781565D01*
X75532577Y-154814436D01*
X75478674Y-154858674D01*
X75434436Y-154912577D01*
X75401565Y-154974075D01*
X75381323Y-155040804D01*
X75380036Y-155053866D01*
X75378959Y-153497729D01*
X75420547Y-153706809D01*
X75507538Y-153916824D01*
X75633829Y-154105832D01*
X75794568Y-154266571D01*
X75983576Y-154392862D01*
X76193591Y-154479853D01*
X76416541Y-154524200D01*
X76643859Y-154524200D01*
X76866809Y-154479853D01*
X77076824Y-154392862D01*
X77265832Y-154266571D01*
X77426571Y-154105832D01*
X77552862Y-153916824D01*
X77639853Y-153706809D01*
X77684200Y-153483859D01*
X77684200Y-153256541D01*
X77639853Y-153033591D01*
X77552862Y-152823576D01*
X77426571Y-152634568D01*
X77265832Y-152473829D01*
X77076824Y-152347538D01*
X76866809Y-152260547D01*
X76643859Y-152216200D01*
X76416541Y-152216200D01*
X76193591Y-152260547D01*
X75983576Y-152347538D01*
X75794568Y-152473829D01*
X75633829Y-152634568D01*
X75507538Y-152823576D01*
X75420547Y-153033591D01*
X75378783Y-153243556D01*
X75377194Y-150948855D01*
X75420547Y-151166809D01*
X75507538Y-151376824D01*
X75633829Y-151565832D01*
X75794568Y-151726571D01*
X75983576Y-151852862D01*
X76193591Y-151939853D01*
X76416541Y-151984200D01*
X76643859Y-151984200D01*
X76866809Y-151939853D01*
X77076824Y-151852862D01*
X77265832Y-151726571D01*
X77426571Y-151565832D01*
X77552862Y-151376824D01*
X77639853Y-151166809D01*
X77684200Y-150943859D01*
X77684200Y-150716541D01*
X77639853Y-150493591D01*
X77552862Y-150283576D01*
X77426571Y-150094568D01*
X77265832Y-149933829D01*
X77076824Y-149807538D01*
X76866809Y-149720547D01*
X76643859Y-149676200D01*
X76416541Y-149676200D01*
X76193591Y-149720547D01*
X75983576Y-149807538D01*
X75794568Y-149933829D01*
X75633829Y-150094568D01*
X75507538Y-150283576D01*
X75420547Y-150493591D01*
X75377030Y-150712368D01*
X75375917Y-149104706D01*
X75381323Y-149159596D01*
X75401565Y-149226325D01*
X75434436Y-149287823D01*
X75478674Y-149341726D01*
X75532577Y-149385964D01*
X75594075Y-149418835D01*
X75660804Y-149439077D01*
X75730200Y-149445912D01*
X77330200Y-149445912D01*
X77399596Y-149439077D01*
X77466325Y-149418835D01*
X77527823Y-149385964D01*
X77581726Y-149341726D01*
X77625964Y-149287823D01*
X77658835Y-149226325D01*
X77679077Y-149159596D01*
X77680888Y-149141200D01*
X78041488Y-149141200D01*
X78041488Y-150741200D01*
X78048323Y-150810596D01*
X78068565Y-150877325D01*
X78101436Y-150938823D01*
X78145674Y-150992726D01*
X78199577Y-151036964D01*
X78261075Y-151069835D01*
X78327804Y-151090077D01*
X78397200Y-151096912D01*
X79997200Y-151096912D01*
X80066596Y-151090077D01*
X80133325Y-151069835D01*
X80194823Y-151036964D01*
X80248726Y-150992726D01*
X80292964Y-150938823D01*
X80325835Y-150877325D01*
X80346077Y-150810596D01*
X80352912Y-150741200D01*
X80352912Y-149827541D01*
X80583200Y-149827541D01*
X80583200Y-150054859D01*
X80627547Y-150277809D01*
X80714538Y-150487824D01*
X80840829Y-150676832D01*
X81001568Y-150837571D01*
X81190576Y-150963862D01*
X81400591Y-151050853D01*
X81623541Y-151095200D01*
X81850859Y-151095200D01*
X82073809Y-151050853D01*
X82283824Y-150963862D01*
X82472832Y-150837571D01*
X82633571Y-150676832D01*
X82759862Y-150487824D01*
X82846853Y-150277809D01*
X82891200Y-150054859D01*
X82891200Y-149827541D01*
X83123200Y-149827541D01*
X83123200Y-150054859D01*
X83167547Y-150277809D01*
X83254538Y-150487824D01*
X83380829Y-150676832D01*
X83541568Y-150837571D01*
X83730576Y-150963862D01*
X83940591Y-151050853D01*
X84163541Y-151095200D01*
X84390859Y-151095200D01*
X84613809Y-151050853D01*
X84823824Y-150963862D01*
X85012832Y-150837571D01*
X85173571Y-150676832D01*
X85299862Y-150487824D01*
X85386853Y-150277809D01*
X85431200Y-150054859D01*
X85431200Y-149827541D01*
X85386853Y-149604591D01*
X85299862Y-149394576D01*
X85173571Y-149205568D01*
X85012832Y-149044829D01*
X84823824Y-148918538D01*
X84613809Y-148831547D01*
X84390859Y-148787200D01*
X84163541Y-148787200D01*
X83940591Y-148831547D01*
X83730576Y-148918538D01*
X83541568Y-149044829D01*
X83380829Y-149205568D01*
X83254538Y-149394576D01*
X83167547Y-149604591D01*
X83123200Y-149827541D01*
X82891200Y-149827541D01*
X82846853Y-149604591D01*
X82759862Y-149394576D01*
X82633571Y-149205568D01*
X82472832Y-149044829D01*
X82283824Y-148918538D01*
X82073809Y-148831547D01*
X81850859Y-148787200D01*
X81623541Y-148787200D01*
X81400591Y-148831547D01*
X81190576Y-148918538D01*
X81001568Y-149044829D01*
X80840829Y-149205568D01*
X80714538Y-149394576D01*
X80627547Y-149604591D01*
X80583200Y-149827541D01*
X80352912Y-149827541D01*
X80352912Y-149141200D01*
X80346077Y-149071804D01*
X80325835Y-149005075D01*
X80292964Y-148943577D01*
X80248726Y-148889674D01*
X80194823Y-148845436D01*
X80133325Y-148812565D01*
X80066596Y-148792323D01*
X79997200Y-148785488D01*
X78397200Y-148785488D01*
X78327804Y-148792323D01*
X78261075Y-148812565D01*
X78199577Y-148845436D01*
X78145674Y-148889674D01*
X78101436Y-148943577D01*
X78068565Y-149005075D01*
X78048323Y-149071804D01*
X78041488Y-149141200D01*
X77680888Y-149141200D01*
X77685912Y-149090200D01*
X77685912Y-147490200D01*
X77679077Y-147420804D01*
X77658835Y-147354075D01*
X77625964Y-147292577D01*
X77581726Y-147238674D01*
X77527823Y-147194436D01*
X77466325Y-147161565D01*
X77399596Y-147141323D01*
X77330200Y-147134488D01*
X75730200Y-147134488D01*
X75660804Y-147141323D01*
X75594075Y-147161565D01*
X75532577Y-147194436D01*
X75478674Y-147238674D01*
X75434436Y-147292577D01*
X75401565Y-147354075D01*
X75381323Y-147420804D01*
X75374796Y-147487068D01*
X75372943Y-144810400D01*
X105646952Y-144810400D01*
X105661510Y-144958210D01*
X105704625Y-145100339D01*
X105774639Y-145231327D01*
X105857465Y-145332250D01*
X105806977Y-145359236D01*
X105753074Y-145403474D01*
X105708836Y-145457377D01*
X105675965Y-145518875D01*
X105655723Y-145585604D01*
X105648888Y-145655000D01*
X105648888Y-146455000D01*
X105655723Y-146524396D01*
X105675965Y-146591125D01*
X105708836Y-146652623D01*
X105753074Y-146706526D01*
X105806977Y-146750764D01*
X105868475Y-146783635D01*
X105935204Y-146803877D01*
X106004600Y-146810712D01*
X107304600Y-146810712D01*
X107373996Y-146803877D01*
X107440725Y-146783635D01*
X107502223Y-146750764D01*
X107556126Y-146706526D01*
X107600364Y-146652623D01*
X107633235Y-146591125D01*
X107653477Y-146524396D01*
X107660312Y-146455000D01*
X107660312Y-145655000D01*
X107653477Y-145585604D01*
X107633235Y-145518875D01*
X107600364Y-145457377D01*
X107556126Y-145403474D01*
X107502223Y-145359236D01*
X107451735Y-145332250D01*
X107534561Y-145231327D01*
X107604575Y-145100339D01*
X107647690Y-144958210D01*
X107662248Y-144810400D01*
X107647690Y-144662590D01*
X107604575Y-144520461D01*
X107534561Y-144389473D01*
X107440338Y-144274662D01*
X107325527Y-144180439D01*
X107194539Y-144110425D01*
X107052410Y-144067310D01*
X106941639Y-144056400D01*
X106367561Y-144056400D01*
X106256790Y-144067310D01*
X106114661Y-144110425D01*
X105983673Y-144180439D01*
X105868862Y-144274662D01*
X105774639Y-144389473D01*
X105704625Y-144520461D01*
X105661510Y-144662590D01*
X105646952Y-144810400D01*
X75372943Y-144810400D01*
X75370074Y-140667990D01*
X84306600Y-140667990D01*
X84306600Y-140875610D01*
X84347104Y-141079241D01*
X84426557Y-141271056D01*
X84541905Y-141443686D01*
X84688714Y-141590495D01*
X84861344Y-141705843D01*
X85053159Y-141785296D01*
X85256790Y-141825800D01*
X85464410Y-141825800D01*
X85668041Y-141785296D01*
X85859856Y-141705843D01*
X86032486Y-141590495D01*
X86179295Y-141443686D01*
X86294643Y-141271056D01*
X86374096Y-141079241D01*
X86414600Y-140875610D01*
X86414600Y-140667990D01*
X90306600Y-140667990D01*
X90306600Y-140875610D01*
X90347104Y-141079241D01*
X90426557Y-141271056D01*
X90541905Y-141443686D01*
X90688714Y-141590495D01*
X90861344Y-141705843D01*
X91053159Y-141785296D01*
X91256790Y-141825800D01*
X91464410Y-141825800D01*
X91668041Y-141785296D01*
X91859856Y-141705843D01*
X92032486Y-141590495D01*
X92179295Y-141443686D01*
X92294643Y-141271056D01*
X92374096Y-141079241D01*
X92414600Y-140875610D01*
X92414600Y-140667990D01*
X92374096Y-140464359D01*
X92294643Y-140272544D01*
X92179295Y-140099914D01*
X92032486Y-139953105D01*
X91859856Y-139837757D01*
X91668041Y-139758304D01*
X91464410Y-139717800D01*
X91256790Y-139717800D01*
X91053159Y-139758304D01*
X90861344Y-139837757D01*
X90688714Y-139953105D01*
X90541905Y-140099914D01*
X90426557Y-140272544D01*
X90347104Y-140464359D01*
X90306600Y-140667990D01*
X86414600Y-140667990D01*
X86374096Y-140464359D01*
X86294643Y-140272544D01*
X86179295Y-140099914D01*
X86032486Y-139953105D01*
X85859856Y-139837757D01*
X85668041Y-139758304D01*
X85464410Y-139717800D01*
X85256790Y-139717800D01*
X85053159Y-139758304D01*
X84861344Y-139837757D01*
X84688714Y-139953105D01*
X84541905Y-140099914D01*
X84426557Y-140272544D01*
X84347104Y-140464359D01*
X84306600Y-140667990D01*
X75370074Y-140667990D01*
X75362640Y-129932351D01*
X98290700Y-129932351D01*
X98290700Y-130099649D01*
X98323339Y-130263732D01*
X98387360Y-130418294D01*
X98480306Y-130557397D01*
X98598603Y-130675694D01*
X98737706Y-130768640D01*
X98892268Y-130832661D01*
X99056351Y-130865300D01*
X99223649Y-130865300D01*
X99387732Y-130832661D01*
X99542294Y-130768640D01*
X99681397Y-130675694D01*
X99799694Y-130557397D01*
X99892640Y-130418294D01*
X99956661Y-130263732D01*
X99989300Y-130099649D01*
X99989300Y-129932351D01*
X99956661Y-129768268D01*
X99892640Y-129613706D01*
X99799694Y-129474603D01*
X99681397Y-129356306D01*
X99542294Y-129263360D01*
X99387732Y-129199339D01*
X99223649Y-129166700D01*
X99056351Y-129166700D01*
X98892268Y-129199339D01*
X98737706Y-129263360D01*
X98598603Y-129356306D01*
X98480306Y-129474603D01*
X98387360Y-129613706D01*
X98323339Y-129768268D01*
X98290700Y-129932351D01*
X75362640Y-129932351D01*
X75361936Y-128916351D01*
X93210700Y-128916351D01*
X93210700Y-129083649D01*
X93243339Y-129247732D01*
X93307360Y-129402294D01*
X93400306Y-129541397D01*
X93518603Y-129659694D01*
X93657706Y-129752640D01*
X93812268Y-129816661D01*
X93976351Y-129849300D01*
X94143649Y-129849300D01*
X94307732Y-129816661D01*
X94462294Y-129752640D01*
X94601397Y-129659694D01*
X94719694Y-129541397D01*
X94812640Y-129402294D01*
X94876661Y-129247732D01*
X94909300Y-129083649D01*
X94909300Y-128916351D01*
X94876661Y-128752268D01*
X94812640Y-128597706D01*
X94719694Y-128458603D01*
X94601397Y-128340306D01*
X94462294Y-128247360D01*
X94307732Y-128183339D01*
X94143649Y-128150700D01*
X93976351Y-128150700D01*
X93812268Y-128183339D01*
X93657706Y-128247360D01*
X93518603Y-128340306D01*
X93400306Y-128458603D01*
X93307360Y-128597706D01*
X93243339Y-128752268D01*
X93210700Y-128916351D01*
X75361936Y-128916351D01*
X75361233Y-127900351D01*
X98290700Y-127900351D01*
X98290700Y-128067649D01*
X98323339Y-128231732D01*
X98387360Y-128386294D01*
X98480306Y-128525397D01*
X98598603Y-128643694D01*
X98737706Y-128736640D01*
X98892268Y-128800661D01*
X99056351Y-128833300D01*
X99223649Y-128833300D01*
X99387732Y-128800661D01*
X99542294Y-128736640D01*
X99681397Y-128643694D01*
X99746180Y-128578911D01*
X101492091Y-128578911D01*
X101593065Y-128846300D01*
X101744264Y-129088852D01*
X101939878Y-129297246D01*
X102172389Y-129463473D01*
X102432861Y-129581146D01*
X102521090Y-129607903D01*
X102746000Y-129496889D01*
X102746000Y-128354000D01*
X101602150Y-128354000D01*
X101492091Y-128578911D01*
X99746180Y-128578911D01*
X99799694Y-128525397D01*
X99892640Y-128386294D01*
X99956661Y-128231732D01*
X99989300Y-128067649D01*
X99989300Y-127900351D01*
X99973534Y-127821089D01*
X101492091Y-127821089D01*
X101602150Y-128046000D01*
X102746000Y-128046000D01*
X102746000Y-126903111D01*
X103054000Y-126903111D01*
X103054000Y-128046000D01*
X103074000Y-128046000D01*
X103074000Y-128354000D01*
X103054000Y-128354000D01*
X103054000Y-129496889D01*
X103278910Y-129607903D01*
X103367139Y-129581146D01*
X103627611Y-129463473D01*
X103860122Y-129297246D01*
X104055736Y-129088852D01*
X104206935Y-128846300D01*
X104301156Y-128596792D01*
X104373029Y-128770308D01*
X104504792Y-128967505D01*
X104672495Y-129135208D01*
X104869692Y-129266971D01*
X105088806Y-129357731D01*
X105321416Y-129404000D01*
X105558584Y-129404000D01*
X105791194Y-129357731D01*
X106010308Y-129266971D01*
X106207505Y-129135208D01*
X106375208Y-128967505D01*
X106506971Y-128770308D01*
X106597731Y-128551194D01*
X106644000Y-128318584D01*
X106644000Y-128081416D01*
X106597731Y-127848806D01*
X106506971Y-127629692D01*
X106375208Y-127432495D01*
X106207505Y-127264792D01*
X106010308Y-127133029D01*
X105791194Y-127042269D01*
X105558584Y-126996000D01*
X105321416Y-126996000D01*
X105088806Y-127042269D01*
X104869692Y-127133029D01*
X104672495Y-127264792D01*
X104504792Y-127432495D01*
X104373029Y-127629692D01*
X104301156Y-127803208D01*
X104206935Y-127553700D01*
X104055736Y-127311148D01*
X103860122Y-127102754D01*
X103627611Y-126936527D01*
X103367139Y-126818854D01*
X103278910Y-126792097D01*
X103054000Y-126903111D01*
X102746000Y-126903111D01*
X102521090Y-126792097D01*
X102432861Y-126818854D01*
X102172389Y-126936527D01*
X101939878Y-127102754D01*
X101744264Y-127311148D01*
X101593065Y-127553700D01*
X101492091Y-127821089D01*
X99973534Y-127821089D01*
X99956661Y-127736268D01*
X99892640Y-127581706D01*
X99799694Y-127442603D01*
X99681397Y-127324306D01*
X99542294Y-127231360D01*
X99387732Y-127167339D01*
X99223649Y-127134700D01*
X99056351Y-127134700D01*
X98892268Y-127167339D01*
X98737706Y-127231360D01*
X98598603Y-127324306D01*
X98480306Y-127442603D01*
X98387360Y-127581706D01*
X98323339Y-127736268D01*
X98290700Y-127900351D01*
X75361233Y-127900351D01*
X75360062Y-126210480D01*
X115397954Y-126197862D01*
X115193893Y-126401923D01*
G36*
X122596000Y-140970331D02*
G01*
X122596000Y-141229666D01*
X122596001Y-141229676D01*
X122596000Y-149546786D01*
X122531814Y-149642847D01*
X122474976Y-149780066D01*
X122446000Y-149925738D01*
X122446000Y-150074262D01*
X122474976Y-150219934D01*
X122475583Y-150221398D01*
X121869399Y-149615215D01*
X121869399Y-141564268D01*
X121872321Y-141534601D01*
X121860659Y-141416196D01*
X121826122Y-141302341D01*
X121770036Y-141197413D01*
X121735493Y-141155322D01*
X121694558Y-141105442D01*
X121671512Y-141086529D01*
X121188982Y-140604000D01*
X122596001Y-140604000D01*
X122596000Y-140970331D01*
G37*
X122596000Y-140970331D02*
X122596000Y-141229666D01*
X122596001Y-141229676D01*
X122596000Y-149546786D01*
X122531814Y-149642847D01*
X122474976Y-149780066D01*
X122446000Y-149925738D01*
X122446000Y-150074262D01*
X122474976Y-150219934D01*
X122475583Y-150221398D01*
X121869399Y-149615215D01*
X121869399Y-141564268D01*
X121872321Y-141534601D01*
X121860659Y-141416196D01*
X121826122Y-141302341D01*
X121770036Y-141197413D01*
X121735493Y-141155322D01*
X121694558Y-141105442D01*
X121671512Y-141086529D01*
X121188982Y-140604000D01*
X122596001Y-140604000D01*
X122596000Y-140970331D01*
G36*
X141084500Y-130538685D02*
G01*
X141084500Y-131866666D01*
X140945124Y-131773538D01*
X140735109Y-131686547D01*
X140512159Y-131642200D01*
X140284841Y-131642200D01*
X140061891Y-131686547D01*
X139851876Y-131773538D01*
X139662868Y-131899829D01*
X139502129Y-132060568D01*
X139375838Y-132249576D01*
X139288847Y-132459591D01*
X139244500Y-132682541D01*
X139244500Y-132909859D01*
X139288847Y-133132809D01*
X139375838Y-133342824D01*
X139502129Y-133531832D01*
X139662868Y-133692571D01*
X139851876Y-133818862D01*
X140061891Y-133905853D01*
X140284841Y-133950200D01*
X140512159Y-133950200D01*
X140735109Y-133905853D01*
X140945124Y-133818862D01*
X141084499Y-133725735D01*
X141084499Y-134406665D01*
X140945124Y-134313538D01*
X140735109Y-134226547D01*
X140512159Y-134182200D01*
X140284841Y-134182200D01*
X140061891Y-134226547D01*
X139851876Y-134313538D01*
X139662868Y-134439829D01*
X139502129Y-134600568D01*
X139375838Y-134789576D01*
X139288847Y-134999591D01*
X139244500Y-135222541D01*
X139244500Y-135449859D01*
X139288847Y-135672809D01*
X139375838Y-135882824D01*
X139502129Y-136071832D01*
X139662868Y-136232571D01*
X139851876Y-136358862D01*
X140061891Y-136445853D01*
X140247704Y-136482813D01*
X137334518Y-139396000D01*
X131472523Y-139396000D01*
X131540343Y-139340343D01*
X131555347Y-139322060D01*
X132722065Y-138155343D01*
X132740343Y-138140343D01*
X132768446Y-138106099D01*
X132800200Y-138067407D01*
X132844678Y-137984193D01*
X132844679Y-137984192D01*
X132872069Y-137893900D01*
X132879000Y-137823526D01*
X132879000Y-137823522D01*
X132881317Y-137800001D01*
X132879000Y-137776480D01*
X132879000Y-136331374D01*
X134541115Y-136331374D01*
X134616424Y-136564527D01*
X134869548Y-136677893D01*
X135139926Y-136739698D01*
X135417166Y-136747569D01*
X135690614Y-136701201D01*
X135949763Y-136602377D01*
X136020576Y-136564527D01*
X136095885Y-136331374D01*
X135318500Y-135553989D01*
X134541115Y-136331374D01*
X132879000Y-136331374D01*
X132879000Y-135434866D01*
X133907131Y-135434866D01*
X133953499Y-135708314D01*
X134052323Y-135967463D01*
X134090173Y-136038276D01*
X134323326Y-136113585D01*
X135100711Y-135336200D01*
X135536289Y-135336200D01*
X136313674Y-136113585D01*
X136546827Y-136038276D01*
X136660193Y-135785152D01*
X136719546Y-135525501D01*
X136748847Y-135672809D01*
X136835838Y-135882824D01*
X136962129Y-136071832D01*
X137122868Y-136232571D01*
X137311876Y-136358862D01*
X137521891Y-136445853D01*
X137744841Y-136490200D01*
X137972159Y-136490200D01*
X138195109Y-136445853D01*
X138405124Y-136358862D01*
X138594132Y-136232571D01*
X138754871Y-136071832D01*
X138881162Y-135882824D01*
X138968153Y-135672809D01*
X139012500Y-135449859D01*
X139012500Y-135222541D01*
X138968153Y-134999591D01*
X138881162Y-134789576D01*
X138754871Y-134600568D01*
X138594132Y-134439829D01*
X138405124Y-134313538D01*
X138195109Y-134226547D01*
X137972159Y-134182200D01*
X137744841Y-134182200D01*
X137521891Y-134226547D01*
X137311876Y-134313538D01*
X137122868Y-134439829D01*
X136962129Y-134600568D01*
X136835838Y-134789576D01*
X136748847Y-134999591D01*
X136716822Y-135160592D01*
X136683501Y-134964086D01*
X136584677Y-134704937D01*
X136546827Y-134634124D01*
X136313674Y-134558815D01*
X135536289Y-135336200D01*
X135100711Y-135336200D01*
X134323326Y-134558815D01*
X134090173Y-134634124D01*
X133976807Y-134887248D01*
X133915002Y-135157626D01*
X133907131Y-135434866D01*
X132879000Y-135434866D01*
X132879000Y-132682541D01*
X134164500Y-132682541D01*
X134164500Y-132909859D01*
X134208847Y-133132809D01*
X134295838Y-133342824D01*
X134422129Y-133531832D01*
X134582868Y-133692571D01*
X134771876Y-133818862D01*
X134981891Y-133905853D01*
X135142892Y-133937878D01*
X134946386Y-133971199D01*
X134687237Y-134070023D01*
X134616424Y-134107873D01*
X134541115Y-134341026D01*
X135318500Y-135118411D01*
X136095885Y-134341026D01*
X136020576Y-134107873D01*
X135767452Y-133994507D01*
X135507801Y-133935154D01*
X135655109Y-133905853D01*
X135865124Y-133818862D01*
X136054132Y-133692571D01*
X136214871Y-133531832D01*
X136341162Y-133342824D01*
X136428153Y-133132809D01*
X136472500Y-132909859D01*
X136472500Y-132682541D01*
X136704500Y-132682541D01*
X136704500Y-132909859D01*
X136748847Y-133132809D01*
X136835838Y-133342824D01*
X136962129Y-133531832D01*
X137122868Y-133692571D01*
X137311876Y-133818862D01*
X137521891Y-133905853D01*
X137744841Y-133950200D01*
X137972159Y-133950200D01*
X138195109Y-133905853D01*
X138405124Y-133818862D01*
X138594132Y-133692571D01*
X138754871Y-133531832D01*
X138881162Y-133342824D01*
X138968153Y-133132809D01*
X139012500Y-132909859D01*
X139012500Y-132682541D01*
X138968153Y-132459591D01*
X138881162Y-132249576D01*
X138754871Y-132060568D01*
X138594132Y-131899829D01*
X138405124Y-131773538D01*
X138195109Y-131686547D01*
X137972159Y-131642200D01*
X137744841Y-131642200D01*
X137521891Y-131686547D01*
X137311876Y-131773538D01*
X137122868Y-131899829D01*
X136962129Y-132060568D01*
X136835838Y-132249576D01*
X136748847Y-132459591D01*
X136704500Y-132682541D01*
X136472500Y-132682541D01*
X136428153Y-132459591D01*
X136341162Y-132249576D01*
X136214871Y-132060568D01*
X136054132Y-131899829D01*
X135865124Y-131773538D01*
X135655109Y-131686547D01*
X135432159Y-131642200D01*
X135204841Y-131642200D01*
X134981891Y-131686547D01*
X134771876Y-131773538D01*
X134582868Y-131899829D01*
X134422129Y-132060568D01*
X134295838Y-132249576D01*
X134208847Y-132459591D01*
X134164500Y-132682541D01*
X132879000Y-132682541D01*
X132879000Y-132245895D01*
X132907995Y-132216900D01*
X132979567Y-132109785D01*
X133028867Y-131990765D01*
X133054000Y-131864413D01*
X133054000Y-131735587D01*
X133028867Y-131609235D01*
X132979567Y-131490215D01*
X132907995Y-131383100D01*
X132816900Y-131292005D01*
X132709785Y-131220433D01*
X132590765Y-131171133D01*
X132464413Y-131146000D01*
X132335587Y-131146000D01*
X132209235Y-131171133D01*
X132090215Y-131220433D01*
X131983100Y-131292005D01*
X131892005Y-131383100D01*
X131820433Y-131490215D01*
X131771133Y-131609235D01*
X131746000Y-131735587D01*
X131746000Y-131864413D01*
X131771133Y-131990765D01*
X131820433Y-132109785D01*
X131892005Y-132216900D01*
X131921001Y-132245896D01*
X131921000Y-137601592D01*
X131001593Y-138521000D01*
X115683161Y-138521000D01*
X115725024Y-138419934D01*
X115754000Y-138274262D01*
X115754000Y-138178999D01*
X118876478Y-138178999D01*
X118900001Y-138181316D01*
X118923524Y-138178999D01*
X118923527Y-138178999D01*
X118993901Y-138172068D01*
X119084193Y-138144678D01*
X119167406Y-138100199D01*
X119223701Y-138054000D01*
X119264413Y-138054000D01*
X119390765Y-138028867D01*
X119509785Y-137979567D01*
X119616900Y-137907995D01*
X119707995Y-137816900D01*
X119779567Y-137709785D01*
X119828867Y-137590765D01*
X119854000Y-137464413D01*
X119854000Y-137335587D01*
X119828867Y-137209235D01*
X119779567Y-137090215D01*
X119707995Y-136983100D01*
X119616900Y-136892005D01*
X119509785Y-136820433D01*
X119390765Y-136771133D01*
X119264413Y-136746000D01*
X119135587Y-136746000D01*
X119009235Y-136771133D01*
X118890215Y-136820433D01*
X118783100Y-136892005D01*
X118692005Y-136983100D01*
X118620433Y-137090215D01*
X118571133Y-137209235D01*
X118568793Y-137220999D01*
X116416344Y-137220999D01*
X116428867Y-137190765D01*
X116454000Y-137064413D01*
X116454000Y-137037771D01*
X116535587Y-137054000D01*
X116664413Y-137054000D01*
X116790765Y-137028867D01*
X116909785Y-136979567D01*
X117016900Y-136907995D01*
X117107995Y-136816900D01*
X117179567Y-136709785D01*
X117228867Y-136590765D01*
X117254000Y-136464413D01*
X117254000Y-136335587D01*
X117228867Y-136209235D01*
X117179567Y-136090215D01*
X117107995Y-135983100D01*
X117024895Y-135900000D01*
X117045895Y-135879000D01*
X123201593Y-135879000D01*
X124746000Y-137423408D01*
X124746000Y-137464413D01*
X124771133Y-137590765D01*
X124820433Y-137709785D01*
X124892005Y-137816900D01*
X124983100Y-137907995D01*
X125090215Y-137979567D01*
X125209235Y-138028867D01*
X125335587Y-138054000D01*
X125464413Y-138054000D01*
X125590765Y-138028867D01*
X125709785Y-137979567D01*
X125816900Y-137907995D01*
X125907995Y-137816900D01*
X125979567Y-137709785D01*
X126028867Y-137590765D01*
X126054000Y-137464413D01*
X126054000Y-137335587D01*
X126028867Y-137209235D01*
X125979567Y-137090215D01*
X125907995Y-136983100D01*
X125816900Y-136892005D01*
X125709785Y-136820433D01*
X125590765Y-136771133D01*
X125464413Y-136746000D01*
X125423408Y-136746000D01*
X123755347Y-135077940D01*
X123740343Y-135059657D01*
X123667405Y-134999800D01*
X123584192Y-134955321D01*
X123493900Y-134927931D01*
X123423526Y-134921000D01*
X123423523Y-134921000D01*
X123400000Y-134918683D01*
X123376477Y-134921000D01*
X120345316Y-134921000D01*
X124705264Y-130561053D01*
X124722579Y-130546843D01*
X124779313Y-130477713D01*
X124821470Y-130398843D01*
X124847430Y-130313263D01*
X124851341Y-130273554D01*
X124907995Y-130216900D01*
X124979567Y-130109785D01*
X125028867Y-129990765D01*
X125054000Y-129864413D01*
X125054000Y-129735587D01*
X125028867Y-129609235D01*
X124979567Y-129490215D01*
X124907995Y-129383100D01*
X124816900Y-129292005D01*
X124709785Y-129220433D01*
X124590765Y-129171133D01*
X124464413Y-129146000D01*
X124335587Y-129146000D01*
X124209235Y-129171133D01*
X124090215Y-129220433D01*
X123983100Y-129292005D01*
X123892005Y-129383100D01*
X123820433Y-129490215D01*
X123771133Y-129609235D01*
X123746000Y-129735587D01*
X123746000Y-129864413D01*
X123771133Y-129990765D01*
X123820433Y-130109785D01*
X123841259Y-130140953D01*
X120812497Y-133169715D01*
X120779567Y-133090215D01*
X120707995Y-132983100D01*
X120616900Y-132892005D01*
X120509785Y-132820433D01*
X120390765Y-132771133D01*
X120264413Y-132746000D01*
X120135587Y-132746000D01*
X120009235Y-132771133D01*
X119890215Y-132820433D01*
X119783100Y-132892005D01*
X119754105Y-132921000D01*
X118245895Y-132921000D01*
X118216900Y-132892005D01*
X118109785Y-132820433D01*
X118072442Y-132804965D01*
X118922065Y-131955343D01*
X118940343Y-131940343D01*
X118981911Y-131889691D01*
X119000200Y-131867406D01*
X119031956Y-131807995D01*
X119044679Y-131784192D01*
X119072069Y-131693900D01*
X119079000Y-131623526D01*
X119079000Y-131623522D01*
X119081317Y-131600001D01*
X119079000Y-131576480D01*
X119079000Y-127845895D01*
X119107995Y-127816900D01*
X119179567Y-127709785D01*
X119228867Y-127590765D01*
X119254000Y-127464413D01*
X119254000Y-127335587D01*
X119228867Y-127209235D01*
X119179567Y-127090215D01*
X119121960Y-127004000D01*
X137549816Y-127004000D01*
X141084500Y-130538685D01*
G37*
X141084500Y-130538685D02*
X141084500Y-131866666D01*
X140945124Y-131773538D01*
X140735109Y-131686547D01*
X140512159Y-131642200D01*
X140284841Y-131642200D01*
X140061891Y-131686547D01*
X139851876Y-131773538D01*
X139662868Y-131899829D01*
X139502129Y-132060568D01*
X139375838Y-132249576D01*
X139288847Y-132459591D01*
X139244500Y-132682541D01*
X139244500Y-132909859D01*
X139288847Y-133132809D01*
X139375838Y-133342824D01*
X139502129Y-133531832D01*
X139662868Y-133692571D01*
X139851876Y-133818862D01*
X140061891Y-133905853D01*
X140284841Y-133950200D01*
X140512159Y-133950200D01*
X140735109Y-133905853D01*
X140945124Y-133818862D01*
X141084499Y-133725735D01*
X141084499Y-134406665D01*
X140945124Y-134313538D01*
X140735109Y-134226547D01*
X140512159Y-134182200D01*
X140284841Y-134182200D01*
X140061891Y-134226547D01*
X139851876Y-134313538D01*
X139662868Y-134439829D01*
X139502129Y-134600568D01*
X139375838Y-134789576D01*
X139288847Y-134999591D01*
X139244500Y-135222541D01*
X139244500Y-135449859D01*
X139288847Y-135672809D01*
X139375838Y-135882824D01*
X139502129Y-136071832D01*
X139662868Y-136232571D01*
X139851876Y-136358862D01*
X140061891Y-136445853D01*
X140247704Y-136482813D01*
X137334518Y-139396000D01*
X131472523Y-139396000D01*
X131540343Y-139340343D01*
X131555347Y-139322060D01*
X132722065Y-138155343D01*
X132740343Y-138140343D01*
X132768446Y-138106099D01*
X132800200Y-138067407D01*
X132844678Y-137984193D01*
X132844679Y-137984192D01*
X132872069Y-137893900D01*
X132879000Y-137823526D01*
X132879000Y-137823522D01*
X132881317Y-137800001D01*
X132879000Y-137776480D01*
X132879000Y-136331374D01*
X134541115Y-136331374D01*
X134616424Y-136564527D01*
X134869548Y-136677893D01*
X135139926Y-136739698D01*
X135417166Y-136747569D01*
X135690614Y-136701201D01*
X135949763Y-136602377D01*
X136020576Y-136564527D01*
X136095885Y-136331374D01*
X135318500Y-135553989D01*
X134541115Y-136331374D01*
X132879000Y-136331374D01*
X132879000Y-135434866D01*
X133907131Y-135434866D01*
X133953499Y-135708314D01*
X134052323Y-135967463D01*
X134090173Y-136038276D01*
X134323326Y-136113585D01*
X135100711Y-135336200D01*
X135536289Y-135336200D01*
X136313674Y-136113585D01*
X136546827Y-136038276D01*
X136660193Y-135785152D01*
X136719546Y-135525501D01*
X136748847Y-135672809D01*
X136835838Y-135882824D01*
X136962129Y-136071832D01*
X137122868Y-136232571D01*
X137311876Y-136358862D01*
X137521891Y-136445853D01*
X137744841Y-136490200D01*
X137972159Y-136490200D01*
X138195109Y-136445853D01*
X138405124Y-136358862D01*
X138594132Y-136232571D01*
X138754871Y-136071832D01*
X138881162Y-135882824D01*
X138968153Y-135672809D01*
X139012500Y-135449859D01*
X139012500Y-135222541D01*
X138968153Y-134999591D01*
X138881162Y-134789576D01*
X138754871Y-134600568D01*
X138594132Y-134439829D01*
X138405124Y-134313538D01*
X138195109Y-134226547D01*
X137972159Y-134182200D01*
X137744841Y-134182200D01*
X137521891Y-134226547D01*
X137311876Y-134313538D01*
X137122868Y-134439829D01*
X136962129Y-134600568D01*
X136835838Y-134789576D01*
X136748847Y-134999591D01*
X136716822Y-135160592D01*
X136683501Y-134964086D01*
X136584677Y-134704937D01*
X136546827Y-134634124D01*
X136313674Y-134558815D01*
X135536289Y-135336200D01*
X135100711Y-135336200D01*
X134323326Y-134558815D01*
X134090173Y-134634124D01*
X133976807Y-134887248D01*
X133915002Y-135157626D01*
X133907131Y-135434866D01*
X132879000Y-135434866D01*
X132879000Y-132682541D01*
X134164500Y-132682541D01*
X134164500Y-132909859D01*
X134208847Y-133132809D01*
X134295838Y-133342824D01*
X134422129Y-133531832D01*
X134582868Y-133692571D01*
X134771876Y-133818862D01*
X134981891Y-133905853D01*
X135142892Y-133937878D01*
X134946386Y-133971199D01*
X134687237Y-134070023D01*
X134616424Y-134107873D01*
X134541115Y-134341026D01*
X135318500Y-135118411D01*
X136095885Y-134341026D01*
X136020576Y-134107873D01*
X135767452Y-133994507D01*
X135507801Y-133935154D01*
X135655109Y-133905853D01*
X135865124Y-133818862D01*
X136054132Y-133692571D01*
X136214871Y-133531832D01*
X136341162Y-133342824D01*
X136428153Y-133132809D01*
X136472500Y-132909859D01*
X136472500Y-132682541D01*
X136704500Y-132682541D01*
X136704500Y-132909859D01*
X136748847Y-133132809D01*
X136835838Y-133342824D01*
X136962129Y-133531832D01*
X137122868Y-133692571D01*
X137311876Y-133818862D01*
X137521891Y-133905853D01*
X137744841Y-133950200D01*
X137972159Y-133950200D01*
X138195109Y-133905853D01*
X138405124Y-133818862D01*
X138594132Y-133692571D01*
X138754871Y-133531832D01*
X138881162Y-133342824D01*
X138968153Y-133132809D01*
X139012500Y-132909859D01*
X139012500Y-132682541D01*
X138968153Y-132459591D01*
X138881162Y-132249576D01*
X138754871Y-132060568D01*
X138594132Y-131899829D01*
X138405124Y-131773538D01*
X138195109Y-131686547D01*
X137972159Y-131642200D01*
X137744841Y-131642200D01*
X137521891Y-131686547D01*
X137311876Y-131773538D01*
X137122868Y-131899829D01*
X136962129Y-132060568D01*
X136835838Y-132249576D01*
X136748847Y-132459591D01*
X136704500Y-132682541D01*
X136472500Y-132682541D01*
X136428153Y-132459591D01*
X136341162Y-132249576D01*
X136214871Y-132060568D01*
X136054132Y-131899829D01*
X135865124Y-131773538D01*
X135655109Y-131686547D01*
X135432159Y-131642200D01*
X135204841Y-131642200D01*
X134981891Y-131686547D01*
X134771876Y-131773538D01*
X134582868Y-131899829D01*
X134422129Y-132060568D01*
X134295838Y-132249576D01*
X134208847Y-132459591D01*
X134164500Y-132682541D01*
X132879000Y-132682541D01*
X132879000Y-132245895D01*
X132907995Y-132216900D01*
X132979567Y-132109785D01*
X133028867Y-131990765D01*
X133054000Y-131864413D01*
X133054000Y-131735587D01*
X133028867Y-131609235D01*
X132979567Y-131490215D01*
X132907995Y-131383100D01*
X132816900Y-131292005D01*
X132709785Y-131220433D01*
X132590765Y-131171133D01*
X132464413Y-131146000D01*
X132335587Y-131146000D01*
X132209235Y-131171133D01*
X132090215Y-131220433D01*
X131983100Y-131292005D01*
X131892005Y-131383100D01*
X131820433Y-131490215D01*
X131771133Y-131609235D01*
X131746000Y-131735587D01*
X131746000Y-131864413D01*
X131771133Y-131990765D01*
X131820433Y-132109785D01*
X131892005Y-132216900D01*
X131921001Y-132245896D01*
X131921000Y-137601592D01*
X131001593Y-138521000D01*
X115683161Y-138521000D01*
X115725024Y-138419934D01*
X115754000Y-138274262D01*
X115754000Y-138178999D01*
X118876478Y-138178999D01*
X118900001Y-138181316D01*
X118923524Y-138178999D01*
X118923527Y-138178999D01*
X118993901Y-138172068D01*
X119084193Y-138144678D01*
X119167406Y-138100199D01*
X119223701Y-138054000D01*
X119264413Y-138054000D01*
X119390765Y-138028867D01*
X119509785Y-137979567D01*
X119616900Y-137907995D01*
X119707995Y-137816900D01*
X119779567Y-137709785D01*
X119828867Y-137590765D01*
X119854000Y-137464413D01*
X119854000Y-137335587D01*
X119828867Y-137209235D01*
X119779567Y-137090215D01*
X119707995Y-136983100D01*
X119616900Y-136892005D01*
X119509785Y-136820433D01*
X119390765Y-136771133D01*
X119264413Y-136746000D01*
X119135587Y-136746000D01*
X119009235Y-136771133D01*
X118890215Y-136820433D01*
X118783100Y-136892005D01*
X118692005Y-136983100D01*
X118620433Y-137090215D01*
X118571133Y-137209235D01*
X118568793Y-137220999D01*
X116416344Y-137220999D01*
X116428867Y-137190765D01*
X116454000Y-137064413D01*
X116454000Y-137037771D01*
X116535587Y-137054000D01*
X116664413Y-137054000D01*
X116790765Y-137028867D01*
X116909785Y-136979567D01*
X117016900Y-136907995D01*
X117107995Y-136816900D01*
X117179567Y-136709785D01*
X117228867Y-136590765D01*
X117254000Y-136464413D01*
X117254000Y-136335587D01*
X117228867Y-136209235D01*
X117179567Y-136090215D01*
X117107995Y-135983100D01*
X117024895Y-135900000D01*
X117045895Y-135879000D01*
X123201593Y-135879000D01*
X124746000Y-137423408D01*
X124746000Y-137464413D01*
X124771133Y-137590765D01*
X124820433Y-137709785D01*
X124892005Y-137816900D01*
X124983100Y-137907995D01*
X125090215Y-137979567D01*
X125209235Y-138028867D01*
X125335587Y-138054000D01*
X125464413Y-138054000D01*
X125590765Y-138028867D01*
X125709785Y-137979567D01*
X125816900Y-137907995D01*
X125907995Y-137816900D01*
X125979567Y-137709785D01*
X126028867Y-137590765D01*
X126054000Y-137464413D01*
X126054000Y-137335587D01*
X126028867Y-137209235D01*
X125979567Y-137090215D01*
X125907995Y-136983100D01*
X125816900Y-136892005D01*
X125709785Y-136820433D01*
X125590765Y-136771133D01*
X125464413Y-136746000D01*
X125423408Y-136746000D01*
X123755347Y-135077940D01*
X123740343Y-135059657D01*
X123667405Y-134999800D01*
X123584192Y-134955321D01*
X123493900Y-134927931D01*
X123423526Y-134921000D01*
X123423523Y-134921000D01*
X123400000Y-134918683D01*
X123376477Y-134921000D01*
X120345316Y-134921000D01*
X124705264Y-130561053D01*
X124722579Y-130546843D01*
X124779313Y-130477713D01*
X124821470Y-130398843D01*
X124847430Y-130313263D01*
X124851341Y-130273554D01*
X124907995Y-130216900D01*
X124979567Y-130109785D01*
X125028867Y-129990765D01*
X125054000Y-129864413D01*
X125054000Y-129735587D01*
X125028867Y-129609235D01*
X124979567Y-129490215D01*
X124907995Y-129383100D01*
X124816900Y-129292005D01*
X124709785Y-129220433D01*
X124590765Y-129171133D01*
X124464413Y-129146000D01*
X124335587Y-129146000D01*
X124209235Y-129171133D01*
X124090215Y-129220433D01*
X123983100Y-129292005D01*
X123892005Y-129383100D01*
X123820433Y-129490215D01*
X123771133Y-129609235D01*
X123746000Y-129735587D01*
X123746000Y-129864413D01*
X123771133Y-129990765D01*
X123820433Y-130109785D01*
X123841259Y-130140953D01*
X120812497Y-133169715D01*
X120779567Y-133090215D01*
X120707995Y-132983100D01*
X120616900Y-132892005D01*
X120509785Y-132820433D01*
X120390765Y-132771133D01*
X120264413Y-132746000D01*
X120135587Y-132746000D01*
X120009235Y-132771133D01*
X119890215Y-132820433D01*
X119783100Y-132892005D01*
X119754105Y-132921000D01*
X118245895Y-132921000D01*
X118216900Y-132892005D01*
X118109785Y-132820433D01*
X118072442Y-132804965D01*
X118922065Y-131955343D01*
X118940343Y-131940343D01*
X118981911Y-131889691D01*
X119000200Y-131867406D01*
X119031956Y-131807995D01*
X119044679Y-131784192D01*
X119072069Y-131693900D01*
X119079000Y-131623526D01*
X119079000Y-131623522D01*
X119081317Y-131600001D01*
X119079000Y-131576480D01*
X119079000Y-127845895D01*
X119107995Y-127816900D01*
X119179567Y-127709785D01*
X119228867Y-127590765D01*
X119254000Y-127464413D01*
X119254000Y-127335587D01*
X119228867Y-127209235D01*
X119179567Y-127090215D01*
X119121960Y-127004000D01*
X137549816Y-127004000D01*
X141084500Y-130538685D01*
G36*
X114121000Y-135048410D02*
G01*
X114121002Y-137776468D01*
X114118684Y-137800001D01*
X114127933Y-137893901D01*
X114155323Y-137984193D01*
X114199801Y-138067406D01*
X114208440Y-138077932D01*
X114246326Y-138124098D01*
X114246000Y-138125738D01*
X114246000Y-138274262D01*
X114274976Y-138419934D01*
X114316839Y-138521000D01*
X111500409Y-138521000D01*
X111547623Y-138495764D01*
X111601526Y-138451526D01*
X111645764Y-138397623D01*
X111678635Y-138336125D01*
X111698877Y-138269396D01*
X111705712Y-138200000D01*
X111705712Y-137200000D01*
X111698877Y-137130604D01*
X111678635Y-137063875D01*
X111671219Y-137050000D01*
X111678635Y-137036125D01*
X111698877Y-136969396D01*
X111705712Y-136900000D01*
X111705712Y-136094610D01*
X111782001Y-136032001D01*
X111857980Y-135939421D01*
X111914437Y-135833797D01*
X111949203Y-135719189D01*
X111960942Y-135600000D01*
X111958000Y-135406000D01*
X111806000Y-135254000D01*
X110754000Y-135254000D01*
X110754000Y-135274000D01*
X110446000Y-135274000D01*
X110446000Y-135254000D01*
X110426000Y-135254000D01*
X110426000Y-134946000D01*
X110446000Y-134946000D01*
X110446000Y-134926000D01*
X110754000Y-134926000D01*
X110754000Y-134946000D01*
X111806000Y-134946000D01*
X111958000Y-134794000D01*
X111959365Y-134704001D01*
X113776592Y-134704001D01*
X114121000Y-135048410D01*
G37*
X114121000Y-135048410D02*
X114121002Y-137776468D01*
X114118684Y-137800001D01*
X114127933Y-137893901D01*
X114155323Y-137984193D01*
X114199801Y-138067406D01*
X114208440Y-138077932D01*
X114246326Y-138124098D01*
X114246000Y-138125738D01*
X114246000Y-138274262D01*
X114274976Y-138419934D01*
X114316839Y-138521000D01*
X111500409Y-138521000D01*
X111547623Y-138495764D01*
X111601526Y-138451526D01*
X111645764Y-138397623D01*
X111678635Y-138336125D01*
X111698877Y-138269396D01*
X111705712Y-138200000D01*
X111705712Y-137200000D01*
X111698877Y-137130604D01*
X111678635Y-137063875D01*
X111671219Y-137050000D01*
X111678635Y-137036125D01*
X111698877Y-136969396D01*
X111705712Y-136900000D01*
X111705712Y-136094610D01*
X111782001Y-136032001D01*
X111857980Y-135939421D01*
X111914437Y-135833797D01*
X111949203Y-135719189D01*
X111960942Y-135600000D01*
X111958000Y-135406000D01*
X111806000Y-135254000D01*
X110754000Y-135254000D01*
X110754000Y-135274000D01*
X110446000Y-135274000D01*
X110446000Y-135254000D01*
X110426000Y-135254000D01*
X110426000Y-134946000D01*
X110446000Y-134946000D01*
X110446000Y-134926000D01*
X110754000Y-134926000D01*
X110754000Y-134946000D01*
X111806000Y-134946000D01*
X111958000Y-134794000D01*
X111959365Y-134704001D01*
X113776592Y-134704001D01*
X114121000Y-135048410D01*
G36*
X108154000Y-134946000D02*
G01*
X108174000Y-134946000D01*
X108174000Y-135254000D01*
X108154000Y-135254000D01*
X108154000Y-135274000D01*
X107846000Y-135274000D01*
X107846000Y-135254000D01*
X107826000Y-135254000D01*
X107826000Y-134946000D01*
X107846000Y-134946000D01*
X107846000Y-134926000D01*
X108154000Y-134926000D01*
X108154000Y-134946000D01*
G37*
X108154000Y-134946000D02*
X108174000Y-134946000D01*
X108174000Y-135254000D01*
X108154000Y-135254000D01*
X108154000Y-135274000D01*
X107846000Y-135274000D01*
X107846000Y-135254000D01*
X107826000Y-135254000D01*
X107826000Y-134946000D01*
X107846000Y-134946000D01*
X107846000Y-134926000D01*
X108154000Y-134926000D01*
X108154000Y-134946000D01*
G36*
X118020433Y-127090215D02*
G01*
X117971133Y-127209235D01*
X117946000Y-127335587D01*
X117946000Y-127464413D01*
X117971133Y-127590765D01*
X118020433Y-127709785D01*
X118092005Y-127816900D01*
X118121000Y-127845895D01*
X118121001Y-131401591D01*
X116279000Y-133243593D01*
X116279000Y-130963520D01*
X116281317Y-130939999D01*
X116279000Y-130916474D01*
X116272069Y-130846100D01*
X116244679Y-130755808D01*
X116204404Y-130680460D01*
X116200200Y-130672594D01*
X116175435Y-130642417D01*
X116140343Y-130599657D01*
X116122065Y-130584657D01*
X114943120Y-129405712D01*
X116450000Y-129405712D01*
X116519396Y-129398877D01*
X116586125Y-129378635D01*
X116647623Y-129345764D01*
X116701526Y-129301526D01*
X116745764Y-129247623D01*
X116778635Y-129186125D01*
X116798877Y-129119396D01*
X116805712Y-129050000D01*
X116805712Y-127350000D01*
X116798877Y-127280604D01*
X116778635Y-127213875D01*
X116745764Y-127152377D01*
X116701526Y-127098474D01*
X116647623Y-127054236D01*
X116586125Y-127021365D01*
X116528880Y-127004000D01*
X118078040Y-127004000D01*
X118020433Y-127090215D01*
G37*
X118020433Y-127090215D02*
X117971133Y-127209235D01*
X117946000Y-127335587D01*
X117946000Y-127464413D01*
X117971133Y-127590765D01*
X118020433Y-127709785D01*
X118092005Y-127816900D01*
X118121000Y-127845895D01*
X118121001Y-131401591D01*
X116279000Y-133243593D01*
X116279000Y-130963520D01*
X116281317Y-130939999D01*
X116279000Y-130916474D01*
X116272069Y-130846100D01*
X116244679Y-130755808D01*
X116204404Y-130680460D01*
X116200200Y-130672594D01*
X116175435Y-130642417D01*
X116140343Y-130599657D01*
X116122065Y-130584657D01*
X114943120Y-129405712D01*
X116450000Y-129405712D01*
X116519396Y-129398877D01*
X116586125Y-129378635D01*
X116647623Y-129345764D01*
X116701526Y-129301526D01*
X116745764Y-129247623D01*
X116778635Y-129186125D01*
X116798877Y-129119396D01*
X116805712Y-129050000D01*
X116805712Y-127350000D01*
X116798877Y-127280604D01*
X116778635Y-127213875D01*
X116745764Y-127152377D01*
X116701526Y-127098474D01*
X116647623Y-127054236D01*
X116586125Y-127021365D01*
X116528880Y-127004000D01*
X118078040Y-127004000D01*
X118020433Y-127090215D01*
M02*
